<?xml version="1.0" encoding="UTF-8" standalone="no"?>
<!-- Generator: Gravit.io -->
<svg xmlns="http://www.w3.org/2000/svg" xmlns:xlink="http://www.w3.org/1999/xlink" style="isolation:isolate" viewBox="0 0 1440 3072" width="1440pt" height="3072pt"><defs><clipPath id="_clipPath_7lBOZJ3CsnASFr0xkOQhlq83Oib9HfA1"><rect width="1440" height="3072"/></clipPath></defs><g clip-path="url(#_clipPath_7lBOZJ3CsnASFr0xkOQhlq83Oib9HfA1)"><g style="isolation:isolate"><path d=" M -229.333 94.711 C -206.906 75.794 -179.759 71.349 -174.788 73.711 C -163.48 69.942 -128.381 54.464 -118.148 49.347 C -101.327 40.937 -85.145 36.711 -68.148 36.711 C -32.276 33.247 2.649 43.249 34.303 49.347 C 64.02 55.072 91.538 56.785 93.852 57.711 C 120.12 68.218 131.362 75.194 144.909 88.741 C 150.993 94.825 153.901 99.941 153.901 105.308 C 153.901 109.441 152.177 113.723 148.852 118.711 C 145.494 123.749 109.529 128.086 107.03 128.711 C 84.943 134.233 116.426 140.651 60.852 147.711 C 32.417 150.675 58.334 163.698 29.758 159.711 C 29.384 160.084 12.123 163.561 5.852 167.271 C -1.285 171.493 2.485 176.019 2.485 176.62 C 2.485 181.544 14.067 177.546 34.303 184.711 C 52.364 192.966 42.792 211.044 67.636 212.984 C 87.019 219.676 80.569 239.263 100.97 228.135 C 131.247 224.287 137.092 233.471 137.333 220.559 C 136.138 212.385 108.828 215.634 114.606 206.923 C 122.448 195.099 130.409 190.256 144.909 190.256 C 148.011 190.256 178.144 194.703 185.818 202.378 C 188.681 205.241 192.555 211.694 196.424 212.984 C 197.909 213.479 204.296 214.499 205.515 214.499 C 219.138 214.499 228.976 196.942 237.333 190.256 C 243.823 185.065 254.598 173.59 263.091 173.59 C 271.542 173.59 292.037 179.405 314.852 190.256 C 331.168 198.016 350.196 209.613 359.852 217.711 C 376.957 238.553 377.964 244.524 378.242 244.802 C 384.655 251.214 393.528 234.913 409.852 247.711 C 439.469 278.433 454 301.767 454 316.014 C 454 316.673 451.935 349.78 448.979 368.711 C 446.089 387.214 442.347 391.537 438.848 393.287 C 428.364 398.529 416.792 407.651 406.852 397.711 C 403.786 394.644 396.668 382.68 396.424 382.68 C 396.424 382.68 393.394 391.771 393.394 391.771 C 391.527 397.372 391.879 408.646 391.879 414.499 C 391.879 419.213 390.515 435.635 387.333 437.226 C 387.333 437.226 375.852 446.317 375.852 446.317 C 371.919 450.639 370.823 473.759 357.852 482.711 C 342.615 493.227 317.93 488.741 310.061 488.741 C 294.522 488.741 304.728 518.711 299.455 526.62 C 296.949 530.378 269.126 521.711 263.091 521.711 C 208.092 541.99 178.937 527.44 176.852 528.135 C 151.939 529.976 152.595 536.025 144.909 543.711 C 131.86 556.76 104.852 546.711 90.852 546.711 C 75.023 546.711 68.734 540.966 57.852 533.711 C 57.852 533.711 40.374 509.236 38.848 507.711 C 32.516 501.379 20.758 502.559 17.636 496.317 C 13.652 488.349 13.091 490.087 13.091 484.196 C 13.091 473.197 29.758 467 29.758 455.408 C 29.758 446.858 19.072 446.397 14.606 450.862 C 10.883 454.585 2.485 462.57 2.485 469.044 C 2.485 487.415 6.153 493.366 -5.091 500.862 C -22.201 512.269 -46.097 507.214 -52.061 525.105 C -52.675 526.947 -57.515 536.317 -55.091 538.741 C -47.801 546.031 -41.455 548.987 -41.455 556.923 C -41.455 558.857 -40.703 566.014 -44.485 566.014 C -48.352 566.014 -51.913 573.054 -50.545 575.105 C -44.155 584.69 -36.594 587.436 -27.818 593.287 C -27.818 593.287 -23.273 594.802 -23.273 594.802 C -20.674 597.401 -14.353 598.504 -12.667 599.347 C -5.515 602.923 -0.073 581.165 -9.636 581.165 C -16.079 581.165 -30.905 566.407 -23.273 564.499 C -14.288 562.253 -4.735 567.529 4 567.529 C 23.631 567.529 37.206 585.329 41.879 599.347 C 48.007 617.732 35.818 616.258 35.818 626.62 C 35.818 628.471 38.436 635.99 38.848 637.226 C 42.401 647.883 50.97 653.862 50.97 667.529 C 50.97 678.529 29.547 685.711 22.182 685.711 C -4.657 685.711 -22.753 679.023 -44.485 673.59 C -48.151 672.673 -49.566 670.559 -53.576 670.559 C -79.517 670.559 -103.717 667.529 -126.303 667.529 C -133.643 667.529 -142.382 671.17 -146 672.075 C -164.997 676.824 -165.119 665.077 -174.788 655.408 C -178.562 651.634 -178.559 647.901 -179.333 644.802 C -180.14 641.576 -180.848 639.254 -180.848 635.711 C -180.848 624.18 -171.758 620.975 -171.758 611.468 C -171.758 602.33 -173.632 588.381 -177.818 584.196 C -182.379 579.635 -185.196 575.676 -191.455 573.59 C -191.455 573.59 -199.03 570.559 -199.03 570.559 C -200.545 569.044 -208.121 566.014 -208.121 566.014 C -210.189 565.325 -215.022 566.014 -217.212 566.014 C -220.254 566.014 -220.544 562.833 -223.273 561.468 C -225.829 560.19 -226.982 557.759 -229.333 555.408 C -236.099 548.642 -232.364 524.605 -232.364 517.529 C -232.364 501.315 -224.788 495.107 -224.788 479.65 C -224.788 475.105 -224.788 472.075 -224.788 469.044 C -224.788 458.984 -231.462 450.947 -235.394 441.771 C -238.382 434.8 -242.638 427.948 -244.485 420.559 C -244.485 420.559 -249.03 412.984 -249.03 412.984 C -249.03 403.935 -257.669 392.472 -259.636 387.226 C -263.193 377.742 -268.94 365.828 -270.242 355.408 C -270.242 355.408 -270.242 346.317 -270.242 346.317 C -270.242 318.816 -265.954 323.572 -259.636 304.62 C -257.796 299.099 -255.701 262.104 -249.032 264.62 C -245.059 266.119 -247.721 272.878 -244.485 283.62 C -241.178 288.499 -238.262 297.819 -235.394 298.62 C -225.953 290.906 -226.177 272.746 -212.091 265.62 C -202.671 260.855 -198.175 255.65 -167.091 249.62 C -158.805 244.468 -158.881 240.381 -158.091 236.62 C -158.356 229.274 -137.778 210.759 -127.818 206.923 C -126.894 205.998 -101.91 153.984 -100.545 152.62 C -98.999 151.073 -97.086 142.251 -95.091 140.256 C -90.292 135.457 -97.244 133.882 -106.091 150.862 C -110.075 158.509 -129.886 185.456 -135.148 196.317 C -146.701 210.421 -155.598 213.995 -159.636 216.014 C -162.667 217.529 -168.727 225.105 -168.727 225.105 C -179.996 236.374 -186.254 243.717 -200.545 250.862 C -217.568 259.374 -230.36 251.351 -239.939 241.771 C -250.192 231.519 -253.576 211.121 -253.576 199.347 C -253.576 193.287 -253.576 145.741 -253.576 142.711 C -256.027 136.045 -248.587 110.95 -229.333 94.711 Z " fill="rgb(0,0,0)" fill-opacity="0.08"/><path d=" M 1433.312 -100.653 C 1452.228 -78.225 1456.674 -51.079 1454.312 -46.107 C 1458.081 -34.8 1473.559 0.3 1478.675 10.533 C 1487.086 27.354 1491.312 43.536 1491.312 60.533 C 1494.776 96.404 1484.774 131.329 1478.675 162.984 C 1472.95 192.7 1471.237 220.219 1470.312 222.533 C 1459.804 248.801 1452.828 260.043 1439.281 273.59 C 1428.514 284.357 1420.779 285.177 1409.312 277.533 C 1404.274 274.174 1399.936 238.209 1399.312 235.711 C 1393.79 213.623 1387.372 245.107 1380.312 189.533 C 1377.348 161.097 1364.324 187.014 1368.312 158.438 C 1367.938 158.065 1364.462 140.804 1360.752 134.533 C 1356.529 127.396 1352.004 131.165 1351.403 131.165 C 1346.479 131.165 1350.477 142.748 1343.312 162.984 C 1335.056 181.044 1316.978 171.473 1315.039 196.317 C 1308.346 215.699 1288.76 209.249 1299.888 229.65 C 1303.735 259.928 1294.552 265.773 1307.463 266.014 C 1315.637 264.818 1312.388 237.509 1321.1 243.287 C 1332.924 251.129 1337.766 259.089 1337.766 273.59 C 1337.766 276.692 1333.319 306.824 1325.645 314.499 C 1322.782 317.362 1316.329 321.236 1315.039 325.105 C 1314.544 326.59 1313.524 332.977 1313.524 334.196 C 1313.524 347.819 1331.08 357.656 1337.766 366.014 C 1342.958 372.503 1354.433 383.279 1354.433 391.771 C 1354.433 400.223 1348.618 420.717 1337.766 443.533 C 1330.006 459.848 1318.409 478.877 1310.312 488.533 C 1289.47 505.638 1283.499 506.645 1283.221 506.923 C 1276.808 513.335 1293.11 522.208 1280.312 538.533 C 1249.589 568.15 1226.255 582.681 1212.009 582.681 C 1211.35 582.681 1178.243 580.616 1159.312 577.659 C 1140.809 574.77 1136.485 571.028 1134.736 567.529 C 1129.493 557.044 1120.372 545.473 1130.312 535.533 C 1133.378 532.466 1145.342 525.348 1145.342 525.105 C 1145.342 525.105 1136.251 522.075 1136.251 522.075 C 1130.651 520.208 1119.377 520.559 1113.524 520.559 C 1108.81 520.559 1092.388 519.196 1090.797 516.014 C 1090.797 516.014 1081.706 504.533 1081.706 504.533 C 1077.383 500.599 1054.264 499.504 1045.312 486.533 C 1034.796 471.295 1039.281 446.611 1039.281 438.741 C 1039.281 423.202 1009.312 433.408 1001.403 428.135 C 997.645 425.63 1006.312 397.807 1006.312 391.771 C 986.033 336.772 1000.582 307.617 999.888 305.533 C 998.047 280.62 991.998 281.276 984.312 273.59 C 971.263 260.54 981.312 233.532 981.312 219.533 C 981.312 203.704 987.057 197.415 994.312 186.533 C 994.312 186.533 1018.787 169.054 1020.312 167.529 C 1026.644 161.197 1025.463 149.438 1031.706 146.317 C 1039.674 142.333 1037.935 141.771 1043.827 141.771 C 1054.826 141.771 1061.023 158.438 1072.615 158.438 C 1081.165 158.438 1081.626 147.752 1077.16 143.287 C 1073.437 139.564 1065.452 131.165 1058.978 131.165 C 1040.607 131.165 1034.656 134.834 1027.16 123.59 C 1015.753 106.48 1020.808 82.583 1002.918 76.62 C 1001.076 76.006 991.706 71.165 989.281 73.59 C 981.992 80.879 979.035 87.226 971.1 87.226 C 969.166 87.226 962.009 87.977 962.009 84.196 C 962.009 80.329 954.969 76.768 952.918 78.135 C 943.332 84.525 940.587 92.086 934.736 100.862 C 934.736 100.862 933.221 105.408 933.221 105.408 C 930.622 108.007 929.519 114.328 928.675 116.014 C 925.099 123.166 946.857 128.608 946.857 119.044 C 946.857 112.602 961.616 97.776 963.524 105.408 C 965.77 114.393 960.494 123.946 960.494 132.681 C 960.494 152.311 942.693 165.887 928.675 170.559 C 910.29 176.688 911.765 164.499 901.403 164.499 C 899.552 164.499 892.033 167.117 890.797 167.529 C 880.14 171.081 874.16 179.65 860.494 179.65 C 849.494 179.65 842.312 158.227 842.312 150.862 C 842.312 124.024 849 105.927 854.433 84.196 C 855.35 80.529 857.463 79.115 857.463 75.105 C 857.463 49.163 860.494 24.963 860.494 2.378 C 860.494 -4.963 856.853 -13.701 855.948 -17.319 C 851.199 -36.317 862.946 -36.438 872.615 -46.107 C 876.389 -49.881 880.122 -49.878 883.221 -50.653 C 886.447 -51.459 888.769 -52.168 892.312 -52.168 C 903.843 -52.168 907.047 -43.077 916.554 -43.077 C 925.692 -43.077 939.641 -44.952 943.827 -49.138 C 948.387 -53.698 952.347 -56.515 954.433 -62.774 C 954.433 -62.774 957.463 -70.35 957.463 -70.35 C 958.978 -71.865 962.009 -79.441 962.009 -79.441 C 962.698 -81.508 962.009 -86.341 962.009 -88.532 C 962.009 -91.574 965.19 -91.864 966.554 -94.592 C 967.832 -97.149 970.264 -98.302 972.615 -100.653 C 979.38 -107.418 1003.417 -103.683 1010.494 -103.683 C 1026.707 -103.683 1032.915 -96.107 1048.372 -96.107 C 1052.918 -96.107 1055.948 -96.107 1058.978 -96.107 C 1069.038 -96.107 1077.076 -102.781 1086.251 -106.713 C 1093.222 -109.701 1100.074 -113.957 1107.463 -115.804 C 1107.463 -115.804 1115.039 -120.35 1115.039 -120.35 C 1124.088 -120.35 1135.55 -128.988 1140.797 -130.956 C 1150.28 -134.512 1162.195 -140.259 1172.615 -141.562 C 1172.615 -141.562 1181.706 -141.562 1181.706 -141.562 C 1209.207 -141.562 1204.451 -137.273 1223.403 -130.956 C 1228.923 -129.116 1265.918 -127.02 1263.403 -120.352 C 1261.904 -116.378 1255.144 -119.041 1244.403 -115.804 C 1239.524 -112.497 1230.203 -109.581 1229.403 -106.713 C 1237.117 -97.272 1255.277 -97.496 1262.403 -83.41 C 1267.168 -73.991 1272.373 -69.494 1278.403 -38.41 C 1283.555 -30.124 1287.642 -30.2 1291.403 -29.41 C 1298.749 -29.676 1317.264 -9.098 1321.1 0.862 C 1322.024 1.787 1374.038 26.771 1375.403 28.135 C 1376.949 29.682 1385.771 31.595 1387.766 33.59 C 1392.566 38.389 1394.141 31.437 1377.16 22.59 C 1369.514 18.606 1342.567 -1.205 1331.706 -6.467 C 1317.602 -18.021 1314.028 -26.918 1312.009 -30.956 C 1310.494 -33.986 1302.918 -40.047 1302.918 -40.047 C 1291.649 -51.315 1284.306 -57.574 1277.16 -71.865 C 1268.649 -88.888 1276.672 -101.679 1286.251 -111.259 C 1296.504 -121.512 1316.901 -124.895 1328.675 -124.895 C 1334.736 -124.895 1382.281 -124.895 1385.312 -124.895 C 1391.977 -127.346 1417.072 -119.906 1433.312 -100.653 Z " fill="rgb(0,0,0)" fill-opacity="0.08"/><path d=" M 79.676 1426.044 C 50.789 1431.176 25.069 1421.419 21.95 1416.884 C 10.276 1414.48 -27.855 1410.286 -39.274 1409.585 C -58.045 1408.435 -74.167 1403.983 -88.875 1395.466 C -121.654 1380.488 -146.866 1354.331 -171.203 1333.191 C -194.05 1313.346 -217.006 1298.074 -218.545 1296.113 C -236.012 1273.857 -242.245 1262.187 -247.179 1243.675 C -251.102 1228.961 -247.935 1221.857 -235.574 1215.764 C -230.143 1213.087 -196.846 1227.356 -194.371 1228.067 C -172.489 1234.357 -196.518 1213.026 -144.888 1234.765 C -118.795 1246.449 -134.697 1222.192 -111.966 1239.962 C -111.455 1239.826 -94.776 1245.467 -87.49 1245.399 C -79.198 1245.321 -80.192 1239.516 -79.891 1238.996 C -77.423 1234.735 -89.45 1232.391 -103.371 1216.05 C -114.864 1199.855 -97.522 1189.007 -118.05 1174.879 C -131.47 1159.375 -116.073 1145.657 -139.304 1145.064 C -167.434 1133.221 -167.89 1122.345 -174.569 1133.398 C -177.63 1141.071 -152.369 1151.944 -161.734 1156.587 C -174.446 1162.89 -183.761 1163.092 -196.31 1155.825 C -198.994 1154.271 -222.842 1135.323 -225.638 1124.836 C -226.681 1120.923 -226.799 1113.398 -229.501 1110.343 C -230.538 1109.17 -235.555 1105.087 -236.609 1104.476 C -248.398 1097.65 -265.709 1107.913 -276.292 1109.511 C -284.509 1110.752 -299.585 1115.283 -306.934 1111.027 C -314.248 1106.792 -329.07 1091.489 -343.376 1070.666 C -353.607 1055.775 -364.262 1036.204 -368.561 1024.358 C -372.919 997.75 -370.799 992.078 -370.9 991.698 C -373.236 982.935 -389.083 992.596 -396.797 973.341 C -407.032 931.913 -407.914 904.438 -400.775 892.109 C -400.444 891.539 -382.068 863.924 -370.023 849.022 C -358.25 834.458 -352.845 832.592 -348.941 832.831 C -337.241 833.548 -322.656 831.453 -319.035 845.036 C -317.918 849.226 -317.753 863.147 -317.543 863.269 C -317.543 863.269 -310.365 856.92 -310.365 856.92 C -305.943 853.009 -300.598 843.076 -297.665 838.011 C -295.302 833.932 -285.893 820.404 -282.342 820.621 C -282.342 820.621 -267.851 818.507 -267.851 818.507 C -262.281 816.738 -249.748 797.279 -234.037 796.032 C -215.581 794.567 -196.467 810.819 -189.657 814.762 C -176.21 822.549 -170.024 791.5 -161.497 787.297 C -157.447 785.301 -137.712 806.743 -132.489 809.768 C -74.731 819.779 -56.792 846.98 -54.64 847.423 C -32.158 858.314 -29.694 852.751 -19.192 849.951 C -1.36 845.197 16.977 867.427 29.092 874.443 C 42.79 882.375 45.354 890.498 51.135 902.229 C 51.135 902.229 53.996 932.168 54.552 934.252 C 56.859 942.905 67.626 947.776 67.199 954.742 C 66.654 963.634 68.011 962.411 65.059 967.509 C 59.547 977.027 42.019 974.038 36.21 984.07 C 31.925 991.469 40.942 997.223 47.044 995.596 C 52.131 994.24 63.401 991.538 66.645 985.936 C 75.85 970.038 75.658 963.05 89.145 962.197 C 109.668 960.9 127.814 977.248 141.94 964.755 C 143.394 963.468 152.278 957.785 151.395 954.472 C 148.74 944.511 144.729 938.772 148.706 931.905 C 149.675 930.232 152.611 923.661 155.883 925.556 C 159.23 927.494 165.839 923.186 165.684 920.726 C 164.957 909.229 159.79 903.064 155.127 893.603 C 155.127 893.603 151.953 890.014 151.953 890.014 C 151.006 886.463 146.089 882.34 145.052 880.766 C 140.655 874.087 125.043 890.189 133.319 894.982 C 138.894 898.21 144.328 918.411 136.768 916.238 C 127.866 913.679 122.244 904.326 114.685 899.949 C 97.696 890.112 94.868 867.905 97.849 853.433 C 101.759 834.452 111.568 841.836 116.76 832.868 C 117.688 831.267 119.19 823.448 119.453 822.172 C 121.719 811.169 117.3 801.701 124.148 789.874 C 129.66 780.355 151.798 784.875 158.172 788.565 C 181.398 802.014 193.706 816.87 209.79 832.462 C 212.504 835.092 212.669 837.63 216.139 839.64 C 238.589 852.639 258.012 867.388 277.558 878.706 C 283.91 882.384 293.296 883.612 296.881 884.643 C 315.701 890.052 309.919 900.279 313.442 913.492 C 314.816 918.648 312.943 921.878 312.061 924.948 C 311.142 928.143 310.592 930.508 308.816 933.574 C 303.038 943.553 293.565 941.771 288.801 949.998 C 284.222 957.906 278.855 970.916 280.379 976.636 C 282.041 982.868 282.495 987.706 286.865 992.648 C 286.865 992.648 291.903 999.066 291.903 999.066 C 292.455 1001.137 297.492 1007.555 297.492 1007.555 C 298.936 1009.188 303.464 1011.013 305.359 1012.111 C 307.992 1013.635 306.649 1016.533 308.326 1019.081 C 309.898 1021.469 309.678 1024.15 310.534 1027.363 C 312.999 1036.608 297.721 1055.538 294.175 1061.662 C 286.05 1075.692 276.383 1077.269 268.638 1090.645 C 266.36 1094.579 264.842 1097.201 263.323 1099.823 C 258.282 1108.529 260.03 1118.829 258.835 1128.74 C 257.927 1136.269 258.177 1144.332 256.073 1151.652 C 256.073 1151.652 256.21 1160.485 256.21 1160.485 C 251.676 1168.316 253.408 1182.564 252.481 1188.09 C 250.806 1198.08 249.81 1211.27 245.715 1220.94 C 245.715 1220.94 241.16 1228.807 241.16 1228.807 C 227.379 1252.607 226.051 1246.342 211.087 1259.577 C 206.728 1263.432 186.376 1294.397 181.866 1288.878 C 179.178 1285.59 184.87 1281.075 187.452 1270.157 C 187.035 1264.278 189.181 1254.751 187.101 1252.621 C 175.065 1254.566 166.159 1270.393 150.398 1269.501 C 139.859 1268.905 133.359 1271.156 103.438 1260.798 C 93.686 1261.104 91.704 1264.679 89.136 1267.538 C 85.684 1274.028 58.598 1279.739 48.057 1278.067 C 46.793 1278.404 -0.892 1310.897 -2.756 1311.394 C -4.87 1311.957 -10.946 1318.633 -13.672 1319.36 C -20.23 1321.108 -15.003 1325.955 1.162 1315.694 C 8.441 1311.073 39.089 1297.681 49.085 1290.919 C 66.15 1284.503 75.641 1285.868 80.147 1286.145 C 83.529 1286.352 92.57 1282.833 92.57 1282.833 C 107.968 1278.728 117.064 1275.509 133.012 1276.487 C 152.008 1277.651 159.058 1291.004 162.548 1304.095 C 166.282 1318.105 158.989 1337.452 153.089 1347.641 C 150.052 1352.886 126.227 1394.031 124.708 1396.654 C 123.489 1403.65 104.476 1421.639 79.676 1426.044 Z " fill="rgb(0,0,0)" fill-opacity="0.08"/><path d=" M 110.824 1756.165 C 112.411 1749.89 112.898 1745.027 112.412 1742.699 C 111.654 1739.067 103.942 1736.354 100.309 1734.436 C 95.63 1731.966 84.426 1730.658 83.209 1724.833 C 83.1 1724.312 83.13 1721.413 83.289 1720.696 C 83.702 1718.829 87.151 1716.108 88.58 1714.411 C 92.408 1709.863 92.333 1696.245 92.056 1694.919 C 90.761 1688.719 87.202 1686.115 79.547 1684.713 C 73.908 1683.681 78.257 1694.821 73.556 1696.681 C 65.941 1698.709 70.82 1694.694 65.853 1682.384 C 57.487 1675.497 69.583 1675.023 71.789 1665.631 C 70.711 1654.688 82.198 1655.797 85.441 1646.712 C 87.849 1636.878 84.463 1632.585 87.359 1631.773 C 87.712 1631.674 90.038 1629.315 93.158 1631.669 C 95.901 1633.739 99.487 1640.545 99.74 1640.643 C 99.946 1653.519 105.292 1640.289 109.574 1651.957 C 118.689 1674.554 119.653 1660.033 124.873 1668.566 C 125.463 1669.531 131.226 1684.192 134.489 1684.797 C 141.916 1686.173 146.392 1684.546 151.764 1678.165 C 158.522 1670.137 161.622 1664.179 165.456 1651.213 C 165.794 1650.071 164.344 1638.022 165.058 1624.372 C 165.818 1609.831 168.582 1593.247 163.342 1578.482 C 161.824 1571.215 157.894 1564.993 151.445 1559.189 C 147.522 1555.658 135.284 1543.205 132.057 1538.993 C 133.002 1536.477 127.964 1525.604 114.835 1519.137 L 114.835 1519.137 C 103.564 1513.585 88.14 1514.546 84.438 1516.694 C 82.656 1517.194 54.691 1525.041 51.127 1526.041 C 44.201 1527.984 32.506 1532.798 27.392 1538.873 C 22.613 1544.55 19.036 1551.344 25.562 1557.217 C 31.041 1562.148 35.919 1563.612 43.553 1566.571 C 43.553 1566.571 48.55 1567.912 49.712 1568.957 C 51.26 1570.35 54.157 1573.565 63.484 1576.177 C 70.342 1576.634 87.96 1580.657 92.813 1581.098 C 103.591 1582.079 103.285 1585.311 100.034 1584.051 C 98.682 1583.528 93.323 1584.166 92.275 1583.76 C 91.35 1583.401 58.527 1581.304 57.9 1581.061 C 54.755 1577.435 42.027 1571.693 37.73 1573.019 C 35.448 1573.302 33.051 1574.009 29.28 1571.316 C 22.958 1559.021 19.495 1557.958 15.851 1554.717 C 10.403 1549.87 -0.259 1552.963 -5.639 1550.199 C -5.424 1548.841 -0.203 1546.056 2.372 1543.837 C 8.401 1540.68 12.614 1540.703 13.141 1538.757 C 14.025 1535.49 -7.921 1540.7 -11.333 1540.824 C -23.044 1541.251 -20.629 1538.633 -36.805 1543.171 C -36.805 1543.171 -42.152 1544.672 -42.152 1544.672 C -48.164 1546.948 -54.658 1551.372 -59.919 1554.458 C -62.829 1556.165 -68.799 1561.75 -74.122 1563.244 C -74.122 1563.244 -78.172 1566.438 -78.172 1566.438 C -82.353 1568.447 -86.003 1571.397 -89.836 1573.825 C -94.882 1577.021 -99.013 1581.201 -104.93 1582.861 C -106.712 1583.362 -108.495 1583.862 -111.168 1584.612 C -120.259 1587.163 -124.587 1584.948 -134.124 1587.624 C -138.286 1588.792 -152.757 1591.162 -156.132 1595.172 C -157.305 1596.565 -158.632 1597.459 -159.156 1598.763 C -159.714 1600.155 -161.56 1600.804 -161.288 1602.105 C -161.092 1603.041 -160.255 1604.994 -160.476 1605.992 C -160.476 1605.992 -161.582 1609.731 -162.338 1610.629 C -162.338 1610.629 -163.444 1614.368 -163.444 1614.368 C -164.112 1617.388 -166.189 1619.246 -168.464 1621.949 C -170.552 1624.429 -178.589 1627.533 -183.964 1629.041 C -189.556 1630.61 -192.252 1627.252 -199.034 1629.155 C -201.118 1629.74 -202.421 1630.426 -204.246 1631.304 C -206 1632.146 -208.196 1632.761 -210.078 1634.998 C -214.902 1640.728 -221.8 1642.718 -217.311 1650.057 C -216.455 1651.455 -213.534 1654.59 -212.878 1657.729 C -210.861 1667.385 -210.483 1678.233 -208.166 1689.324 C -207.808 1691.039 -208.925 1691.992 -209.137 1693.711 C -210.392 1703.9 -212.71 1712.741 -210.313 1724.216 C -209.656 1727.365 -203.518 1735.34 -197.049 1733.524 C -189.01 1731.268 -186.258 1726.618 -180.308 1723.34 C -179.617 1722.96 -175.429 1720.6 -174.34 1720.294 C -168.246 1718.584 -168.024 1724.039 -157.758 1718.384 C -149.93 1714.073 -140.673 1705.331 -142.426 1696.937 C -143.206 1693.202 -140.956 1688.247 -143.079 1684.776 C -144.883 1681.828 -152.239 1690.603 -151.664 1693.357 C -150.81 1697.446 -164.093 1698.711 -162.629 1695.063 C -162.283 1694.202 -162.199 1691.318 -160.902 1689.778 C -160.902 1689.778 -160.417 1687.584 -160.417 1687.584 C -157.76 1682.866 -156.82 1679.18 -151.752 1674.866 C -150.668 1673.943 -146.21 1674.303 -145.864 1675.957 C -145.527 1677.574 -141.384 1676.071 -140.247 1675.752 C -135.579 1674.442 -134.407 1671.241 -130.77 1666.921 C -129.561 1665.484 -123.618 1666.007 -122.479 1665.966 C -111.424 1665.563 -112.264 1676.614 -104.027 1682.047 C -98.614 1685.618 -95.441 1683.067 -84.636 1680.035 C -80.828 1678.967 -75.382 1681.24 -72.859 1682.217 C -69.834 1683.389 -69.151 1688.034 -74.18 1689.446 C -80.998 1691.359 -86.131 1685.255 -92.6 1687.071 C -96.065 1688.043 -94.993 1687.996 -99.324 1691.015 C -102.717 1693.379 -100.972 1698.212 -104.131 1701.965 C -104.892 1702.869 -117.727 1714.381 -117.727 1714.381 C -121.022 1720.231 -123.839 1723.868 -122.426 1730.636 C -121.176 1736.622 -124.675 1749.828 -115.835 1753.254 C -110.628 1755.272 -107.128 1753.993 -103.821 1764.341 C -103.226 1765.118 -109.181 1779.985 -92.342 1800.153 C -91.803 1802.734 -94.416 1816.061 -91.982 1816.512 C -86.859 1817.461 -70.143 1808.151 -68.756 1814.795 C -68.053 1818.159 -68.487 1829.454 -60.942 1834.233 C -54.518 1838.302 -40.822 1834.955 -37.929 1835.923 C -37.929 1835.923 -31.556 1839.332 -31.556 1839.332 C -30.336 1840.429 -20.556 1838.302 -17.783 1837.524 C -14.341 1836.558 -7.741 1834.547 -4.28 1834.421 C -4.28 1834.421 1.337 1834.216 1.337 1834.216 C 1.359 1834.32 -5.042 1839.338 -6.572 1841.155 C -11.531 1847.046 -5.132 1850.488 -1.113 1854.106 C 0.229 1855.313 3.106 1856.199 14.247 1854.381 C 25.645 1852.521 45.302 1847.94 45.69 1847.831 C 52.829 1845.828 62.905 1838.226 75.29 1825.006 C 73.715 1830.202 72.844 1834.399 72.704 1837.253 C 72.29 1845.736 83.225 1857.059 88.094 1863.794 C 94.364 1872.468 111.419 1883.151 110.754 1896.757 C 110.694 1897.975 109.364 1904.304 108.797 1905.764 C 107.32 1909.565 100.685 1913.119 97.685 1915.839 C 89.646 1923.13 83.733 1953.009 83.582 1956.108 C 82.874 1970.591 87.322 1978.778 98.749 1987.188 C 107.168 1993.384 105.256 1965.949 113.479 1965.154 C 126.363 1966.025 116.905 1971.415 119.27 2001.844 C 129.388 2022.764 110.14 2015.365 102.509 2034.398 C 99.36 2059.118 81.771 2048.675 72.643 2066.311 C 64.499 2086.173 67.927 2097.937 63.009 2097.697 C 62.408 2097.667 57.704 2101.211 53.835 2093.877 C 50.435 2087.432 47.806 2070.022 47.451 2069.631 C 52.829 2041.283 38.556 2066.534 36.983 2037.988 C 32.645 1982.135 24.697 2013.268 20.26 1990.937 C 19.758 1988.411 17.182 1952.277 12.314 1948.677 C 1.234 1940.481 -6.532 1940.923 -17.813 1951.152 C -32.004 1964.021 -39.521 1974.909 -51.298 2000.633 C -52.336 2002.899 -55.39 2030.301 -62.559 2059.703 C -70.195 2091.022 -81.891 2125.417 -80.182 2161.415 C -81.012 2178.391 -77.581 2194.761 -70.001 2211.972 C -65.391 2222.443 -51.644 2258.256 -48.432 2269.734 C -51.033 2274.584 -47.919 2301.916 -30.12 2325.24 C -14.839 2345.263 9.862 2353.919 16.64 2351.796 C 19.666 2351.944 67.155 2354.265 73.209 2354.561 C 84.969 2355.136 105.507 2352.752 116.248 2343.012 C 126.284 2333.912 134.921 2321.527 127.251 2304.109 C 120.812 2289.486 113.783 2282.877 103.078 2271.071 C 103.078 2271.071 95.807 2264.648 94.441 2261.548 C 92.622 2257.416 89.486 2248.355 75.963 2236.127 C 65.372 2230.341 39.424 2209.238 31.981 2204.885 C 15.453 2195.22 17.366 2188.353 21.925 2193.381 C 23.82 2195.471 32.538 2197.812 34.008 2199.432 C 35.304 2200.862 86.036 2228.355 86.914 2229.324 C 90.259 2239.459 107.748 2260.916 115.098 2261.01 C 118.816 2261.983 122.902 2262.106 127.643 2270.634 C 132.148 2301.975 137.128 2306.72 141.427 2316.361 C 147.857 2330.778 166.006 2331.441 173.25 2341.247 C 172.311 2344.073 162.859 2346.53 157.825 2349.595 C 146.938 2352.304 140.316 2349.314 138.625 2353.21 C 135.787 2359.748 172.636 2363.646 178.06 2365.754 C 196.681 2372.989 191.721 2377.04 219.189 2378.383 C 219.189 2378.383 228.269 2378.827 228.269 2378.827 C 238.741 2378.034 250.921 2372.876 260.567 2369.787 C 265.904 2368.078 277.774 2360.009 286.812 2360.451 C 286.812 2360.451 294.601 2356.28 294.601 2356.28 C 302.071 2354.796 309.123 2350.88 316.231 2348.236 C 325.588 2344.756 333.941 2338.483 343.989 2338.974 C 347.016 2339.122 350.043 2339.27 354.583 2339.492 C 370.021 2340.246 375.852 2348.116 392.046 2348.907 C 399.114 2349.253 422.94 2354.157 430.028 2347.73 C 432.491 2345.496 434.976 2344.464 436.377 2341.972 C 437.873 2339.314 441.065 2339.18 441.213 2336.141 C 441.32 2333.953 440.868 2329.092 441.657 2327.061 C 441.657 2327.061 445.053 2319.642 446.641 2318.203 C 446.641 2318.203 450.037 2310.784 450.037 2310.784 C 452.427 2304.635 456.519 2302.014 461.297 2297.682 C 465.682 2293.705 479.705 2292.513 488.833 2292.96 C 498.328 2293.424 501.085 2302.66 512.602 2303.223 C 516.141 2303.396 518.495 2302.802 521.756 2302.154 C 524.889 2301.531 528.618 2301.716 532.572 2298.131 C 542.701 2288.946 554.44 2289.398 550.624 2270.191 C 549.897 2266.533 546.687 2257.627 547.045 2250.296 C 548.148 2227.737 552.356 2203.714 553.622 2177.803 C 553.818 2173.798 555.998 2172.488 557.093 2168.871 C 563.58 2147.431 571.144 2129.682 572.454 2102.876 C 572.814 2095.52 566.686 2073.772 555.699 2073.235 C 542.049 2072.567 535.658 2080.834 524.841 2083.862 C 523.586 2084.213 515.948 2086.461 514.099 2086.371 C 503.75 2085.865 505.817 2073.763 487.155 2078.986 C 472.926 2082.969 454.484 2095.659 453.526 2115.267 C 453.099 2123.991 447.363 2133.275 449.168 2142.359 C 450.701 2150.075 466.165 2135.987 466.48 2129.552 C 466.947 2120 488.413 2126.498 484.492 2133.467 C 483.568 2135.11 482.157 2141.369 479.434 2143.838 C 479.434 2143.838 477.699 2148.304 477.699 2148.304 C 471.427 2156.784 468.316 2164.202 458.43 2170.117 C 456.314 2171.382 449.457 2167.482 449.645 2163.62 C 449.83 2159.843 442.645 2160.243 440.713 2160.149 C 432.787 2159.762 429.524 2165.956 421.887 2172.882 C 419.347 2175.185 410.225 2169.892 408.415 2169.189 C 390.837 2162.36 397.053 2138.739 386.495 2121.092 C 379.556 2109.495 373.433 2112.869 355.084 2111.972 C 348.618 2111.656 341.053 2102.878 337.516 2098.978 C 333.274 2094.3 334.256 2083.649 342.795 2084.066 C 354.374 2084.632 359.75 2101.581 370.736 2102.118 C 376.62 2102.406 374.911 2101.76 383.064 2098.17 C 389.452 2095.357 388.846 2083.555 395.48 2077.539 C 397.078 2076.091 422.377 2059.828 422.377 2059.828 C 430.154 2049.313 436.199 2043.312 436.972 2027.502 C 437.656 2013.519 449.011 1987.033 436.615 1973.363 C 429.313 1965.311 423.239 1965.67 422.617 1940.697 C 422.025 1938.581 437.98 1910.171 420.41 1854.248 C 420.705 1848.22 430.72 1820.853 427.089 1818.167 C 419.446 1812.514 389.014 1821.245 389.773 1805.725 C 390.157 1797.864 395.843 1773.428 386.083 1757.696 C 377.775 1744.303 354.736 1742.08 350.611 1737.941 C 350.611 1737.941 342.091 1726.029 342.091 1726.029 C 340.658 1722.773 324.322 1720.61 319.613 1720.38 C 313.767 1720.094 302.49 1719.895 296.987 1717.757 C 296.987 1717.757 288.055 1714.286 288.055 1714.286 C 288.067 1714.043 300.364 1707.518 303.576 1704.605 C 313.99 1695.162 305.444 1683.159 300.719 1672.43 C 299.143 1668.85 295.007 1664.902 276.667 1661.113 C 257.903 1657.235 224.937 1653.557 224.278 1653.525 C 210.049 1652.829 186.033 1666.203 153.902 1694.286 C 140.322 1709.965 156.171 1719.624 149.453 1725.715 C 149.162 1725.98 143.149 1726.694 121.496 1742.761 C 118.345 1746.166 114.659 1750.817 110.824 1756.165 Z  M 84.617 1800.986 C 81.931 1803.137 80.885 1803.597 80.81 1803.686 C 79.508 1805.233 80.455 1806.333 81.639 1807.712 C 82.542 1805.552 83.53 1803.309 84.617 1800.986 Z  M 152.2 2718.522 C 151.187 2718.988 150.501 2719.04 150.282 2718.525 C 149.929 2717.693 150.604 2716.76 151.801 2715.388 C 151.389 2712.792 150.577 2709.752 148.742 2708.279 C 147.811 2707.532 146.938 2706.865 146.07 2706.204 C 143.986 2707.143 141.856 2707.827 139.7 2707.931 C 142.835 2711.947 140.579 2718.925 145.054 2722.517 C 148.664 2725.414 152.559 2721.802 152.22 2718.714 C 152.214 2718.656 152.207 2718.596 152.2 2718.522 L 152.2 2718.522 L 152.2 2718.522 Z  M 125.527 2706.202 C 122.9 2705.429 119.704 2704.252 115.598 2702.41 C 110.555 2702.353 108.853 2704.142 106.991 2705.55 C 106.733 2705.829 106.388 2706.1 105.965 2706.363 C 111.076 2707.018 119.022 2708.014 119.825 2708 C 121.931 2707.962 123.794 2707.089 125.527 2706.202 L 125.527 2706.202 L 125.527 2706.202 Z  M 88.7 2710.27 C 86.767 2710.363 85.114 2710.292 83.967 2710.045 C 83.257 2710.19 52.631 2725.797 51.582 2726.011 C 50.393 2726.253 46.003 2729.542 44.47 2729.854 C 40.781 2730.606 42.52 2733.206 52.757 2728.301 C 56.831 2726.349 71.553 2721.287 79.28 2717.911 C 81.673 2716.178 83.902 2714.597 85.351 2713.122 C 86.496 2711.956 87.603 2711.022 88.7 2710.27 L 88.7 2710.27 L 88.7 2710.27 Z  M 37.555 2779.267 C 29.817 2777.781 18.287 2775.994 14.022 2775.538 C 4.649 2774.536 -2.735 2771.9 -8.614 2767.211 C -22.487 2758.814 -30.34 2744.854 -38.712 2733.484 C -46.572 2722.81 -55.367 2714.478 -55.776 2713.439 C -60.421 2701.648 -61.361 2695.529 -60.322 2685.932 C -59.495 2678.304 -56.51 2674.733 -49.019 2671.881 C -45.728 2670.629 -31.454 2678.673 -30.326 2679.092 C -20.352 2682.797 -28.529 2671.336 -6.322 2683.612 C 4.767 2690.174 1.307 2677.391 9.506 2686.999 C 9.793 2686.941 17.233 2690.198 20.97 2690.323 C 25.224 2690.466 25.833 2687.468 26.087 2687.208 C 28.168 2685.078 22.471 2683.613 18.5 2674.931 C 15.742 2666.378 26.694 2661.199 18.92 2653.507 C 15.044 2645.265 25.553 2638.572 13.793 2637.758 C 1.694 2631.07 3.553 2625.485 -1.987 2631.003 C -5.028 2634.869 5.791 2640.997 0.111 2643.171 C -7.6 2646.123 -12.4 2646.021 -17.416 2642.021 C -18.489 2641.166 -27.032 2630.93 -26.443 2625.493 C -26.224 2623.465 -24.836 2619.605 -25.629 2617.98 C -25.934 2617.356 -27.712 2615.153 -28.134 2614.817 C -32.846 2611.059 -43.669 2615.939 -49.386 2616.526 C -53.825 2616.981 -62.402 2618.972 -65.34 2616.63 C -68.263 2614.298 -72.895 2606.129 -76.2 2595.142 C -78.564 2587.284 -80.245 2577.019 -80.162 2570.853 C -77.27 2557.119 -75.095 2554.258 -75.074 2554.061 C -74.581 2549.519 -84.54 2554.122 -84.778 2544.083 C -82.038 2522.624 -77.202 2508.522 -71.18 2502.36 C -70.902 2502.075 -56.195 2488.324 -47.171 2480.95 C -38.351 2473.744 -35.229 2472.906 -33.28 2473.115 C -27.437 2473.739 -19.579 2472.985 -20.342 2480.027 C -20.577 2482.199 -23.171 2489.338 -23.087 2489.405 C -23.087 2489.405 -18.197 2486.309 -18.197 2486.309 C -15.184 2484.401 -10.541 2479.428 -8.067 2476.896 C -6.074 2474.857 1.338 2468.129 3.111 2468.319 C 3.111 2468.319 10.925 2467.554 10.925 2467.554 C 14.113 2466.769 24.263 2457.071 32.534 2456.777 C 42.249 2456.431 48.892 2465.181 51.614 2467.352 C 56.989 2471.638 66.125 2455.859 71.292 2453.893 C 73.747 2452.958 79.708 2464.382 81.796 2466.047 C 109.392 2472.447 113.327 2486.783 114.342 2487.058 C 123.738 2493.134 126.067 2490.336 131.975 2489.132 C 142.004 2487.087 147.099 2498.884 151.941 2502.746 C 157.417 2507.113 157.164 2511.333 157.862 2517.473 C 157.862 2517.473 153.563 2532.881 153.446 2533.961 C 152.96 2538.447 157.527 2541.18 155.968 2544.741 C 153.978 2549.287 154.907 2548.69 152.417 2551.238 C 147.768 2555.996 139.384 2554.079 134.485 2559.093 C 130.871 2562.792 134.372 2565.939 137.804 2565.239 C 140.666 2564.656 146.946 2563.518 149.682 2560.718 C 157.447 2552.772 158.693 2549.185 165.751 2549.045 C 176.49 2548.831 182.62 2557.609 192.244 2551.515 C 193.235 2550.888 198.87 2548.17 199.056 2546.453 C 199.615 2541.288 198.67 2538.259 202.024 2534.826 C 202.841 2533.99 205.606 2530.687 206.914 2531.73 C 208.252 2532.797 212.459 2530.734 212.853 2529.469 C 214.694 2523.56 213.239 2520.287 212.676 2515.335 C 212.676 2515.335 211.744 2513.426 211.744 2513.426 C 211.944 2511.585 210.223 2509.364 209.997 2508.534 C 209.034 2505.014 197.956 2512.925 201.264 2515.563 C 203.492 2517.34 202.383 2527.814 198.936 2526.534 C 194.879 2525.027 193.805 2520.109 190.783 2517.7 C 183.993 2512.284 186.82 2500.84 191.129 2493.487 C 196.78 2483.844 200.373 2487.845 204.752 2483.362 C 205.534 2482.562 207.807 2478.587 208.187 2477.939 C 211.462 2472.349 211.025 2467.399 216.802 2461.487 C 221.451 2456.729 231.897 2459.532 234.444 2461.564 C 243.728 2468.967 247.161 2476.852 252.382 2485.197 C 253.263 2486.605 252.859 2487.91 254.246 2489.016 C 263.219 2496.172 270.309 2504.158 278.122 2510.389 C 280.661 2512.414 285.223 2513.249 286.856 2513.856 C 295.435 2517.042 290.512 2522.157 289.77 2529.007 C 289.48 2531.68 287.901 2533.294 286.86 2534.848 C 285.775 2536.466 285.039 2537.666 283.541 2539.199 C 278.668 2544.186 274.169 2543.065 270.151 2547.177 C 266.288 2551.13 261.041 2557.681 260.72 2560.646 C 260.37 2563.877 259.671 2566.366 260.954 2568.995 C 260.954 2568.995 262.294 2572.396 262.294 2572.396 C 262.178 2573.469 263.517 2576.87 263.517 2576.87 C 263.941 2577.738 265.904 2578.773 266.662 2579.378 C 267.714 2580.217 266.47 2581.673 266.837 2583.016 C 267.181 2584.274 266.553 2585.643 266.372 2587.309 C 265.853 2592.102 254.401 2601.469 251.411 2604.53 C 244.558 2611.543 239.313 2612.139 232.78 2618.825 C 230.859 2620.791 229.578 2622.102 228.298 2623.412 C 227.265 2624.469 226.419 2625.583 225.709 2626.742 C 226.453 2627.339 226.949 2627.738 227.446 2628.136 C 231.693 2631.545 237.397 2631.915 242.633 2633.638 C 246.61 2634.946 250.977 2635.767 254.736 2637.62 C 254.736 2637.62 259.508 2638.584 259.508 2638.584 C 263.329 2641.65 271.159 2642.488 274.056 2643.572 C 279.291 2645.531 286.311 2647.542 291.161 2650.614 C 291.161 2650.614 294.999 2653.694 294.999 2653.694 C 306.61 2663.013 303.117 2662.914 308.93 2671.563 C 310.624 2674.083 325.517 2687.358 322.145 2688.857 C 320.136 2689.75 318.205 2686.521 312.549 2684.022 C 309.344 2683.535 304.399 2681.405 303.068 2682.145 C 303.055 2688.088 310.8 2694.163 308.93 2701.544 C 307.68 2706.481 308.321 2709.83 300.102 2722.834 C 299.408 2727.502 301.159 2728.86 302.474 2730.413 C 305.667 2732.809 306.357 2746.339 304.528 2751.151 C 304.598 2751.791 317.905 2778.226 318.009 2779.169 C 318.126 2780.239 321.188 2783.903 321.34 2785.282 C 321.704 2788.601 324.776 2786.683 320.671 2777.809 C 318.823 2773.813 314.307 2757.696 311.544 2752.16 C 309.59 2743.307 311.162 2738.959 311.708 2736.851 C 312.118 2735.269 311.018 2730.565 311.018 2730.565 C 310.163 2722.772 309.23 2718.077 311.163 2710.616 C 313.464 2701.73 321.281 2699.937 328.643 2699.805 C 336.522 2699.664 346.305 2705.383 351.275 2709.372 C 353.834 2711.426 373.907 2727.537 375.186 2728.564 C 378.849 2729.958 386.867 2741.085 387.056 2753.378 C 387.275 2767.696 379.751 2778.775 377.033 2779.728 C 374.708 2784.992 369.088 2802.614 367.704 2807.956 C 365.43 2816.738 361.61 2823.876 355.724 2829.87 C 344.764 2843.693 328.447 2852.619 314.911 2861.715 C 302.203 2870.254 291.95 2879.377 290.758 2879.88 C 277.225 2885.582 270.387 2887.183 259.977 2887.369 C 251.702 2887.518 248.153 2885.186 245.959 2878.604 C 244.995 2875.713 255.618 2861.561 256.22 2860.468 C 261.537 2850.808 247.925 2859.735 264.19 2837.746 C 272.785 2826.715 258.312 2831.441 269.891 2822.715 C 269.863 2822.457 274.373 2815.192 274.978 2811.724 C 275.667 2807.776 272.451 2807.572 272.197 2807.368 C 270.119 2805.7 267.796 2811.139 257.763 2815.847 C 248.023 2819.418 243.706 2809.917 234.283 2818.021 C 224.746 2822.588 218.711 2813.676 216.344 2824.641 C 207.483 2836.621 201.582 2835.571 206.949 2840.031 C 210.814 2842.379 218.9 2831.648 220.577 2836.637 C 222.853 2843.409 222.141 2847.857 217.119 2852.97 C 216.045 2854.064 203.733 2863.183 197.835 2863.289 C 195.635 2863.328 191.569 2862.508 189.685 2863.435 C 188.961 2863.791 186.319 2865.698 185.897 2866.127 C 181.179 2870.931 185.184 2880.349 185.113 2885.562 C 185.057 2889.609 186.17 2897.298 183.229 2900.292 C 180.303 2903.273 170.75 2908.529 158.268 2912.897 C 149.342 2916.021 137.857 2918.802 131.094 2919.463 C 116.371 2918.432 113.502 2916.764 113.288 2916.768 C 108.36 2916.856 112.17 2925.509 101.114 2926.928 C 77.887 2926.962 63.004 2924.179 56.989 2919.351 C 56.711 2919.128 43.449 2907.182 36.481 2899.724 C 29.67 2892.435 29.14 2889.651 29.613 2887.824 C 31.031 2882.351 31.187 2875.179 38.826 2875.042 C 41.182 2875 48.698 2876.544 48.782 2876.458 C 48.782 2876.458 45.994 2872.309 45.994 2872.309 C 44.276 2869.753 39.394 2866.057 36.923 2864.074 C 34.933 2862.476 28.472 2856.431 28.902 2854.77 C 28.902 2854.77 29.04 2847.64 29.04 2847.64 C 28.578 2844.789 19.197 2836.568 19.909 2828.961 C 20.746 2820.024 31.188 2812.84 33.913 2810.065 C 39.294 2804.585 23.108 2798.029 21.594 2793.49 C 20.876 2791.333 34.17 2784.458 36.26 2782.33 C 36.682 2781.272 37.113 2780.249 37.555 2779.267 L 37.555 2779.267 L 37.555 2779.267 Z " fill-rule="evenodd" fill="rgb(0,0,0)" fill-opacity="0.08"/><path d=" M 1341.403 1709.068 C 1338.943 1715.055 1337.772 1719.8 1337.923 1722.174 C 1338.16 1725.876 1345.409 1729.654 1348.734 1732.067 C 1353.015 1735.175 1363.921 1738.058 1364.3 1743.996 C 1364.334 1744.527 1363.894 1747.393 1363.636 1748.08 C 1362.963 1749.87 1359.162 1752.075 1357.508 1753.552 C 1353.074 1757.512 1351.219 1771.003 1351.305 1772.355 C 1351.709 1778.676 1354.863 1781.758 1362.242 1784.23 C 1367.679 1786.051 1364.951 1774.407 1369.868 1773.231 C 1377.694 1772.303 1372.295 1775.586 1375.468 1788.476 C 1382.775 1796.478 1370.733 1795.234 1367.219 1804.219 C 1366.736 1815.204 1355.522 1812.479 1351.025 1821.012 C 1347.248 1830.407 1349.992 1835.136 1347.01 1835.53 C 1346.646 1835.578 1344.01 1837.583 1341.254 1834.81 C 1338.833 1832.374 1336.247 1825.128 1336.011 1824.995 C 1337.63 1812.22 1330.464 1824.559 1327.878 1812.402 C 1322.056 1788.742 1319.045 1802.98 1315.086 1793.794 C 1314.639 1792.755 1311.011 1777.425 1307.866 1776.364 C 1300.709 1773.95 1296.048 1774.926 1289.826 1780.482 C 1281.999 1787.472 1278.087 1792.931 1272.454 1805.222 C 1271.958 1806.305 1271.686 1818.438 1269.046 1831.849 C 1266.234 1846.136 1261.148 1862.161 1264.244 1877.52 C 1264.717 1884.929 1267.727 1891.644 1273.288 1898.303 C 1276.672 1902.354 1287.022 1916.415 1289.619 1921.042 C 1288.327 1923.398 1291.775 1934.876 1303.855 1943.137 L 1303.855 1943.137 C 1314.226 1950.23 1329.631 1951.464 1333.599 1949.862 C 1335.434 1949.619 1364.229 1945.813 1367.899 1945.328 C 1375.03 1944.385 1387.289 1941.277 1393.212 1935.987 C 1398.747 1931.045 1403.25 1924.826 1397.622 1918.087 C 1392.897 1912.43 1388.275 1910.29 1381.137 1906.28 C 1381.137 1906.28 1376.381 1904.245 1375.379 1903.045 C 1374.044 1901.446 1371.631 1897.854 1362.769 1893.947 C 1356.045 1892.523 1339.174 1886.045 1334.432 1884.92 C 1323.902 1882.423 1324.663 1879.267 1327.703 1880.975 C 1328.966 1881.684 1334.362 1881.812 1335.342 1882.362 C 1336.206 1882.848 1368.402 1889.574 1368.988 1889.903 C 1371.588 1893.938 1383.374 1901.425 1387.815 1900.722 C 1390.115 1900.765 1392.588 1900.405 1395.939 1903.604 C 1400.455 1916.671 1403.732 1918.214 1406.881 1921.939 C 1411.588 1927.508 1422.58 1925.957 1427.514 1929.455 C 1427.109 1930.769 1421.546 1932.786 1418.683 1934.618 C 1412.268 1936.889 1408.1 1936.269 1407.303 1938.121 C 1405.965 1941.23 1428.428 1939.181 1431.823 1939.542 C 1443.476 1940.778 1440.715 1943.028 1457.37 1940.827 C 1457.37 1940.827 1462.876 1940.099 1462.876 1940.099 C 1469.15 1938.697 1476.206 1935.238 1481.85 1932.928 C 1484.973 1931.651 1491.674 1926.967 1497.154 1926.243 C 1497.154 1926.243 1501.616 1923.655 1501.616 1923.655 C 1506.039 1922.258 1510.07 1919.854 1514.209 1917.994 C 1519.657 1915.545 1524.339 1911.993 1530.431 1911.187 C 1532.266 1910.945 1534.101 1910.702 1536.854 1910.338 C 1546.215 1909.101 1550.186 1911.906 1560.005 1910.608 C 1564.29 1910.041 1578.951 1909.745 1582.861 1906.255 C 1584.219 1905.041 1585.659 1904.344 1586.362 1903.128 C 1587.113 1901.829 1589.031 1901.448 1588.947 1900.122 C 1588.886 1899.167 1588.334 1897.115 1588.694 1896.159 C 1588.694 1896.159 1590.318 1892.614 1591.193 1891.832 C 1591.193 1891.832 1592.818 1888.287 1592.818 1888.287 C 1593.907 1885.392 1596.227 1883.847 1598.862 1881.494 C 1601.28 1879.335 1609.676 1877.401 1615.21 1876.669 C 1620.967 1875.908 1623.161 1879.614 1630.144 1878.691 C 1632.29 1878.407 1633.677 1877.912 1635.608 1877.303 C 1637.463 1876.717 1639.724 1876.419 1641.904 1874.472 C 1647.491 1869.483 1654.602 1868.49 1651.197 1860.589 C 1650.549 1859.084 1648.1 1855.567 1647.896 1852.367 C 1647.268 1842.522 1648.43 1831.73 1647.708 1820.422 C 1647.596 1818.675 1648.837 1817.889 1649.29 1816.217 C 1651.975 1806.309 1655.522 1797.886 1654.776 1786.187 C 1654.571 1782.976 1649.625 1774.213 1642.963 1775.093 C 1634.686 1776.188 1631.304 1780.402 1624.949 1782.803 C 1624.211 1783.082 1619.731 1784.825 1618.61 1784.973 C 1612.334 1785.803 1612.888 1780.371 1601.924 1784.515 C 1593.565 1787.674 1583.162 1795.016 1583.709 1803.574 C 1583.952 1807.381 1581.022 1811.968 1582.632 1815.704 C 1584 1818.878 1592.526 1811.234 1592.347 1808.426 C 1592.08 1804.257 1605.409 1804.887 1603.442 1808.291 C 1602.978 1809.094 1602.486 1811.937 1600.984 1813.278 C 1600.984 1813.278 1600.193 1815.381 1600.193 1815.381 C 1596.894 1819.675 1595.442 1823.191 1589.815 1826.744 C 1588.61 1827.504 1584.248 1826.515 1584.14 1824.83 C 1584.035 1823.181 1579.721 1824.082 1578.55 1824.236 C 1573.744 1824.872 1572.131 1827.875 1567.919 1831.636 C 1566.518 1832.887 1560.709 1831.527 1559.576 1831.407 C 1548.575 1830.24 1550.971 1819.419 1543.587 1812.874 C 1538.735 1808.572 1535.233 1810.648 1524.107 1812.119 C 1520.186 1812.637 1515.117 1809.615 1512.758 1808.291 C 1509.93 1806.702 1509.912 1802.007 1515.09 1801.322 C 1522.11 1800.394 1526.327 1807.163 1532.988 1806.282 C 1536.556 1805.811 1535.487 1805.705 1540.202 1803.331 C 1543.896 1801.47 1542.854 1796.439 1546.512 1793.172 C 1547.393 1792.385 1561.729 1782.807 1561.729 1782.807 C 1565.82 1777.482 1569.125 1774.281 1568.684 1767.381 C 1568.295 1761.279 1573.629 1748.701 1565.363 1744.058 C 1560.494 1741.323 1556.849 1742.093 1555.041 1731.381 C 1554.562 1730.528 1562.563 1716.654 1548.751 1694.303 C 1548.583 1691.673 1553.058 1678.85 1550.712 1678.059 C 1545.775 1676.394 1527.909 1683.242 1527.477 1676.469 C 1527.258 1673.038 1529.288 1661.919 1522.495 1656.119 C 1516.713 1651.182 1502.681 1652.555 1499.954 1651.186 C 1499.954 1651.186 1494.129 1646.91 1494.129 1646.91 C 1493.076 1645.65 1483.093 1646.37 1480.238 1646.748 C 1476.693 1647.216 1469.876 1648.272 1466.432 1647.907 C 1466.432 1647.907 1460.842 1647.314 1460.842 1647.314 C 1460.835 1647.208 1467.883 1643.147 1469.654 1641.565 C 1475.398 1636.436 1469.551 1632.122 1466.085 1627.972 C 1464.928 1626.587 1462.205 1625.302 1450.919 1625.523 C 1439.372 1625.75 1419.265 1627.501 1418.865 1627.553 C 1411.515 1628.525 1400.463 1634.622 1386.33 1645.955 C 1388.626 1641.035 1390.083 1637.003 1390.625 1634.197 C 1392.237 1625.859 1383.016 1613.101 1379.151 1605.745 C 1374.173 1596.27 1358.803 1583.279 1361.388 1569.903 C 1361.62 1568.707 1363.834 1562.629 1364.602 1561.265 C 1366.602 1557.711 1373.673 1555.133 1377.028 1552.865 C 1386.02 1546.787 1396.105 1518.046 1396.694 1515.001 C 1399.447 1500.764 1396.203 1492.029 1386.082 1482.085 C 1378.626 1474.759 1376.632 1502.188 1368.38 1501.811 C 1355.749 1499.123 1365.875 1495.127 1367.844 1464.67 C 1360.792 1442.528 1378.798 1452.578 1389.048 1434.819 C 1395.667 1410.794 1411.6 1423.623 1423.134 1407.458 C 1434.01 1388.95 1432.283 1376.819 1437.117 1377.754 C 1437.707 1377.868 1442.866 1375.026 1445.657 1382.835 C 1448.109 1389.696 1448.246 1407.303 1448.542 1407.741 C 1439.203 1435.04 1456.909 1412.067 1454.421 1440.548 C 1450.804 1496.451 1463.082 1466.759 1464.311 1489.493 C 1464.45 1492.064 1461.882 1528.199 1466.19 1532.452 C 1475.998 1542.135 1483.748 1542.798 1496.364 1534.27 C 1512.235 1523.541 1521.219 1513.827 1536.521 1490.031 C 1537.869 1487.935 1544.775 1461.242 1556.036 1433.152 C 1568.032 1403.231 1584.482 1370.839 1587.89 1334.962 C 1591.116 1318.275 1590.038 1301.584 1584.974 1283.473 C 1581.893 1272.455 1573.358 1235.055 1571.804 1223.238 C 1575.067 1218.805 1575.855 1191.308 1561.54 1165.698 C 1549.25 1143.712 1526.023 1131.644 1519.014 1132.785 C 1516.039 1132.21 1469.357 1123.185 1463.407 1122.035 C 1451.847 1119.8 1431.178 1119.25 1419.166 1127.37 C 1407.942 1134.957 1397.637 1145.994 1402.763 1164.323 C 1407.066 1179.71 1413.087 1187.249 1422.012 1200.451 C 1422.012 1200.451 1428.3 1207.84 1429.212 1211.103 C 1430.428 1215.45 1432.249 1224.864 1443.903 1238.885 C 1453.567 1246.113 1476.264 1270.679 1483.016 1276.041 C 1498.008 1287.951 1495.142 1294.478 1491.341 1288.855 C 1489.761 1286.517 1481.462 1282.964 1480.237 1281.152 C 1479.157 1279.554 1432.831 1245.151 1432.098 1244.068 C 1430.223 1233.561 1415.95 1209.843 1408.687 1208.709 C 1405.145 1207.219 1401.118 1206.518 1397.632 1197.405 C 1397.612 1165.741 1393.355 1160.339 1390.465 1150.186 C 1386.142 1135.004 1368.27 1131.776 1362.488 1121.042 C 1363.818 1118.379 1373.523 1117.285 1378.941 1114.964 C 1390.101 1113.825 1396.233 1117.723 1398.459 1114.106 C 1402.194 1108.036 1366.269 1098.956 1361.199 1096.102 C 1343.79 1086.302 1349.274 1082.994 1322.273 1077.774 C 1322.273 1077.774 1313.347 1076.048 1313.347 1076.048 C 1302.869 1075.349 1290.081 1078.73 1280.094 1080.422 C 1274.57 1081.358 1261.676 1087.664 1252.792 1085.946 C 1252.792 1085.946 1244.491 1088.971 1244.491 1088.971 C 1236.886 1089.382 1229.351 1092.26 1221.939 1093.87 C 1212.184 1095.989 1203.026 1101.016 1193.149 1099.107 C 1190.174 1098.531 1187.198 1097.956 1182.736 1097.093 C 1167.56 1094.159 1162.902 1085.543 1146.984 1082.465 C 1140.036 1081.122 1117.145 1072.892 1109.218 1078.251 C 1106.463 1080.113 1103.858 1080.783 1102.117 1083.051 C 1100.26 1085.471 1097.082 1085.151 1096.504 1088.138 C 1096.088 1090.289 1095.848 1095.165 1094.779 1097.064 C 1094.779 1097.064 1090.365 1103.927 1088.59 1105.127 C 1088.59 1105.127 1084.177 1111.989 1084.177 1111.989 C 1080.941 1117.738 1076.519 1119.753 1071.175 1123.365 C 1066.271 1126.68 1052.22 1125.873 1043.248 1124.138 C 1033.914 1122.334 1032.494 1112.8 1021.172 1110.611 C 1017.693 1109.939 1015.279 1110.194 1011.959 1110.373 C 1008.769 1110.546 1005.104 1109.834 1000.683 1112.823 C 989.354 1120.481 977.798 1118.37 978.855 1137.924 C 979.056 1141.648 980.972 1150.919 979.579 1158.125 C 975.291 1180.3 967.723 1203.485 962.799 1228.955 C 962.037 1232.892 959.694 1233.88 958.098 1237.306 C 948.639 1257.611 938.637 1274.109 933.543 1300.46 C 932.145 1307.69 935.13 1330.087 945.929 1332.175 C 959.348 1334.769 966.845 1327.491 977.982 1326.026 C 979.274 1325.856 987.154 1324.713 988.971 1325.064 C 999.144 1327.031 995.383 1338.719 1014.597 1336.192 C 1029.247 1334.265 1049.301 1324.315 1053.027 1305.041 C 1054.685 1296.465 1061.679 1288.087 1061.179 1278.839 C 1060.754 1270.984 1043.45 1282.739 1042.227 1289.064 C 1040.412 1298.454 1020.082 1288.981 1024.951 1282.638 C 1026.099 1281.142 1028.382 1275.146 1031.427 1273.087 C 1031.427 1273.087 1033.777 1268.912 1033.777 1268.912 C 1041.187 1261.406 1045.318 1254.504 1055.943 1250.049 C 1058.216 1249.096 1064.452 1253.929 1063.718 1257.725 C 1063 1261.438 1070.17 1262.059 1072.068 1262.426 C 1079.86 1263.932 1083.967 1258.262 1092.508 1252.489 C 1095.348 1250.569 1103.629 1257.1 1105.321 1258.052 C 1121.754 1267.303 1112.256 1289.806 1120.207 1308.77 C 1125.433 1321.232 1131.972 1318.76 1150.009 1322.247 C 1156.365 1323.476 1162.611 1333.238 1165.559 1337.599 C 1169.096 1342.831 1166.615 1353.236 1158.221 1351.613 C 1146.839 1349.412 1143.919 1331.872 1133.12 1329.785 C 1127.335 1328.666 1128.936 1329.547 1120.356 1331.947 C 1113.635 1333.826 1112.562 1345.595 1105.143 1350.61 C 1103.356 1351.818 1076.008 1364.333 1076.008 1364.333 C 1066.82 1373.64 1059.985 1378.724 1056.981 1394.266 C 1054.323 1408.011 1039.33 1432.62 1049.665 1447.909 C 1055.753 1456.915 1061.816 1457.419 1058.895 1482.228 C 1059.181 1484.407 1039.362 1510.27 1048.833 1568.119 C 1047.687 1574.044 1033.897 1599.717 1037.111 1602.889 C 1043.875 1609.568 1075.237 1605.236 1072.287 1620.493 C 1070.794 1628.219 1061.704 1651.603 1069.137 1668.56 C 1075.464 1682.994 1097.955 1688.458 1101.452 1693.141 C 1101.452 1693.141 1108.198 1706.139 1108.198 1706.139 C 1109.157 1709.565 1125.021 1714.021 1129.65 1714.916 C 1135.396 1716.027 1146.532 1717.821 1151.676 1720.717 C 1151.676 1720.717 1160.027 1725.418 1160.027 1725.418 C 1159.981 1725.657 1146.883 1730.375 1143.29 1732.803 C 1131.644 1740.676 1138.404 1753.768 1141.561 1765.058 C 1142.614 1768.825 1146.149 1773.319 1163.767 1779.669 C 1181.793 1786.165 1213.905 1794.476 1214.553 1794.601 C 1228.54 1797.306 1254.208 1787.468 1289.994 1764.221 C 1305.657 1750.623 1291.337 1738.817 1298.85 1733.738 C 1299.176 1733.518 1305.229 1733.663 1328.939 1720.825 C 1332.541 1717.9 1336.849 1713.819 1341.403 1709.068 Z  M 1373.695 1668.411 C 1376.659 1666.662 1377.759 1666.356 1377.846 1666.278 C 1379.354 1664.931 1378.572 1663.708 1377.595 1662.175 C 1376.396 1664.185 1375.1 1666.266 1373.695 1668.411 Z  M 1436.771 750.554 C 1437.839 750.237 1438.526 750.282 1438.669 750.823 C 1438.901 751.697 1438.101 752.525 1436.721 753.713 C 1436.762 756.342 1437.135 759.466 1438.743 761.184 C 1439.558 762.055 1440.328 762.84 1441.094 763.617 C 1443.29 762.983 1445.495 762.607 1447.644 762.809 C 1445.11 758.39 1448.331 751.802 1444.41 747.612 C 1441.247 744.233 1436.88 747.257 1436.778 750.361 C 1436.776 750.42 1436.774 750.48 1436.771 750.554 L 1436.771 750.554 L 1436.771 750.554 Z  M 1461.429 766.529 C 1463.92 767.667 1466.917 769.284 1470.721 771.689 C 1475.705 772.46 1477.643 770.93 1479.686 769.8 C 1479.981 769.561 1480.361 769.341 1480.817 769.141 C 1475.851 767.768 1468.126 765.657 1467.329 765.557 C 1465.239 765.296 1463.27 765.896 1461.429 766.529 L 1461.429 766.529 L 1461.429 766.529 Z  M 1498.461 767.718 C 1500.388 767.901 1502.014 768.205 1503.114 768.612 C 1503.838 768.569 1536.366 757.458 1537.435 757.394 C 1538.646 757.323 1543.458 754.69 1545.02 754.597 C 1548.778 754.375 1547.424 751.556 1536.596 754.961 C 1532.286 756.316 1516.995 759.242 1508.869 761.489 C 1506.254 762.866 1503.823 764.115 1502.18 765.37 C 1500.882 766.362 1499.653 767.13 1498.461 767.718 L 1498.461 767.718 L 1498.461 767.718 Z  M 1558.865 706.663 C 1566.314 709.23 1577.474 712.632 1581.632 713.688 C 1590.769 716.007 1597.705 719.663 1602.861 725.137 C 1615.404 735.414 1621.2 750.347 1627.877 762.788 C 1634.145 774.468 1641.671 783.962 1641.929 785.048 C 1644.857 797.378 1644.921 803.568 1642.532 812.921 C 1640.634 820.355 1637.172 823.468 1629.353 825.229 C 1625.918 826.003 1612.927 816.018 1611.87 815.443 C 1602.521 810.363 1608.993 822.867 1588.748 807.568 C 1578.701 799.502 1580.316 812.646 1573.56 801.973 C 1573.268 801.991 1566.364 797.712 1562.682 797.059 C 1558.492 796.315 1557.465 799.196 1557.176 799.418 C 1554.814 801.231 1560.246 803.489 1562.947 812.645 C 1564.466 821.503 1552.891 825.079 1559.497 833.795 C 1562.166 842.502 1550.815 847.639 1562.341 850.111 C 1573.371 858.446 1570.739 863.711 1577.005 859.033 C 1580.563 855.637 1570.721 848.038 1576.652 846.69 C 1584.703 844.861 1589.44 845.641 1593.839 850.311 C 1594.78 851.31 1601.787 862.653 1600.434 867.952 C 1599.929 869.928 1598.009 873.553 1598.564 875.274 C 1598.777 875.935 1600.225 878.367 1600.595 878.76 C 1604.727 883.148 1616.133 879.85 1621.875 880.079 C 1626.333 880.257 1635.106 879.501 1637.683 882.236 C 1640.246 884.958 1643.674 893.701 1645.39 905.045 C 1646.617 913.159 1646.826 923.558 1645.871 929.651 C 1641.062 942.837 1638.504 945.36 1638.455 945.552 C 1637.324 949.979 1647.835 946.833 1646.648 956.804 C 1640.895 977.659 1634.111 990.933 1627.277 996.181 C 1626.961 996.423 1610.454 1007.952 1600.477 1013.973 C 1590.725 1019.857 1587.516 1020.245 1585.615 1019.762 C 1579.92 1018.316 1572.035 1017.949 1573.787 1011.086 C 1574.328 1008.969 1577.907 1002.27 1577.834 1002.192 C 1577.834 1002.192 1572.554 1004.564 1572.554 1004.564 C 1569.301 1006.026 1564 1010.292 1561.193 1012.447 C 1558.931 1014.183 1550.641 1019.793 1548.912 1019.354 C 1548.912 1019.354 1541.069 1019.005 1541.069 1019.005 C 1537.802 1019.33 1526.38 1027.493 1518.151 1026.612 C 1508.485 1025.578 1503.149 1015.975 1500.762 1013.441 C 1496.048 1008.436 1484.769 1022.762 1479.375 1023.976 C 1476.813 1024.554 1472.53 1012.4 1470.699 1010.457 C 1444.288 1000.212 1442.423 985.463 1441.458 985.047 C 1433.018 977.702 1430.315 980.141 1424.297 980.496 C 1414.079 981.1 1410.707 968.7 1406.46 964.191 C 1401.658 959.093 1402.506 954.951 1402.685 948.774 C 1402.685 948.774 1409.123 934.13 1409.392 933.077 C 1410.509 928.706 1406.375 925.353 1408.423 922.049 C 1411.037 917.831 1410.032 918.29 1412.858 916.12 C 1418.134 912.069 1426.162 915.155 1431.723 910.885 C 1435.824 907.736 1432.803 904.124 1429.307 904.331 C 1426.392 904.503 1420.014 904.739 1416.909 907.124 C 1408.097 913.89 1406.355 917.264 1399.349 916.403 C 1388.687 915.094 1383.863 905.536 1373.472 910.205 C 1372.402 910.685 1366.44 912.577 1366.012 914.251 C 1364.727 919.284 1365.234 922.417 1361.427 925.34 C 1360.5 926.052 1357.294 928.93 1356.147 927.712 C 1354.974 926.467 1350.517 927.913 1349.948 929.109 C 1347.289 934.697 1348.265 938.144 1348.121 943.125 C 1348.121 943.125 1348.773 945.147 1348.773 945.147 C 1348.315 946.942 1349.703 949.384 1349.81 950.237 C 1350.264 953.858 1362.352 947.597 1359.451 944.517 C 1357.496 942.442 1360.078 932.231 1363.309 933.986 C 1367.112 936.053 1367.478 941.073 1370.128 943.886 C 1376.083 950.209 1371.663 961.137 1366.356 967.805 C 1359.396 976.551 1356.406 972.082 1351.436 975.898 C 1350.548 976.58 1347.736 980.193 1347.268 980.781 C 1343.233 985.85 1342.965 990.812 1336.409 995.846 C 1331.133 999.897 1321.189 995.643 1318.955 993.271 C 1310.814 984.627 1308.533 976.335 1304.546 967.335 C 1303.874 965.816 1304.459 964.582 1303.242 963.291 C 1295.373 954.936 1289.486 946.025 1282.635 938.751 C 1280.408 936.387 1276.011 934.913 1274.479 934.081 C 1266.438 929.712 1272.036 925.346 1273.741 918.671 C 1274.407 916.065 1276.198 914.691 1277.45 913.3 C 1278.752 911.852 1279.651 910.769 1281.351 909.464 C 1286.882 905.217 1291.177 906.964 1295.737 903.463 C 1300.12 900.097 1306.242 894.356 1306.98 891.466 C 1307.784 888.317 1308.829 885.951 1307.931 883.167 C 1307.931 883.167 1307.087 879.611 1307.087 879.611 C 1307.354 878.565 1306.509 875.009 1306.509 875.009 C 1306.213 874.089 1304.416 872.787 1303.752 872.081 C 1302.829 871.101 1304.267 869.836 1304.094 868.455 C 1303.931 867.161 1304.748 865.894 1305.162 864.271 C 1306.355 859.6 1319.018 851.95 1322.412 849.343 C 1330.19 843.371 1335.466 843.525 1342.88 837.832 C 1345.06 836.157 1346.514 835.041 1347.967 833.925 C 1349.139 833.025 1350.135 832.042 1351.002 830.996 C 1350.349 830.299 1349.914 829.834 1349.48 829.37 C 1345.758 825.394 1340.164 824.219 1335.225 821.772 C 1331.473 819.913 1327.267 818.482 1323.808 816.116 C 1323.808 816.116 1319.22 814.485 1319.22 814.485 C 1315.873 810.909 1308.24 808.97 1305.526 807.487 C 1300.621 804.806 1293.957 801.821 1289.591 798.093 C 1289.591 798.093 1286.228 794.5 1286.228 794.5 C 1276.054 783.63 1279.498 784.223 1274.969 774.837 C 1273.649 772.103 1260.787 756.853 1264.337 755.846 C 1266.452 755.247 1267.907 758.717 1273.151 761.992 C 1276.255 762.928 1280.848 765.737 1282.271 765.193 C 1283.125 759.311 1276.319 752.201 1279.216 745.159 C 1281.153 740.449 1280.993 737.043 1290.971 725.334 C 1292.32 720.812 1290.778 719.219 1289.697 717.496 C 1286.875 714.672 1288.108 701.18 1290.601 696.676 C 1290.622 696.033 1281.194 667.979 1281.225 667.031 C 1281.26 665.955 1278.748 661.895 1278.794 660.508 C 1278.903 657.171 1275.59 658.634 1278.397 668 C 1279.661 672.217 1281.848 688.812 1283.799 694.683 C 1284.479 703.723 1282.306 707.805 1281.467 709.815 C 1280.838 711.323 1281.26 716.135 1281.26 716.135 C 1281.002 723.97 1281.261 728.75 1278.291 735.862 C 1274.754 744.333 1266.762 745 1259.456 744.088 C 1251.636 743.111 1242.762 736.065 1238.406 731.411 C 1236.165 729.016 1218.576 710.224 1217.456 709.026 C 1214.027 707.127 1207.666 694.976 1209.221 682.781 C 1211.032 668.576 1220.049 658.674 1222.876 658.116 C 1225.922 653.234 1233.982 636.586 1236.109 631.494 C 1239.604 623.123 1244.397 616.598 1251.072 611.499 C 1263.88 599.367 1281.297 592.843 1295.985 585.756 C 1309.775 579.103 1321.216 571.524 1322.468 571.196 C 1336.671 567.468 1343.668 566.852 1353.999 568.142 C 1362.212 569.168 1365.395 571.979 1366.634 578.805 C 1367.179 581.804 1354.658 594.308 1353.908 595.304 C 1347.275 604.114 1362.015 597.205 1342.799 616.668 C 1332.728 626.371 1347.724 623.743 1335.026 630.74 C 1335.017 631 1329.524 637.552 1328.433 640.9 C 1327.192 644.71 1330.347 645.368 1330.569 645.606 C 1332.391 647.552 1335.461 642.497 1346.059 639.257 C 1356.206 637.102 1359.135 647.119 1369.61 640.431 C 1379.698 637.262 1384.41 646.938 1388.306 636.419 C 1398.775 625.815 1404.468 627.691 1399.786 622.515 C 1396.293 619.644 1386.769 629.121 1385.815 623.944 C 1384.522 616.918 1385.857 612.616 1391.552 608.266 C 1392.77 607.335 1406.25 600.052 1412.103 600.783 C 1414.287 601.056 1418.196 602.444 1420.192 601.793 C 1420.959 601.543 1423.845 600.03 1424.323 599.664 C 1429.674 595.577 1427.043 585.687 1427.852 580.537 C 1428.481 576.538 1428.468 568.77 1431.804 566.222 C 1435.123 563.686 1445.323 559.836 1458.298 557.28 C 1467.577 555.452 1479.341 554.327 1486.129 554.63 C 1500.557 557.736 1503.161 559.794 1503.373 559.82 C 1508.264 560.431 1505.719 551.326 1516.864 551.487 C 1539.861 554.744 1554.2 559.607 1559.47 565.238 C 1559.714 565.498 1571.15 579.203 1576.992 587.572 C 1582.701 595.752 1582.831 598.584 1582.104 600.325 C 1579.926 605.543 1578.755 612.62 1571.174 611.673 C 1568.835 611.381 1561.614 608.788 1561.518 608.861 C 1561.518 608.861 1563.691 613.363 1563.691 613.363 C 1565.03 616.137 1569.338 620.487 1571.503 622.801 C 1573.247 624.664 1578.786 631.564 1578.125 633.147 C 1578.125 633.147 1576.979 640.185 1576.979 640.185 C 1577.033 643.073 1585.155 652.54 1583.372 659.97 C 1581.278 668.697 1569.923 674.33 1566.832 676.691 C 1560.729 681.353 1575.824 690.136 1576.679 694.844 C 1577.085 697.081 1562.951 702.003 1560.581 703.814 C 1560.013 704.801 1559.441 705.753 1558.865 706.663 L 1558.865 706.663 L 1558.865 706.663 Z " fill-rule="evenodd" fill="rgb(0,0,0)" fill-opacity="0.08"/><path d=" M 1152.106 2482.417 C 1181.313 2479.628 1206.163 2491.424 1208.907 2496.196 C 1220.349 2499.533 1258.019 2506.784 1269.344 2508.401 C 1287.962 2511.06 1303.673 2516.796 1317.648 2526.47 C 1349.113 2544.039 1372.137 2572.141 1394.693 2595.172 C 1415.868 2616.793 1437.519 2633.864 1438.895 2635.942 C 1454.512 2659.533 1459.785 2671.667 1463.213 2690.516 C 1465.938 2705.498 1462.21 2712.325 1449.397 2717.402 C 1443.768 2719.633 1411.729 2702.729 1409.319 2701.821 C 1388.015 2693.789 1410.248 2716.986 1360.536 2691.159 C 1335.469 2677.412 1349.366 2702.871 1328.139 2683.328 C 1327.62 2683.423 1311.449 2676.456 1304.181 2675.938 C 1295.91 2675.347 1296.433 2681.214 1296.091 2681.708 C 1293.289 2685.757 1305.087 2689.061 1317.648 2706.471 C 1327.798 2723.538 1309.639 2732.954 1328.963 2748.689 C 1341.09 2765.224 1324.639 2777.657 1347.746 2780.12 C 1374.831 2794.189 1374.41 2805.067 1381.957 2794.588 C 1385.627 2787.187 1361.323 2774.314 1371.032 2770.44 C 1384.21 2765.181 1393.511 2765.731 1405.434 2773.984 C 1407.984 2775.75 1430.229 2796.556 1432.171 2807.234 C 1432.896 2811.218 1432.408 2818.729 1434.855 2821.992 C 1435.794 2823.244 1440.465 2827.718 1441.467 2828.412 C 1452.668 2836.165 1470.75 2827.33 1481.427 2826.589 C 1489.717 2826.014 1505.108 2822.712 1512.091 2827.546 C 1519.04 2832.356 1532.581 2848.802 1545.164 2870.71 C 1554.163 2886.377 1563.208 2906.743 1566.538 2918.897 C 1568.739 2945.769 1566.169 2951.252 1566.239 2951.639 C 1567.862 2960.561 1584.436 2952.208 1590.574 2972.022 C 1597.439 3014.14 1596.106 3041.596 1587.997 3053.31 C 1587.622 3053.852 1567.081 3079.897 1553.875 3093.78 C 1540.968 3107.349 1535.43 3108.774 1531.558 3108.221 C 1519.953 3106.564 1505.247 3107.478 1502.731 3093.647 C 1501.956 3089.381 1502.912 3075.492 1502.712 3075.354 C 1502.712 3075.354 1495.047 3081.104 1495.047 3081.104 C 1490.324 3084.646 1484.196 3094.116 1480.865 3098.928 C 1478.182 3102.804 1467.714 3115.531 1464.192 3115.028 C 1464.192 3115.028 1449.577 3115.968 1449.577 3115.968 C 1443.883 3117.283 1429.824 3135.669 1414.063 3135.647 C 1395.549 3135.621 1377.807 3117.883 1371.336 3113.403 C 1358.56 3104.559 1349.893 3135.009 1341.056 3138.511 C 1336.858 3140.175 1318.913 3117.213 1313.951 3113.778 C 1257.187 3099.148 1241.497 3070.591 1239.387 3069.975 C 1217.856 3057.309 1214.952 3062.656 1204.258 3064.601 C 1186.101 3067.903 1169.615 3044.268 1158.104 3036.3 C 1145.089 3027.291 1143.188 3018.987 1138.37 3006.829 C 1138.37 3006.829 1137.929 2976.757 1137.543 2974.635 C 1135.941 2965.824 1125.6 2960.102 1126.587 2953.193 C 1127.847 2944.374 1126.395 2945.484 1129.749 2940.64 C 1136.009 2931.596 1153.24 2935.987 1159.838 2926.456 C 1164.704 2919.426 1156.18 2912.965 1149.967 2914.095 C 1144.787 2915.037 1133.337 2916.822 1129.652 2922.145 C 1119.196 2937.25 1118.825 2944.231 1105.313 2943.995 C 1084.752 2943.635 1067.982 2925.878 1052.896 2937.194 C 1051.342 2938.359 1042.029 2943.308 1042.643 2946.681 C 1044.487 2956.824 1048.023 2962.867 1043.506 2969.392 C 1042.406 2970.982 1038.949 2977.294 1035.84 2975.142 C 1032.661 2972.941 1025.726 2976.702 1025.683 2979.167 C 1025.481 2990.686 1030.135 2997.247 1034.021 3007.052 C 1034.021 3007.052 1036.896 3010.885 1036.896 3010.885 C 1037.554 3014.501 1042.123 3019.006 1043.03 3020.659 C 1046.875 3027.67 1063.733 3012.878 1055.87 3007.434 C 1050.573 3003.767 1046.782 2983.194 1054.144 2985.969 C 1062.81 2989.236 1067.661 2999.012 1074.843 3003.984 C 1090.984 3015.157 1092.015 3037.519 1087.878 3051.705 C 1082.452 3070.309 1073.27 3062.159 1067.372 3070.679 C 1066.319 3072.201 1064.192 3079.874 1063.827 3081.125 C 1060.682 3091.909 1064.324 3101.702 1056.546 3112.939 C 1050.285 3121.984 1028.582 3115.696 1022.527 3111.504 C 1000.46 3096.228 989.387 3080.429 974.611 3063.593 C 972.118 3060.752 972.158 3058.209 968.861 3055.927 C 947.532 3041.162 929.359 3024.896 910.788 3012.041 C 904.753 3007.863 895.496 3005.883 892.006 3004.568 C 873.683 2997.66 880.269 2987.932 877.822 2974.479 C 876.867 2969.228 878.995 2966.16 880.122 2963.171 C 881.294 2960.06 882.034 2957.747 884.05 2954.834 C 890.613 2945.353 899.912 2947.892 905.323 2940.076 C 910.524 2932.562 916.922 2920.026 915.862 2914.202 C 914.708 2907.856 914.645 2902.997 910.687 2897.72 C 910.687 2897.72 906.183 2890.917 906.183 2890.917 C 905.799 2888.808 901.295 2882.005 901.295 2882.005 C 899.988 2880.261 895.621 2878.077 893.821 2876.831 C 891.319 2875.099 892.892 2872.319 891.425 2869.644 C 890.05 2867.137 890.486 2864.482 889.891 2861.211 C 888.179 2851.797 904.931 2834.16 908.959 2828.342 C 918.187 2815.011 927.95 2814.218 936.747 2801.509 C 939.334 2797.771 941.059 2795.28 942.784 2792.788 C 948.51 2784.517 947.597 2774.11 949.586 2764.327 C 951.097 2756.895 951.498 2748.839 954.185 2741.712 C 954.185 2741.712 954.759 2732.896 954.759 2732.896 C 959.91 2725.456 959.331 2711.114 960.699 2705.681 C 963.173 2695.859 965.229 2682.792 970.089 2673.483 C 970.089 2673.483 975.263 2666.008 975.263 2666.008 C 990.916 2643.396 991.735 2649.748 1007.716 2637.761 C 1012.371 2634.269 1035.151 2605.043 1039.202 2610.908 C 1041.616 2614.402 1035.579 2618.444 1032.127 2629.118 C 1032.069 2635.012 1029.162 2644.335 1031.064 2646.625 C 1043.217 2645.656 1053.369 2630.597 1069.007 2632.756 C 1079.464 2634.199 1086.123 2632.478 1115.113 2645.213 C 1124.858 2645.693 1127.122 2642.289 1129.912 2639.646 C 1133.876 2633.455 1161.333 2629.944 1171.706 2632.459 C 1172.992 2632.225 1223.139 2603.678 1225.038 2603.333 C 1227.189 2602.942 1233.784 2596.777 1236.56 2596.272 C 1243.237 2595.058 1238.418 2589.805 1221.478 2598.732 C 1213.851 2602.751 1182.224 2613.632 1171.716 2619.567 C 1154.189 2624.587 1144.839 2622.462 1140.37 2621.824 C 1137.016 2621.345 1127.721 2624.125 1127.721 2624.125 C 1112.042 2626.976 1102.717 2629.452 1086.899 2627.193 C 1068.058 2624.502 1062.107 2610.625 1059.683 2597.296 C 1057.088 2583.031 1065.916 2564.334 1072.617 2554.653 C 1076.067 2549.67 1103.128 2510.577 1104.853 2508.085 C 1106.632 2501.21 1127.032 2484.811 1152.106 2482.417 Z " fill="rgb(0,0,0)" fill-opacity="0.08"/></g></g></svg>