<?xml version="1.0" encoding="UTF-8" standalone="no"?>
<!-- Generator: Gravit.io -->
<svg xmlns="http://www.w3.org/2000/svg" xmlns:xlink="http://www.w3.org/1999/xlink" style="isolation:isolate" viewBox="0 0 1440 3072" width="1440pt" height="3072pt"><defs><clipPath id="_clipPath_V2m71jzJTG6fZ2SCRIvYSueeMjs7Mblx"><rect width="1440" height="3072"/></clipPath></defs><g clip-path="url(#_clipPath_V2m71jzJTG6fZ2SCRIvYSueeMjs7Mblx)"><g style="isolation:isolate"><path d=" M -229.333 94.711 C -206.906 75.794 -179.759 71.349 -174.788 73.711 C -163.48 69.942 -128.381 54.464 -118.148 49.347 C -101.327 40.937 -85.145 36.711 -68.148 36.711 C -32.276 33.247 2.649 43.249 34.303 49.347 C 64.02 55.072 91.538 56.785 93.852 57.711 C 120.12 68.218 131.362 75.194 144.909 88.741 C 155.677 99.509 156.497 107.244 148.852 118.711 C 145.493 123.749 109.529 128.086 107.03 128.711 C 84.943 134.233 116.426 140.651 60.852 147.711 C 32.417 150.675 58.334 163.698 29.758 159.711 C 29.384 160.084 12.123 163.561 5.852 167.271 C -1.285 171.493 2.485 176.019 2.485 176.62 C 2.485 181.544 14.067 177.546 34.303 184.711 C 52.364 192.966 42.792 211.045 67.636 212.984 C 87.019 219.676 80.569 239.263 100.97 228.135 C 131.247 224.287 137.092 233.471 137.333 220.559 C 136.138 212.385 108.828 215.634 114.606 206.923 C 122.448 195.099 130.409 190.256 144.909 190.256 C 148.011 190.256 178.144 194.703 185.818 202.378 C 188.681 205.241 192.555 211.694 196.424 212.984 C 197.909 213.479 204.297 214.499 205.515 214.499 C 219.138 214.499 228.976 196.942 237.333 190.256 C 243.823 185.065 254.598 173.59 263.091 173.59 C 271.542 173.59 292.037 179.405 314.852 190.256 C 331.168 198.016 350.196 209.613 359.852 217.711 C 376.957 238.553 377.964 244.524 378.242 244.802 C 384.655 251.214 393.528 234.913 409.852 247.711 C 439.469 278.433 454 301.767 454 316.014 C 454 316.673 451.935 349.78 448.979 368.711 C 446.089 387.214 442.347 391.537 438.848 393.287 C 428.364 398.529 416.792 407.651 406.852 397.711 C 403.786 394.644 396.667 382.681 396.424 382.681 C 396.424 382.681 393.394 391.771 393.394 391.771 C 391.527 397.372 391.879 408.646 391.879 414.499 C 391.879 419.213 390.515 435.635 387.333 437.226 C 387.333 437.226 375.852 446.317 375.852 446.317 C 371.919 450.639 370.823 473.759 357.852 482.711 C 342.615 493.227 317.93 488.741 310.061 488.741 C 294.522 488.741 304.727 518.711 299.455 526.62 C 296.95 530.377 269.126 521.711 263.091 521.711 C 208.092 541.99 178.937 527.44 176.852 528.135 C 151.939 529.976 152.595 536.025 144.909 543.711 C 131.86 556.76 104.852 546.711 90.852 546.711 C 75.023 546.711 68.734 540.966 57.852 533.711 C 57.852 533.711 40.374 509.236 38.848 507.711 C 32.516 501.379 20.758 502.559 17.636 496.317 C 13.652 488.349 13.091 490.087 13.091 484.196 C 13.091 473.197 29.758 467 29.758 455.408 C 29.758 446.858 19.072 446.397 14.606 450.862 C 10.883 454.585 2.485 462.57 2.485 469.044 C 2.485 487.415 6.153 493.366 -5.091 500.862 C -22.201 512.269 -46.097 507.214 -52.061 525.105 C -52.675 526.947 -57.515 536.317 -55.091 538.741 C -47.801 546.031 -41.455 548.987 -41.455 556.923 C -41.455 558.857 -40.703 566.014 -44.485 566.014 C -48.352 566.014 -51.913 573.054 -50.545 575.105 C -44.155 584.69 -36.594 587.436 -27.818 593.287 C -27.818 593.287 -23.273 594.802 -23.273 594.802 C -20.674 597.401 -14.353 598.504 -12.667 599.347 C -5.515 602.923 -0.073 581.165 -9.636 581.165 C -16.079 581.165 -30.905 566.407 -23.273 564.499 C -14.288 562.252 -4.735 567.529 4 567.529 C 23.631 567.529 37.206 585.329 41.879 599.347 C 48.007 617.732 35.818 616.258 35.818 626.62 C 35.818 628.471 38.436 635.99 38.848 637.226 C 42.401 647.883 50.97 653.862 50.97 667.529 C 50.97 678.529 29.547 685.711 22.182 685.711 C -4.657 685.711 -22.753 679.023 -44.485 673.59 C -48.151 672.673 -49.566 670.559 -53.576 670.559 C -79.517 670.559 -103.717 667.529 -126.303 667.529 C -133.643 667.529 -142.382 671.17 -146 672.074 C -164.997 676.824 -165.119 665.077 -174.788 655.408 C -178.562 651.634 -178.559 647.901 -179.333 644.802 C -180.14 641.576 -180.848 639.254 -180.848 635.711 C -180.848 624.18 -171.758 620.975 -171.758 611.468 C -171.758 602.33 -173.632 588.381 -177.818 584.196 C -182.379 579.635 -185.196 575.676 -191.455 573.59 C -191.455 573.59 -199.03 570.559 -199.03 570.559 C -200.545 569.044 -208.121 566.014 -208.121 566.014 C -210.189 565.325 -215.022 566.014 -217.212 566.014 C -220.254 566.014 -220.544 562.833 -223.273 561.468 C -225.829 560.19 -226.982 557.759 -229.333 555.408 C -236.099 548.642 -232.364 524.605 -232.364 517.529 C -232.364 501.315 -224.788 495.107 -224.788 479.65 C -224.788 475.105 -224.788 472.074 -224.788 469.044 C -224.788 458.984 -231.462 450.947 -235.394 441.771 C -238.382 434.8 -242.638 427.948 -244.485 420.559 C -244.485 420.559 -249.03 412.984 -249.03 412.984 C -249.03 403.935 -257.669 392.472 -259.636 387.226 C -263.193 377.742 -268.94 365.828 -270.242 355.408 C -270.242 355.408 -270.242 346.317 -270.242 346.317 C -270.242 318.816 -265.954 323.572 -259.636 304.62 C -257.796 299.099 -255.701 262.104 -249.032 264.62 C -245.059 266.119 -247.721 272.878 -244.485 283.62 C -241.178 288.499 -238.262 297.819 -235.394 298.62 C -225.953 290.906 -226.177 272.746 -212.091 265.62 C -202.671 260.855 -198.175 255.65 -167.091 249.62 C -158.805 244.468 -158.881 240.381 -158.091 236.62 C -158.356 229.274 -137.778 210.759 -127.818 206.923 C -126.894 205.998 -101.91 153.984 -100.545 152.62 C -98.999 151.073 -97.086 142.251 -95.091 140.256 C -90.291 135.457 -97.244 133.882 -106.091 150.862 C -110.075 158.509 -129.886 185.456 -135.148 196.317 C -146.701 210.421 -155.598 213.995 -159.636 216.014 C -162.667 217.529 -168.727 225.105 -168.727 225.105 C -179.996 236.374 -186.254 243.717 -200.545 250.862 C -217.568 259.374 -230.36 251.351 -239.939 241.771 C -250.192 231.519 -253.576 211.121 -253.576 199.347 C -253.576 193.287 -253.576 145.741 -253.576 142.711 C -256.027 136.045 -248.587 110.95 -229.333 94.711 Z " fill="rgb(0,0,0)" fill-opacity="0.2" vector-effect="non-scaling-stroke" stroke-width="1" stroke="rgb(0,0,0)" stroke-linejoin="miter" stroke-linecap="square" stroke-miterlimit="3"/><path d=" M 1433.312 -100.653 C 1452.228 -78.225 1456.674 -51.079 1454.312 -46.107 C 1458.081 -34.8 1473.559 0.3 1478.675 10.533 C 1487.086 27.354 1491.312 43.536 1491.312 60.533 C 1494.776 96.404 1484.774 131.329 1478.675 162.984 C 1472.95 192.7 1471.237 220.219 1470.312 222.533 C 1459.804 248.801 1452.828 260.043 1439.281 273.59 C 1428.514 284.357 1420.779 285.177 1409.312 277.533 C 1404.274 274.174 1399.936 238.209 1399.312 235.711 C 1393.79 213.623 1387.372 245.107 1380.312 189.533 C 1377.348 161.097 1364.324 187.014 1368.312 158.438 C 1367.938 158.065 1364.462 140.804 1360.752 134.533 C 1356.529 127.396 1352.004 131.165 1351.403 131.165 C 1346.479 131.165 1350.477 142.748 1343.312 162.984 C 1335.056 181.044 1316.978 171.473 1315.039 196.317 C 1308.346 215.699 1288.76 209.249 1299.888 229.65 C 1303.735 259.928 1294.552 265.773 1307.463 266.014 C 1315.637 264.818 1312.388 237.509 1321.1 243.287 C 1332.924 251.129 1337.766 259.089 1337.766 273.59 C 1337.766 276.692 1333.319 306.824 1325.645 314.499 C 1322.782 317.362 1316.329 321.236 1315.039 325.105 C 1314.544 326.59 1313.524 332.977 1313.524 334.196 C 1313.524 347.819 1331.08 357.656 1337.766 366.014 C 1342.958 372.503 1354.433 383.279 1354.433 391.771 C 1354.433 400.223 1348.618 420.717 1337.766 443.533 C 1330.006 459.848 1318.409 478.877 1310.312 488.533 C 1289.47 505.638 1283.499 506.645 1283.221 506.923 C 1276.808 513.335 1293.11 522.208 1280.312 538.533 C 1249.589 568.15 1226.255 582.681 1212.009 582.681 C 1211.35 582.681 1178.243 580.616 1159.312 577.659 C 1140.809 574.77 1136.485 571.028 1134.736 567.529 C 1129.493 557.044 1120.372 545.473 1130.312 535.533 C 1133.378 532.466 1145.342 525.348 1145.342 525.105 C 1145.342 525.105 1136.251 522.075 1136.251 522.075 C 1130.651 520.208 1119.377 520.559 1113.524 520.559 C 1108.81 520.559 1092.388 519.196 1090.797 516.014 C 1090.797 516.014 1081.706 504.533 1081.706 504.533 C 1077.383 500.599 1054.264 499.504 1045.312 486.533 C 1034.796 471.295 1039.281 446.611 1039.281 438.741 C 1039.281 423.202 1009.312 433.408 1001.403 428.135 C 997.645 425.63 1006.312 397.807 1006.312 391.771 C 986.033 336.772 1000.582 307.617 999.888 305.533 C 998.047 280.62 991.998 281.276 984.312 273.59 C 971.263 260.54 981.312 233.532 981.312 219.533 C 981.312 203.704 987.057 197.415 994.312 186.533 C 994.312 186.533 1018.787 169.054 1020.312 167.529 C 1026.644 161.197 1025.463 149.438 1031.706 146.317 C 1039.674 142.333 1037.935 141.771 1043.827 141.771 C 1054.826 141.771 1061.023 158.438 1072.615 158.438 C 1081.165 158.438 1081.626 147.752 1077.16 143.287 C 1073.437 139.564 1065.452 131.165 1058.978 131.165 C 1040.607 131.165 1034.656 134.834 1027.16 123.59 C 1015.753 106.48 1020.808 82.583 1002.918 76.62 C 1001.076 76.006 991.706 71.165 989.281 73.59 C 981.992 80.879 979.035 87.226 971.1 87.226 C 969.166 87.226 962.009 87.977 962.009 84.196 C 962.009 80.329 954.969 76.768 952.918 78.135 C 943.332 84.525 940.587 92.086 934.736 100.862 C 934.736 100.862 933.221 105.408 933.221 105.408 C 930.622 108.007 929.519 114.328 928.675 116.014 C 925.099 123.166 946.857 128.608 946.857 119.044 C 946.857 112.602 961.616 97.776 963.524 105.408 C 965.77 114.393 960.494 123.946 960.494 132.681 C 960.494 152.311 942.693 165.887 928.675 170.559 C 910.29 176.688 911.765 164.499 901.403 164.499 C 899.552 164.499 892.033 167.117 890.797 167.529 C 880.14 171.081 874.16 179.65 860.494 179.65 C 849.494 179.65 842.312 158.227 842.312 150.862 C 842.312 124.024 849 105.927 854.433 84.196 C 855.35 80.529 857.463 79.115 857.463 75.105 C 857.463 49.163 860.494 24.963 860.494 2.378 C 860.494 -4.963 856.853 -13.701 855.948 -17.319 C 851.199 -36.317 862.946 -36.438 872.615 -46.107 C 876.389 -49.881 880.122 -49.878 883.221 -50.653 C 886.447 -51.459 888.769 -52.168 892.312 -52.168 C 903.843 -52.168 907.047 -43.077 916.554 -43.077 C 925.692 -43.077 939.641 -44.952 943.827 -49.138 C 948.387 -53.698 952.347 -56.515 954.433 -62.774 C 954.433 -62.774 957.463 -70.35 957.463 -70.35 C 958.978 -71.865 962.009 -79.441 962.009 -79.441 C 962.698 -81.508 962.009 -86.341 962.009 -88.532 C 962.009 -91.574 965.19 -91.864 966.554 -94.592 C 967.832 -97.149 970.264 -98.302 972.615 -100.653 C 979.38 -107.418 1003.417 -103.683 1010.494 -103.683 C 1026.707 -103.683 1032.915 -96.107 1048.372 -96.107 C 1052.918 -96.107 1055.948 -96.107 1058.978 -96.107 C 1069.038 -96.107 1077.076 -102.781 1086.251 -106.713 C 1093.222 -109.701 1100.074 -113.957 1107.463 -115.804 C 1107.463 -115.804 1115.039 -120.35 1115.039 -120.35 C 1124.088 -120.35 1135.55 -128.988 1140.797 -130.956 C 1150.28 -134.512 1162.195 -140.259 1172.615 -141.562 C 1172.615 -141.562 1181.706 -141.562 1181.706 -141.562 C 1209.207 -141.562 1204.451 -137.273 1223.403 -130.956 C 1228.923 -129.116 1265.918 -127.02 1263.403 -120.352 C 1261.904 -116.378 1255.144 -119.041 1244.403 -115.804 C 1239.524 -112.497 1230.203 -109.581 1229.403 -106.713 C 1237.117 -97.272 1255.277 -97.496 1262.403 -83.41 C 1267.168 -73.991 1272.373 -69.494 1278.403 -38.41 C 1283.555 -30.124 1287.642 -30.2 1291.403 -29.41 C 1298.749 -29.676 1317.264 -9.098 1321.1 0.862 C 1322.024 1.787 1374.038 26.771 1375.403 28.135 C 1376.949 29.682 1385.771 31.595 1387.766 33.59 C 1392.566 38.389 1394.141 31.437 1377.16 22.59 C 1369.514 18.606 1342.567 -1.205 1331.706 -6.467 C 1317.602 -18.021 1314.028 -26.918 1312.009 -30.956 C 1310.494 -33.986 1302.918 -40.047 1302.918 -40.047 C 1291.649 -51.315 1284.306 -57.574 1277.16 -71.865 C 1268.649 -88.888 1276.672 -101.679 1286.251 -111.259 C 1296.504 -121.512 1316.901 -124.895 1328.675 -124.895 C 1334.736 -124.895 1382.281 -124.895 1385.312 -124.895 C 1391.977 -127.346 1417.072 -119.906 1433.312 -100.653 Z " fill="rgb(0,0,0)" fill-opacity="0.2" vector-effect="non-scaling-stroke" stroke-width="1" stroke="rgb(0,0,0)" stroke-linejoin="miter" stroke-linecap="square" stroke-miterlimit="3"/><path d=" M 79.676 1426.044 C 50.789 1431.176 25.069 1421.419 21.95 1416.884 C 10.276 1414.48 -27.855 1410.286 -39.274 1409.585 C -58.045 1408.435 -74.167 1403.983 -88.875 1395.466 C -121.654 1380.488 -146.866 1354.331 -171.203 1333.191 C -194.05 1313.346 -217.006 1298.074 -218.545 1296.113 C -236.012 1273.857 -242.245 1262.187 -247.179 1243.675 C -251.102 1228.961 -247.935 1221.857 -235.574 1215.764 C -230.143 1213.087 -196.846 1227.356 -194.371 1228.067 C -172.489 1234.357 -196.518 1213.026 -144.888 1234.765 C -118.795 1246.449 -134.697 1222.192 -111.966 1239.962 C -111.455 1239.826 -94.776 1245.467 -87.49 1245.399 C -79.198 1245.321 -80.192 1239.516 -79.891 1238.996 C -77.423 1234.735 -89.45 1232.391 -103.371 1216.05 C -114.864 1199.855 -97.522 1189.007 -118.05 1174.879 C -131.47 1159.375 -116.073 1145.657 -139.304 1145.064 C -167.434 1133.221 -167.89 1122.345 -174.569 1133.398 C -177.63 1141.071 -152.369 1151.944 -161.734 1156.587 C -174.446 1162.89 -183.761 1163.092 -196.31 1155.825 C -198.994 1154.271 -222.842 1135.323 -225.638 1124.836 C -226.681 1120.923 -226.799 1113.398 -229.501 1110.343 C -230.538 1109.17 -235.555 1105.087 -236.609 1104.476 C -248.398 1097.65 -265.709 1107.913 -276.292 1109.511 C -284.509 1110.752 -299.585 1115.283 -306.934 1111.027 C -314.248 1106.792 -329.07 1091.489 -343.376 1070.666 C -353.607 1055.775 -364.262 1036.204 -368.561 1024.358 C -372.919 997.75 -370.799 992.078 -370.9 991.698 C -373.236 982.935 -389.083 992.596 -396.797 973.341 C -407.032 931.913 -407.914 904.438 -400.775 892.109 C -400.444 891.539 -382.068 863.924 -370.023 849.022 C -358.25 834.458 -352.845 832.592 -348.941 832.831 C -337.241 833.548 -322.656 831.453 -319.035 845.036 C -317.918 849.226 -317.753 863.147 -317.543 863.269 C -317.543 863.269 -310.365 856.92 -310.365 856.92 C -305.943 853.009 -300.598 843.076 -297.665 838.011 C -295.302 833.932 -285.893 820.404 -282.342 820.621 C -282.342 820.621 -267.851 818.507 -267.851 818.507 C -262.281 816.738 -249.748 797.279 -234.037 796.032 C -215.581 794.567 -196.467 810.819 -189.657 814.762 C -176.21 822.549 -170.024 791.5 -161.497 787.297 C -157.447 785.301 -137.712 806.743 -132.489 809.768 C -74.731 819.779 -56.792 846.98 -54.64 847.423 C -32.158 858.314 -29.694 852.751 -19.192 849.951 C -1.36 845.197 16.977 867.427 29.092 874.443 C 42.79 882.375 45.354 890.498 51.135 902.229 C 51.135 902.229 53.996 932.168 54.552 934.252 C 56.859 942.905 67.626 947.776 67.199 954.742 C 66.654 963.634 68.011 962.411 65.059 967.509 C 59.547 977.027 42.019 974.038 36.21 984.07 C 31.925 991.469 40.942 997.223 47.044 995.596 C 52.131 994.24 63.401 991.538 66.645 985.936 C 75.85 970.038 75.658 963.05 89.145 962.197 C 109.668 960.9 127.814 977.248 141.94 964.755 C 143.394 963.468 152.278 957.785 151.395 954.472 C 148.74 944.511 144.729 938.772 148.706 931.905 C 149.675 930.232 152.611 923.661 155.883 925.556 C 159.23 927.494 165.839 923.186 165.684 920.726 C 164.957 909.229 159.79 903.064 155.127 893.603 C 155.127 893.603 151.953 890.014 151.953 890.014 C 151.006 886.463 146.089 882.34 145.052 880.766 C 140.655 874.087 125.043 890.189 133.319 894.982 C 138.894 898.21 144.328 918.411 136.768 916.238 C 127.866 913.679 122.244 904.326 114.685 899.949 C 97.696 890.112 94.868 867.905 97.849 853.433 C 101.759 834.452 111.568 841.836 116.76 832.868 C 117.688 831.267 119.19 823.448 119.453 822.172 C 121.719 811.169 117.3 801.701 124.148 789.874 C 129.66 780.355 151.798 784.875 158.172 788.565 C 181.398 802.014 193.706 816.87 209.79 832.462 C 212.504 835.092 212.669 837.63 216.139 839.64 C 238.589 852.639 258.012 867.388 277.558 878.706 C 283.91 882.384 293.296 883.612 296.881 884.643 C 315.701 890.052 309.919 900.279 313.442 913.492 C 314.816 918.648 312.943 921.878 312.061 924.948 C 311.142 928.143 310.592 930.508 308.816 933.574 C 303.038 943.553 293.565 941.771 288.801 949.998 C 284.222 957.906 278.855 970.916 280.379 976.636 C 282.041 982.868 282.495 987.706 286.865 992.648 C 286.865 992.648 291.903 999.066 291.903 999.066 C 292.455 1001.137 297.492 1007.555 297.492 1007.555 C 298.936 1009.188 303.464 1011.013 305.359 1012.111 C 307.992 1013.635 306.649 1016.533 308.326 1019.081 C 309.898 1021.469 309.678 1024.15 310.534 1027.363 C 312.999 1036.608 297.721 1055.538 294.175 1061.662 C 286.05 1075.692 276.383 1077.269 268.638 1090.645 C 266.36 1094.579 264.842 1097.201 263.323 1099.823 C 258.282 1108.529 260.03 1118.829 258.835 1128.74 C 257.927 1136.269 258.177 1144.332 256.073 1151.652 C 256.073 1151.652 256.21 1160.485 256.21 1160.485 C 251.676 1168.316 253.408 1182.564 252.481 1188.09 C 250.806 1198.08 249.81 1211.27 245.715 1220.94 C 245.715 1220.94 241.16 1228.807 241.16 1228.807 C 227.379 1252.607 226.051 1246.342 211.087 1259.577 C 206.728 1263.432 186.376 1294.397 181.866 1288.878 C 179.178 1285.59 184.87 1281.075 187.452 1270.157 C 187.035 1264.278 189.181 1254.751 187.101 1252.621 C 175.065 1254.566 166.159 1270.393 150.398 1269.501 C 139.859 1268.905 133.359 1271.156 103.438 1260.798 C 93.686 1261.104 91.704 1264.679 89.136 1267.538 C 85.684 1274.028 58.598 1279.739 48.057 1278.067 C 46.793 1278.404 -0.892 1310.897 -2.756 1311.394 C -4.87 1311.957 -10.946 1318.633 -13.672 1319.36 C -20.23 1321.108 -15.003 1325.955 1.162 1315.694 C 8.441 1311.073 39.089 1297.681 49.085 1290.919 C 66.15 1284.503 75.641 1285.868 80.147 1286.145 C 83.529 1286.352 92.57 1282.833 92.57 1282.833 C 107.968 1278.728 117.064 1275.509 133.012 1276.487 C 152.008 1277.651 159.058 1291.004 162.548 1304.095 C 166.282 1318.105 158.989 1337.452 153.089 1347.641 C 150.052 1352.886 126.227 1394.031 124.708 1396.654 C 123.489 1403.65 104.476 1421.639 79.676 1426.044 Z " fill="rgb(0,0,0)" fill-opacity="0.2" vector-effect="non-scaling-stroke" stroke-width="1" stroke="rgb(0,0,0)" stroke-linejoin="miter" stroke-linecap="square" stroke-miterlimit="3"/><path d=" M 449.143 1668.662 C 450.73 1662.386 451.217 1657.523 450.731 1655.195 C 449.973 1651.564 442.261 1648.851 438.628 1646.933 C 433.95 1644.463 422.745 1643.155 421.529 1637.33 C 421.42 1636.809 421.449 1633.91 421.608 1633.193 C 422.021 1631.326 425.471 1628.604 426.899 1626.908 C 430.728 1622.36 430.652 1608.742 430.375 1607.416 C 429.081 1601.216 425.522 1598.612 417.867 1597.21 C 412.227 1596.177 416.576 1607.318 411.876 1609.178 C 404.26 1611.206 409.139 1607.191 404.173 1594.88 C 395.806 1587.994 407.902 1587.519 410.108 1578.128 C 409.03 1567.185 420.518 1568.294 423.76 1559.209 C 426.168 1549.375 422.782 1545.082 425.678 1544.27 C 426.032 1544.17 428.357 1541.812 431.478 1544.166 C 434.22 1546.235 437.806 1553.042 438.059 1553.14 C 438.265 1566.016 443.611 1552.785 447.893 1564.454 C 457.008 1587.05 457.972 1572.53 463.192 1581.063 C 463.782 1582.028 469.545 1596.689 472.808 1597.294 C 480.235 1598.67 484.712 1597.043 490.083 1590.661 C 496.841 1582.634 499.941 1576.675 503.775 1563.71 C 504.113 1562.568 502.663 1550.519 503.377 1536.869 C 504.137 1522.328 506.902 1505.744 501.661 1490.979 C 500.143 1483.711 496.213 1477.49 489.764 1471.686 C 485.841 1468.155 473.603 1455.702 470.376 1451.49 C 471.322 1448.974 466.283 1438.101 453.154 1431.634 L 453.154 1431.634 C 441.884 1426.082 426.459 1427.043 422.757 1429.191 C 420.975 1429.691 393.01 1437.538 389.446 1438.538 C 382.521 1440.481 370.826 1445.294 365.711 1451.37 C 360.932 1457.047 357.355 1463.841 363.882 1469.714 C 369.361 1474.645 374.238 1476.109 381.873 1479.067 C 381.873 1479.067 386.869 1480.408 388.031 1481.454 C 389.579 1482.847 392.476 1486.061 401.803 1488.673 C 408.661 1489.131 426.279 1493.154 431.133 1493.595 C 441.91 1494.575 441.604 1497.808 438.353 1496.548 C 437.001 1496.024 431.642 1496.662 430.594 1496.256 C 429.67 1495.898 396.846 1493.801 396.219 1493.558 C 393.074 1489.932 380.346 1484.19 376.049 1485.516 C 373.767 1485.799 371.37 1486.506 367.6 1483.813 C 361.278 1471.518 357.815 1470.454 354.171 1467.213 C 348.722 1462.367 338.061 1465.46 332.68 1462.696 C 332.895 1461.338 338.117 1458.553 340.691 1456.334 C 346.72 1453.177 350.933 1453.2 351.46 1451.254 C 352.344 1447.987 330.398 1453.197 326.987 1453.321 C 315.276 1453.748 317.69 1451.129 301.515 1455.668 C 301.515 1455.668 296.168 1457.169 296.168 1457.169 C 290.155 1459.445 283.661 1463.869 278.4 1466.955 C 275.49 1468.662 269.52 1474.247 264.198 1475.741 C 264.198 1475.741 260.148 1478.934 260.148 1478.934 C 255.967 1480.944 252.317 1483.894 248.483 1486.322 C 243.438 1489.518 239.306 1493.698 233.389 1495.358 C 231.607 1495.858 229.825 1496.358 227.151 1497.109 C 218.06 1499.66 213.732 1497.445 204.196 1500.121 C 200.034 1501.289 185.562 1503.659 182.187 1507.668 C 181.014 1509.062 179.687 1509.956 179.164 1511.26 C 178.605 1512.652 176.76 1513.301 177.031 1514.601 C 177.227 1515.538 178.064 1517.491 177.843 1518.488 C 177.843 1518.488 176.737 1522.228 175.981 1523.126 C 175.981 1523.126 174.875 1526.865 174.875 1526.865 C 174.207 1529.885 172.13 1531.743 169.855 1534.446 C 167.767 1536.926 159.73 1540.03 154.355 1541.538 C 148.764 1543.107 146.067 1539.749 139.285 1541.652 C 137.201 1542.237 135.899 1542.923 134.073 1543.8 C 132.32 1544.643 130.124 1545.258 128.241 1547.494 C 123.417 1553.224 116.519 1555.215 121.009 1562.554 C 121.864 1563.952 124.786 1567.087 125.441 1570.225 C 127.458 1579.882 127.836 1590.729 130.153 1601.821 C 130.511 1603.536 129.394 1604.489 129.182 1606.208 C 127.927 1616.397 125.609 1625.238 128.006 1636.713 C 128.664 1639.862 134.801 1647.836 141.271 1646.021 C 149.309 1643.765 152.061 1639.115 158.011 1635.837 C 158.702 1635.457 162.891 1633.096 163.979 1632.791 C 170.074 1631.081 170.295 1636.536 180.561 1630.881 C 188.389 1626.57 197.646 1617.828 195.893 1609.434 C 195.113 1605.699 197.364 1600.744 195.24 1597.273 C 193.436 1594.325 186.08 1603.1 186.655 1605.854 C 187.509 1609.943 174.226 1611.208 175.691 1607.559 C 176.036 1606.699 176.12 1603.815 177.417 1602.274 C 177.417 1602.274 177.902 1600.081 177.902 1600.081 C 180.56 1595.363 181.5 1591.677 186.567 1587.363 C 187.651 1586.439 192.11 1586.8 192.455 1588.454 C 192.793 1590.07 196.935 1588.568 198.073 1588.249 C 202.74 1586.939 203.912 1583.738 207.549 1579.418 C 208.758 1577.981 214.702 1578.504 215.84 1578.463 C 226.895 1578.06 226.056 1589.111 234.293 1594.544 C 239.706 1598.115 242.878 1595.564 253.684 1592.532 C 257.491 1591.464 262.938 1593.737 265.46 1594.714 C 268.485 1595.886 269.168 1600.531 264.139 1601.942 C 257.321 1603.855 252.188 1597.752 245.719 1599.567 C 242.254 1600.54 243.326 1600.493 238.996 1603.511 C 235.603 1605.876 237.347 1610.709 234.188 1614.462 C 233.427 1615.365 220.593 1626.878 220.593 1626.878 C 217.297 1632.728 214.48 1636.365 215.893 1643.133 C 217.143 1649.119 213.644 1662.325 222.485 1665.751 C 227.692 1667.769 231.191 1666.49 234.498 1676.838 C 235.093 1677.614 229.139 1692.482 245.977 1712.65 C 246.516 1715.231 243.903 1728.557 246.337 1729.008 C 251.46 1729.957 268.176 1720.648 269.563 1727.291 C 270.266 1730.656 269.832 1741.951 277.378 1746.73 C 283.801 1750.799 297.497 1747.451 300.391 1748.42 C 300.391 1748.42 306.763 1751.828 306.763 1751.828 C 307.983 1752.926 317.764 1750.799 320.536 1750.021 C 323.979 1749.055 330.578 1747.044 334.039 1746.918 C 334.039 1746.918 339.657 1746.713 339.657 1746.713 C 339.678 1746.817 333.277 1751.835 331.747 1753.652 C 326.788 1759.543 333.187 1762.985 337.207 1766.603 C 338.548 1767.81 341.425 1768.696 352.566 1766.878 C 363.965 1765.018 383.621 1760.436 384.009 1760.328 C 391.148 1758.324 401.224 1750.723 413.61 1737.502 C 412.034 1742.698 411.163 1746.896 411.023 1749.75 C 410.609 1758.233 421.544 1769.556 426.413 1776.291 C 432.683 1784.964 449.738 1795.648 449.073 1809.254 C 449.014 1810.472 447.683 1816.801 447.116 1818.26 C 445.639 1822.062 439.004 1825.616 436.005 1828.336 C 427.965 1835.627 422.052 1865.506 421.901 1868.605 C 421.193 1883.088 425.641 1891.275 437.068 1899.685 C 445.487 1905.881 443.575 1878.446 451.798 1877.651 C 464.682 1878.522 455.224 1883.912 457.589 1914.341 C 467.708 1935.261 448.46 1927.862 440.829 1946.895 C 437.679 1971.615 420.09 1961.172 410.962 1978.808 C 402.818 1998.67 406.246 2010.434 401.328 2010.193 C 400.727 2010.164 396.023 2013.708 392.154 2006.374 C 388.755 1999.929 386.125 1982.519 385.77 1982.128 C 391.148 1953.78 376.875 1979.03 375.303 1950.484 C 370.964 1894.632 363.017 1925.764 358.58 1903.434 C 358.078 1900.908 355.501 1864.774 350.633 1861.174 C 339.553 1852.978 331.787 1853.42 320.507 1863.649 C 306.315 1876.518 298.798 1887.406 287.021 1913.13 C 285.984 1915.396 282.929 1942.798 275.76 1972.2 C 268.124 2003.519 256.429 2037.914 258.137 2073.912 C 257.308 2090.888 260.739 2107.258 268.318 2124.469 C 272.929 2134.939 286.675 2170.753 289.887 2182.231 C 287.286 2187.081 290.4 2214.412 308.2 2237.737 C 323.48 2257.76 348.182 2266.416 354.959 2264.293 C 357.986 2264.441 405.474 2266.762 411.528 2267.058 C 423.288 2267.633 443.826 2265.249 454.567 2255.509 C 464.603 2246.409 473.241 2234.024 465.57 2216.606 C 459.131 2201.983 452.102 2195.374 441.397 2183.568 C 441.397 2183.568 434.126 2177.145 432.76 2174.044 C 430.941 2169.913 427.805 2160.852 414.282 2148.624 C 403.691 2142.838 377.744 2121.735 370.301 2117.382 C 353.772 2107.717 355.685 2100.85 360.244 2105.878 C 362.14 2107.968 370.858 2110.309 372.327 2111.929 C 373.623 2113.359 424.355 2140.852 425.234 2141.82 C 428.578 2151.956 446.067 2173.413 453.417 2173.507 C 457.135 2174.479 461.221 2174.603 465.963 2183.131 C 470.468 2214.472 475.447 2219.217 479.747 2228.858 C 486.176 2243.275 504.326 2243.938 511.57 2253.744 C 510.63 2256.569 501.179 2259.027 496.144 2262.092 C 485.257 2264.8 478.636 2261.811 476.944 2265.706 C 474.106 2272.245 510.955 2276.143 516.379 2278.251 C 535 2285.486 530.04 2289.537 557.509 2290.88 C 557.509 2290.88 566.589 2291.323 566.589 2291.323 C 577.06 2290.531 589.241 2285.373 598.887 2282.283 C 604.223 2280.574 616.093 2272.506 625.131 2272.947 C 625.131 2272.947 632.92 2268.777 632.92 2268.777 C 640.39 2267.293 647.442 2263.376 654.551 2260.733 C 663.907 2257.253 672.261 2250.98 682.309 2251.471 C 685.335 2251.619 688.362 2251.766 692.902 2251.988 C 708.34 2252.743 714.172 2260.613 730.366 2261.404 C 737.434 2261.75 761.259 2266.654 768.347 2260.227 C 770.81 2257.993 773.295 2256.96 774.697 2254.469 C 776.192 2251.81 779.384 2251.676 779.532 2248.638 C 779.639 2246.45 779.187 2241.589 779.976 2239.558 C 779.976 2239.558 783.373 2232.139 784.96 2230.699 C 784.96 2230.699 788.357 2223.281 788.357 2223.281 C 790.746 2217.131 794.838 2214.511 799.616 2210.178 C 804.001 2206.202 818.025 2205.01 827.152 2205.456 C 836.647 2205.92 839.404 2215.157 850.922 2215.72 C 854.46 2215.893 856.814 2215.298 860.076 2214.65 C 863.209 2214.028 866.937 2214.213 870.891 2210.628 C 881.021 2201.443 892.759 2201.895 888.943 2182.688 C 888.216 2179.03 885.006 2170.124 885.365 2162.793 C 886.467 2140.234 890.675 2116.211 891.942 2090.3 C 892.137 2086.295 894.318 2084.985 895.412 2081.368 C 901.899 2059.928 909.463 2042.179 910.773 2015.373 C 911.133 2008.017 905.005 1986.268 894.019 1985.731 C 880.368 1985.064 873.977 1993.331 863.16 1996.359 C 861.905 1996.71 854.267 1998.958 852.419 1998.868 C 842.069 1998.362 844.137 1986.259 825.474 1991.483 C 811.245 1995.466 792.803 2008.156 791.845 2027.763 C 791.418 2036.488 785.682 2045.772 787.487 2054.856 C 789.02 2062.572 804.485 2048.484 804.799 2042.049 C 805.266 2032.497 826.732 2038.994 822.812 2045.963 C 821.887 2047.606 820.476 2053.866 817.754 2056.335 C 817.754 2056.335 816.018 2060.801 816.018 2060.801 C 809.746 2069.281 806.635 2076.699 796.749 2082.614 C 794.633 2083.879 787.776 2079.979 787.965 2076.116 C 788.149 2072.339 780.964 2072.74 779.032 2072.646 C 771.106 2072.259 767.844 2078.453 760.207 2085.378 C 757.667 2087.682 748.544 2082.389 746.734 2081.686 C 729.157 2074.856 735.372 2051.235 724.814 2033.589 C 717.876 2021.992 711.753 2025.366 693.403 2024.469 C 686.938 2024.153 679.372 2015.375 675.835 2011.475 C 671.593 2006.796 672.575 1996.146 681.115 1996.563 C 692.693 1997.129 698.069 2014.078 709.055 2014.615 C 714.939 2014.903 713.23 2014.257 721.383 2010.667 C 727.771 2007.854 727.166 1996.052 733.799 1990.036 C 735.397 1988.587 760.696 1972.325 760.696 1972.325 C 768.473 1961.81 774.519 1955.809 775.291 1939.999 C 775.975 1926.015 787.331 1899.53 774.934 1885.859 C 767.632 1877.807 761.559 1878.167 760.936 1853.194 C 760.344 1851.078 776.3 1822.668 758.73 1766.745 C 759.024 1760.717 769.039 1733.349 765.408 1730.664 C 757.765 1725.011 727.334 1733.742 728.092 1718.221 C 728.476 1710.361 734.162 1685.925 724.402 1670.193 C 716.094 1656.8 693.056 1654.577 688.93 1650.437 C 688.93 1650.437 680.411 1638.526 680.411 1638.526 C 678.977 1635.27 662.641 1633.106 657.932 1632.876 C 652.087 1632.591 640.809 1632.392 635.306 1630.254 C 635.306 1630.254 626.374 1626.783 626.374 1626.783 C 626.386 1626.54 638.683 1620.014 641.896 1617.101 C 652.309 1607.658 643.763 1595.656 639.038 1584.927 C 637.462 1581.347 633.326 1577.399 614.987 1573.609 C 596.222 1569.732 563.256 1566.054 562.598 1566.021 C 548.368 1565.326 524.352 1578.7 492.221 1606.782 C 478.641 1622.462 494.49 1632.121 487.772 1638.212 C 487.481 1638.476 481.468 1639.191 459.816 1655.258 C 456.665 1658.663 452.978 1663.313 449.143 1668.662 Z  M 422.936 1713.483 C 420.25 1715.634 419.204 1716.094 419.129 1716.183 C 417.827 1717.73 418.774 1718.83 419.959 1720.209 C 420.861 1718.049 421.849 1715.806 422.936 1713.483 Z  M 490.519 2631.019 C 489.506 2631.484 488.82 2631.537 488.602 2631.022 C 488.248 2630.19 488.923 2629.256 490.121 2627.885 C 489.708 2625.289 488.896 2622.249 487.061 2620.776 C 486.131 2620.029 485.257 2619.362 484.389 2618.701 C 482.305 2619.64 480.176 2620.324 478.019 2620.428 C 481.154 2624.444 478.898 2631.422 483.373 2635.014 C 486.983 2637.911 490.878 2634.299 490.539 2631.211 C 490.533 2631.153 490.526 2631.093 490.519 2631.019 L 490.519 2631.019 L 490.519 2631.019 Z  M 463.846 2618.699 C 461.219 2617.925 458.023 2616.748 453.918 2614.907 C 448.874 2614.85 447.173 2616.638 445.31 2618.047 C 445.052 2618.325 444.707 2618.597 444.284 2618.86 C 449.395 2619.515 457.341 2620.511 458.144 2620.496 C 460.25 2620.459 462.114 2619.586 463.846 2618.699 L 463.846 2618.699 L 463.846 2618.699 Z  M 427.019 2622.767 C 425.086 2622.859 423.433 2622.788 422.287 2622.542 C 421.576 2622.687 390.95 2638.294 389.901 2638.508 C 388.713 2638.75 384.322 2642.039 382.789 2642.351 C 379.1 2643.103 380.839 2645.703 391.077 2640.798 C 395.151 2638.846 409.873 2633.783 417.599 2630.408 C 419.992 2628.675 422.222 2627.094 423.67 2625.619 C 424.815 2624.453 425.922 2623.519 427.019 2622.767 L 427.019 2622.767 L 427.019 2622.767 Z  M 375.874 2691.764 C 368.136 2690.278 356.607 2688.491 352.341 2688.035 C 342.968 2687.033 335.584 2684.397 329.705 2679.708 C 315.832 2671.311 307.979 2657.351 299.607 2645.981 C 291.747 2635.307 282.953 2626.975 282.543 2625.936 C 277.898 2614.145 276.958 2608.026 277.998 2598.429 C 278.824 2590.801 281.809 2587.229 289.301 2584.378 C 292.592 2583.125 306.865 2591.17 307.994 2591.589 C 317.968 2595.294 309.79 2583.833 331.998 2596.109 C 343.086 2602.671 339.626 2589.888 347.825 2599.496 C 348.112 2599.437 355.552 2602.695 359.29 2602.82 C 363.543 2602.963 364.152 2599.965 364.406 2599.705 C 366.487 2597.575 360.791 2596.11 356.819 2587.428 C 354.061 2578.875 365.013 2573.696 357.239 2566.003 C 353.363 2557.762 363.872 2551.069 352.112 2550.254 C 340.013 2543.566 341.872 2537.982 336.332 2543.5 C 333.291 2547.366 344.111 2553.494 338.43 2555.668 C 330.72 2558.619 325.919 2558.518 320.904 2554.518 C 319.831 2553.662 311.287 2543.427 311.876 2537.99 C 312.096 2535.962 313.483 2532.102 312.69 2530.477 C 312.385 2529.853 310.607 2527.65 310.186 2527.313 C 305.473 2523.556 294.65 2528.436 288.933 2529.023 C 284.494 2529.478 275.917 2531.469 272.979 2529.126 C 270.056 2526.795 265.425 2518.626 262.119 2507.639 C 259.755 2499.781 258.074 2489.516 258.157 2483.349 C 261.049 2469.615 263.224 2466.755 263.246 2466.558 C 263.738 2462.015 253.779 2466.619 253.541 2456.58 C 256.281 2435.121 261.117 2421.019 267.139 2414.857 C 267.417 2414.571 282.124 2400.821 291.149 2393.447 C 299.968 2386.241 303.09 2385.403 305.04 2385.611 C 310.882 2386.236 318.74 2385.482 317.978 2392.524 C 317.742 2394.696 315.148 2401.835 315.232 2401.902 C 315.232 2401.902 320.122 2398.806 320.122 2398.806 C 323.135 2396.898 327.779 2391.924 330.252 2389.393 C 332.245 2387.354 339.657 2380.626 341.431 2380.816 C 341.431 2380.816 349.244 2380.051 349.244 2380.051 C 352.432 2379.266 362.582 2369.568 370.853 2369.273 C 380.568 2368.928 387.211 2377.678 389.933 2379.849 C 395.308 2384.135 404.445 2368.356 409.612 2366.39 C 412.066 2365.455 418.028 2376.879 420.115 2378.544 C 447.711 2384.944 451.646 2399.28 452.661 2399.555 C 462.057 2405.631 464.387 2402.833 470.294 2401.629 C 480.323 2399.584 485.418 2411.381 490.261 2415.243 C 495.736 2419.61 495.483 2423.83 496.181 2429.969 C 496.181 2429.969 491.883 2445.378 491.765 2446.458 C 491.279 2450.944 495.846 2453.677 494.287 2457.238 C 492.297 2461.784 493.226 2461.187 490.736 2463.735 C 486.088 2468.493 477.703 2466.576 472.804 2471.59 C 469.19 2475.288 472.692 2478.436 476.124 2477.736 C 478.985 2477.152 485.265 2476.015 488.001 2473.215 C 495.766 2465.268 497.012 2461.682 504.07 2461.541 C 514.81 2461.327 520.939 2470.106 530.563 2464.012 C 531.554 2463.385 537.189 2460.667 537.375 2458.949 C 537.935 2453.785 536.989 2450.756 540.343 2447.323 C 541.16 2446.487 543.925 2443.184 545.233 2444.227 C 546.571 2445.293 550.778 2443.231 551.172 2441.966 C 553.013 2436.057 551.558 2432.784 550.995 2427.832 C 550.995 2427.832 550.063 2425.923 550.063 2425.923 C 550.263 2424.082 548.543 2421.861 548.316 2421.031 C 547.353 2417.511 536.275 2425.422 539.583 2428.06 C 541.811 2429.837 540.702 2440.311 537.256 2439.031 C 533.198 2437.524 532.124 2432.606 529.102 2430.197 C 522.312 2424.781 525.14 2413.337 529.448 2405.984 C 535.099 2396.341 538.692 2400.341 543.071 2395.859 C 543.854 2395.059 546.126 2391.084 546.506 2390.435 C 549.781 2384.846 549.345 2379.896 555.121 2373.984 C 559.77 2369.226 570.216 2372.029 572.764 2374.061 C 582.047 2381.464 585.48 2389.349 590.701 2397.694 C 591.582 2399.102 591.178 2400.406 592.565 2401.513 C 601.538 2408.669 608.629 2416.655 616.441 2422.886 C 618.98 2424.91 623.542 2425.746 625.176 2426.353 C 633.754 2429.539 628.831 2434.654 628.089 2441.503 C 627.8 2444.177 626.221 2445.791 625.179 2447.345 C 624.094 2448.963 623.358 2450.163 621.861 2451.695 C 616.987 2456.683 612.488 2455.562 608.47 2459.674 C 604.607 2463.627 599.36 2470.177 599.039 2473.143 C 598.689 2476.373 597.99 2478.863 599.273 2481.492 C 599.273 2481.492 600.613 2484.893 600.613 2484.893 C 600.497 2485.966 601.837 2489.367 601.837 2489.367 C 602.26 2490.235 604.224 2491.27 604.981 2491.874 C 606.034 2492.714 604.789 2494.17 605.156 2495.512 C 605.501 2496.771 604.872 2498.14 604.691 2499.806 C 604.172 2504.599 592.721 2513.966 589.73 2517.026 C 582.877 2524.04 577.632 2524.635 571.099 2531.321 C 569.178 2533.288 567.898 2534.598 566.617 2535.909 C 565.584 2536.966 564.738 2538.08 564.028 2539.239 C 564.772 2539.836 565.269 2540.234 565.765 2540.633 C 570.012 2544.042 575.716 2544.412 580.952 2546.134 C 584.93 2547.443 589.296 2548.264 593.055 2550.116 C 593.055 2550.116 597.828 2551.081 597.828 2551.081 C 601.648 2554.147 609.479 2554.985 612.375 2556.069 C 617.61 2558.028 624.63 2560.039 629.481 2563.11 C 629.481 2563.11 633.319 2566.191 633.319 2566.191 C 644.929 2575.51 641.436 2575.41 647.249 2584.06 C 648.943 2586.58 663.836 2599.854 660.464 2601.354 C 658.456 2602.247 656.524 2599.017 650.868 2596.519 C 647.663 2596.032 642.719 2593.902 641.387 2594.642 C 641.375 2600.585 649.119 2606.66 647.25 2614.041 C 645.999 2618.978 646.64 2622.327 638.421 2635.331 C 637.727 2639.999 639.478 2641.357 640.793 2642.91 C 643.986 2645.306 644.677 2658.836 642.847 2663.648 C 642.917 2664.287 656.224 2690.722 656.328 2691.666 C 656.445 2692.735 659.507 2696.399 659.659 2697.779 C 660.023 2701.098 663.096 2699.18 658.99 2690.306 C 657.142 2686.31 652.626 2670.193 649.863 2664.657 C 647.909 2655.804 649.481 2651.456 650.027 2649.348 C 650.437 2647.766 649.338 2643.061 649.338 2643.061 C 648.482 2635.269 647.549 2630.574 649.482 2623.113 C 651.783 2614.226 659.6 2612.434 666.962 2612.302 C 674.841 2612.161 684.624 2617.88 689.595 2621.869 C 692.153 2623.923 712.226 2640.034 713.505 2641.061 C 717.168 2642.455 725.186 2653.582 725.375 2665.874 C 725.595 2680.193 718.071 2691.272 715.352 2692.225 C 713.027 2697.489 707.407 2715.111 706.023 2720.453 C 703.749 2729.235 699.929 2736.373 694.043 2742.367 C 683.084 2756.19 666.766 2765.116 653.23 2774.212 C 640.522 2782.751 630.269 2791.874 629.077 2792.377 C 615.545 2798.079 608.706 2799.679 598.296 2799.866 C 590.021 2800.014 586.472 2797.683 584.278 2791.101 C 583.314 2788.21 593.937 2774.058 594.539 2772.965 C 599.857 2763.305 586.244 2772.232 602.509 2750.243 C 611.105 2739.212 596.631 2743.938 608.211 2735.212 C 608.182 2734.954 612.692 2727.689 613.297 2724.22 C 613.986 2720.273 610.77 2720.069 610.517 2719.865 C 608.438 2718.197 606.115 2723.636 596.082 2728.343 C 586.342 2731.915 582.025 2722.414 572.603 2730.517 C 563.065 2735.084 557.03 2726.173 554.663 2737.138 C 545.802 2749.118 539.901 2748.067 545.268 2752.528 C 549.133 2754.876 557.219 2744.145 558.896 2749.134 C 561.172 2755.906 560.46 2760.354 555.438 2765.467 C 554.364 2766.561 542.052 2775.68 536.154 2775.786 C 533.954 2775.825 529.888 2775.004 528.004 2775.932 C 527.28 2776.288 524.638 2778.194 524.216 2778.624 C 519.498 2783.428 523.503 2792.846 523.432 2798.059 C 523.377 2802.106 524.49 2809.794 521.549 2812.789 C 518.622 2815.769 509.07 2821.026 496.587 2825.394 C 487.661 2828.518 476.176 2831.298 469.413 2831.959 C 454.691 2830.929 451.821 2829.261 451.608 2829.264 C 446.68 2829.353 450.489 2838.005 439.433 2839.425 C 416.206 2839.459 401.323 2836.676 395.309 2831.848 C 395.03 2831.625 381.768 2819.679 374.8 2812.221 C 367.989 2804.932 367.459 2802.148 367.933 2800.321 C 369.35 2794.848 369.506 2787.676 377.145 2787.539 C 379.501 2787.497 387.017 2789.041 387.102 2788.955 C 387.102 2788.955 384.313 2784.806 384.313 2784.806 C 382.595 2782.25 377.714 2778.554 375.243 2776.571 C 373.253 2774.973 366.792 2768.928 367.222 2767.266 C 367.222 2767.266 367.36 2760.137 367.36 2760.137 C 366.897 2757.286 357.516 2749.065 358.228 2741.458 C 359.065 2732.521 369.507 2725.337 372.232 2722.562 C 377.614 2717.082 361.427 2710.526 359.914 2705.986 C 359.195 2703.83 372.489 2696.955 374.579 2694.827 C 375.001 2693.769 375.433 2692.745 375.874 2691.764 L 375.874 2691.764 L 375.874 2691.764 Z " fill-rule="evenodd" fill="rgb(0,0,0)" fill-opacity="0.2" vector-effect="non-scaling-stroke" stroke-width="1" stroke="rgb(0,0,0)" stroke-linejoin="miter" stroke-linecap="square" stroke-miterlimit="3"/><path d=" M 1341.403 1709.068 C 1338.943 1715.055 1337.772 1719.8 1337.923 1722.174 C 1338.16 1725.876 1345.409 1729.654 1348.734 1732.067 C 1353.015 1735.175 1363.921 1738.058 1364.3 1743.996 C 1364.334 1744.527 1363.894 1747.393 1363.636 1748.08 C 1362.963 1749.87 1359.162 1752.075 1357.508 1753.552 C 1353.074 1757.512 1351.219 1771.003 1351.305 1772.355 C 1351.709 1778.676 1354.863 1781.758 1362.242 1784.23 C 1367.679 1786.051 1364.951 1774.407 1369.868 1773.231 C 1377.694 1772.303 1372.295 1775.586 1375.468 1788.476 C 1382.775 1796.478 1370.733 1795.234 1367.219 1804.219 C 1366.736 1815.204 1355.522 1812.479 1351.025 1821.012 C 1347.248 1830.407 1349.992 1835.136 1347.01 1835.53 C 1346.646 1835.578 1344.01 1837.583 1341.254 1834.81 C 1338.833 1832.374 1336.247 1825.128 1336.011 1824.995 C 1337.63 1812.22 1330.464 1824.559 1327.878 1812.402 C 1322.056 1788.742 1319.045 1802.98 1315.086 1793.794 C 1314.639 1792.755 1311.011 1777.425 1307.866 1776.364 C 1300.709 1773.95 1296.048 1774.926 1289.826 1780.482 C 1281.999 1787.472 1278.087 1792.931 1272.454 1805.222 C 1271.958 1806.305 1271.686 1818.438 1269.046 1831.849 C 1266.234 1846.136 1261.148 1862.161 1264.244 1877.52 C 1264.717 1884.929 1267.727 1891.644 1273.288 1898.303 C 1276.672 1902.354 1287.022 1916.415 1289.619 1921.042 C 1288.327 1923.398 1291.775 1934.876 1303.855 1943.137 L 1303.855 1943.137 C 1314.226 1950.23 1329.631 1951.464 1333.599 1949.862 C 1335.434 1949.619 1364.229 1945.813 1367.899 1945.328 C 1375.03 1944.385 1387.289 1941.277 1393.212 1935.987 C 1398.747 1931.045 1403.25 1924.826 1397.622 1918.087 C 1392.897 1912.43 1388.275 1910.29 1381.137 1906.28 C 1381.137 1906.28 1376.381 1904.245 1375.379 1903.045 C 1374.044 1901.446 1371.631 1897.854 1362.769 1893.947 C 1356.045 1892.523 1339.174 1886.045 1334.432 1884.92 C 1323.902 1882.423 1324.663 1879.267 1327.703 1880.975 C 1328.966 1881.684 1334.362 1881.812 1335.342 1882.362 C 1336.206 1882.848 1368.402 1889.574 1368.988 1889.903 C 1371.588 1893.938 1383.374 1901.425 1387.815 1900.722 C 1390.115 1900.765 1392.588 1900.405 1395.939 1903.604 C 1400.455 1916.671 1403.732 1918.214 1406.881 1921.939 C 1411.588 1927.508 1422.58 1925.957 1427.514 1929.455 C 1427.109 1930.769 1421.546 1932.786 1418.683 1934.618 C 1412.268 1936.889 1408.1 1936.269 1407.303 1938.121 C 1405.965 1941.23 1428.428 1939.181 1431.823 1939.542 C 1443.476 1940.778 1440.715 1943.028 1457.37 1940.827 C 1457.37 1940.827 1462.876 1940.099 1462.876 1940.099 C 1469.15 1938.697 1476.206 1935.238 1481.85 1932.928 C 1484.973 1931.651 1491.674 1926.967 1497.154 1926.243 C 1497.154 1926.243 1501.616 1923.655 1501.616 1923.655 C 1506.039 1922.258 1510.07 1919.854 1514.209 1917.994 C 1519.657 1915.545 1524.339 1911.993 1530.431 1911.187 C 1532.266 1910.945 1534.101 1910.702 1536.854 1910.338 C 1546.215 1909.101 1550.186 1911.906 1560.005 1910.608 C 1564.29 1910.041 1578.951 1909.745 1582.861 1906.255 C 1584.219 1905.041 1585.659 1904.344 1586.362 1903.128 C 1587.113 1901.829 1589.031 1901.448 1588.947 1900.122 C 1588.886 1899.167 1588.334 1897.115 1588.694 1896.159 C 1588.694 1896.159 1590.318 1892.614 1591.193 1891.832 C 1591.193 1891.832 1592.818 1888.287 1592.818 1888.287 C 1593.907 1885.392 1596.227 1883.847 1598.862 1881.494 C 1601.28 1879.335 1609.676 1877.401 1615.21 1876.669 C 1620.967 1875.908 1623.161 1879.614 1630.144 1878.691 C 1632.29 1878.407 1633.677 1877.912 1635.608 1877.303 C 1637.463 1876.717 1639.724 1876.419 1641.904 1874.472 C 1647.491 1869.483 1654.602 1868.49 1651.197 1860.589 C 1650.549 1859.084 1648.1 1855.567 1647.896 1852.367 C 1647.268 1842.522 1648.43 1831.73 1647.708 1820.422 C 1647.596 1818.675 1648.837 1817.889 1649.29 1816.217 C 1651.975 1806.309 1655.522 1797.886 1654.776 1786.187 C 1654.571 1782.976 1649.625 1774.213 1642.963 1775.093 C 1634.686 1776.188 1631.304 1780.402 1624.949 1782.803 C 1624.211 1783.082 1619.731 1784.825 1618.61 1784.973 C 1612.334 1785.803 1612.888 1780.371 1601.924 1784.515 C 1593.565 1787.674 1583.162 1795.016 1583.709 1803.574 C 1583.952 1807.381 1581.022 1811.968 1582.632 1815.704 C 1584 1818.878 1592.526 1811.234 1592.347 1808.426 C 1592.08 1804.257 1605.409 1804.887 1603.442 1808.291 C 1602.978 1809.094 1602.486 1811.937 1600.984 1813.278 C 1600.984 1813.278 1600.193 1815.381 1600.193 1815.381 C 1596.894 1819.675 1595.442 1823.191 1589.815 1826.744 C 1588.61 1827.504 1584.248 1826.515 1584.14 1824.83 C 1584.035 1823.181 1579.721 1824.082 1578.55 1824.236 C 1573.744 1824.872 1572.131 1827.875 1567.919 1831.636 C 1566.518 1832.887 1560.709 1831.527 1559.576 1831.407 C 1548.575 1830.24 1550.971 1819.419 1543.587 1812.874 C 1538.735 1808.572 1535.233 1810.648 1524.107 1812.119 C 1520.186 1812.637 1515.117 1809.615 1512.758 1808.291 C 1509.93 1806.702 1509.912 1802.007 1515.09 1801.322 C 1522.11 1800.394 1526.327 1807.163 1532.988 1806.282 C 1536.556 1805.811 1535.487 1805.705 1540.202 1803.331 C 1543.896 1801.47 1542.854 1796.439 1546.512 1793.172 C 1547.393 1792.385 1561.729 1782.807 1561.729 1782.807 C 1565.82 1777.482 1569.125 1774.281 1568.684 1767.381 C 1568.295 1761.279 1573.629 1748.701 1565.363 1744.058 C 1560.494 1741.323 1556.849 1742.093 1555.041 1731.381 C 1554.562 1730.528 1562.563 1716.654 1548.751 1694.303 C 1548.583 1691.673 1553.058 1678.85 1550.712 1678.059 C 1545.775 1676.394 1527.909 1683.242 1527.477 1676.469 C 1527.258 1673.038 1529.288 1661.919 1522.495 1656.119 C 1516.713 1651.182 1502.681 1652.555 1499.954 1651.186 C 1499.954 1651.186 1494.129 1646.91 1494.129 1646.91 C 1493.076 1645.65 1483.093 1646.37 1480.238 1646.748 C 1476.693 1647.216 1469.876 1648.272 1466.432 1647.907 C 1466.432 1647.907 1460.842 1647.314 1460.842 1647.314 C 1460.835 1647.208 1467.883 1643.147 1469.654 1641.565 C 1475.398 1636.436 1469.551 1632.122 1466.085 1627.972 C 1464.928 1626.587 1462.205 1625.302 1450.919 1625.523 C 1439.372 1625.75 1419.265 1627.501 1418.865 1627.553 C 1411.515 1628.525 1400.463 1634.622 1386.33 1645.955 C 1388.626 1641.035 1390.083 1637.003 1390.625 1634.197 C 1392.237 1625.859 1383.016 1613.101 1379.151 1605.745 C 1374.173 1596.27 1358.803 1583.279 1361.388 1569.903 C 1361.62 1568.707 1363.834 1562.629 1364.602 1561.265 C 1366.602 1557.711 1373.673 1555.133 1377.028 1552.865 C 1386.02 1546.787 1396.105 1518.046 1396.694 1515.001 C 1399.447 1500.764 1396.203 1492.029 1386.082 1482.085 C 1378.626 1474.759 1376.632 1502.188 1368.38 1501.811 C 1355.749 1499.123 1365.875 1495.127 1367.844 1464.67 C 1360.792 1442.528 1378.798 1452.578 1389.048 1434.819 C 1395.667 1410.794 1411.6 1423.623 1423.134 1407.458 C 1434.01 1388.95 1432.283 1376.819 1437.117 1377.754 C 1437.707 1377.868 1442.866 1375.026 1445.657 1382.835 C 1448.109 1389.696 1448.246 1407.303 1448.542 1407.741 C 1439.203 1435.04 1456.909 1412.067 1454.421 1440.548 C 1450.804 1496.451 1463.082 1466.759 1464.311 1489.493 C 1464.45 1492.064 1461.882 1528.199 1466.19 1532.452 C 1475.998 1542.135 1483.748 1542.798 1496.364 1534.27 C 1512.235 1523.541 1521.219 1513.827 1536.521 1490.031 C 1537.869 1487.935 1544.775 1461.242 1556.036 1433.152 C 1568.032 1403.231 1584.482 1370.839 1587.89 1334.962 C 1591.116 1318.275 1590.038 1301.584 1584.974 1283.473 C 1581.893 1272.455 1573.358 1235.055 1571.804 1223.238 C 1575.067 1218.805 1575.855 1191.308 1561.54 1165.698 C 1549.25 1143.712 1526.023 1131.644 1519.014 1132.785 C 1516.039 1132.21 1469.357 1123.185 1463.407 1122.035 C 1451.847 1119.8 1431.178 1119.25 1419.166 1127.37 C 1407.942 1134.957 1397.637 1145.994 1402.763 1164.323 C 1407.066 1179.71 1413.087 1187.249 1422.012 1200.451 C 1422.012 1200.451 1428.3 1207.84 1429.212 1211.103 C 1430.428 1215.45 1432.249 1224.864 1443.903 1238.885 C 1453.567 1246.113 1476.264 1270.679 1483.016 1276.041 C 1498.008 1287.951 1495.142 1294.478 1491.341 1288.855 C 1489.761 1286.517 1481.462 1282.964 1480.237 1281.152 C 1479.157 1279.554 1432.831 1245.151 1432.098 1244.068 C 1430.223 1233.561 1415.95 1209.843 1408.687 1208.709 C 1405.145 1207.219 1401.118 1206.518 1397.632 1197.405 C 1397.612 1165.741 1393.355 1160.339 1390.465 1150.186 C 1386.142 1135.004 1368.27 1131.776 1362.488 1121.042 C 1363.818 1118.379 1373.523 1117.285 1378.941 1114.964 C 1390.101 1113.825 1396.233 1117.723 1398.459 1114.106 C 1402.194 1108.036 1366.269 1098.956 1361.199 1096.102 C 1343.79 1086.302 1349.274 1082.994 1322.273 1077.774 C 1322.273 1077.774 1313.347 1076.048 1313.347 1076.048 C 1302.869 1075.349 1290.081 1078.73 1280.094 1080.422 C 1274.57 1081.358 1261.676 1087.664 1252.792 1085.946 C 1252.792 1085.946 1244.491 1088.971 1244.491 1088.971 C 1236.886 1089.382 1229.351 1092.26 1221.939 1093.87 C 1212.184 1095.989 1203.026 1101.016 1193.149 1099.107 C 1190.174 1098.531 1187.198 1097.956 1182.736 1097.093 C 1167.56 1094.159 1162.902 1085.543 1146.984 1082.465 C 1140.036 1081.122 1117.145 1072.892 1109.218 1078.251 C 1106.463 1080.113 1103.858 1080.783 1102.117 1083.051 C 1100.26 1085.471 1097.082 1085.151 1096.504 1088.138 C 1096.088 1090.289 1095.848 1095.165 1094.779 1097.064 C 1094.779 1097.064 1090.365 1103.927 1088.59 1105.127 C 1088.59 1105.127 1084.177 1111.989 1084.177 1111.989 C 1080.941 1117.738 1076.519 1119.753 1071.175 1123.365 C 1066.271 1126.68 1052.22 1125.873 1043.248 1124.138 C 1033.914 1122.334 1032.494 1112.8 1021.172 1110.611 C 1017.693 1109.939 1015.279 1110.194 1011.959 1110.373 C 1008.769 1110.546 1005.104 1109.834 1000.683 1112.823 C 989.354 1120.481 977.798 1118.37 978.855 1137.924 C 979.056 1141.648 980.972 1150.919 979.579 1158.125 C 975.291 1180.3 967.723 1203.485 962.799 1228.955 C 962.037 1232.892 959.694 1233.88 958.098 1237.306 C 948.639 1257.611 938.637 1274.109 933.543 1300.46 C 932.145 1307.69 935.13 1330.087 945.929 1332.175 C 959.348 1334.769 966.845 1327.491 977.982 1326.026 C 979.274 1325.856 987.154 1324.713 988.971 1325.064 C 999.144 1327.031 995.383 1338.719 1014.597 1336.192 C 1029.247 1334.265 1049.301 1324.315 1053.027 1305.041 C 1054.685 1296.465 1061.679 1288.087 1061.179 1278.839 C 1060.754 1270.984 1043.45 1282.739 1042.227 1289.064 C 1040.412 1298.454 1020.082 1288.981 1024.951 1282.638 C 1026.099 1281.142 1028.382 1275.146 1031.427 1273.087 C 1031.427 1273.087 1033.777 1268.912 1033.777 1268.912 C 1041.187 1261.406 1045.318 1254.504 1055.943 1250.049 C 1058.216 1249.096 1064.452 1253.929 1063.718 1257.725 C 1063 1261.438 1070.17 1262.059 1072.068 1262.426 C 1079.86 1263.932 1083.967 1258.262 1092.508 1252.489 C 1095.348 1250.569 1103.629 1257.1 1105.321 1258.052 C 1121.754 1267.303 1112.256 1289.806 1120.207 1308.77 C 1125.433 1321.232 1131.972 1318.76 1150.009 1322.247 C 1156.365 1323.476 1162.611 1333.238 1165.559 1337.599 C 1169.096 1342.831 1166.615 1353.236 1158.221 1351.613 C 1146.839 1349.412 1143.919 1331.872 1133.12 1329.785 C 1127.335 1328.666 1128.936 1329.547 1120.356 1331.947 C 1113.635 1333.826 1112.562 1345.595 1105.143 1350.61 C 1103.356 1351.818 1076.008 1364.333 1076.008 1364.333 C 1066.82 1373.64 1059.985 1378.724 1056.981 1394.266 C 1054.323 1408.011 1039.33 1432.62 1049.665 1447.909 C 1055.753 1456.915 1061.816 1457.419 1058.895 1482.228 C 1059.181 1484.407 1039.362 1510.27 1048.833 1568.119 C 1047.687 1574.044 1033.897 1599.717 1037.111 1602.889 C 1043.875 1609.568 1075.237 1605.236 1072.287 1620.493 C 1070.794 1628.219 1061.704 1651.603 1069.137 1668.56 C 1075.464 1682.994 1097.955 1688.458 1101.452 1693.141 C 1101.452 1693.141 1108.198 1706.139 1108.198 1706.139 C 1109.157 1709.565 1125.021 1714.021 1129.65 1714.916 C 1135.396 1716.027 1146.532 1717.821 1151.676 1720.717 C 1151.676 1720.717 1160.027 1725.418 1160.027 1725.418 C 1159.981 1725.657 1146.883 1730.375 1143.29 1732.803 C 1131.644 1740.676 1138.404 1753.768 1141.561 1765.058 C 1142.614 1768.825 1146.149 1773.319 1163.767 1779.669 C 1181.793 1786.165 1213.905 1794.476 1214.553 1794.601 C 1228.54 1797.306 1254.208 1787.468 1289.994 1764.221 C 1305.657 1750.623 1291.337 1738.817 1298.85 1733.738 C 1299.176 1733.518 1305.229 1733.663 1328.939 1720.825 C 1332.541 1717.9 1336.849 1713.819 1341.403 1709.068 Z  M 1373.695 1668.411 C 1376.659 1666.662 1377.759 1666.356 1377.846 1666.278 C 1379.354 1664.931 1378.572 1663.708 1377.595 1662.175 C 1376.396 1664.185 1375.1 1666.266 1373.695 1668.411 Z  M 1436.771 750.554 C 1437.839 750.237 1438.526 750.282 1438.669 750.823 C 1438.901 751.697 1438.101 752.525 1436.721 753.713 C 1436.762 756.342 1437.135 759.466 1438.743 761.184 C 1439.558 762.055 1440.328 762.84 1441.094 763.617 C 1443.29 762.983 1445.495 762.607 1447.644 762.809 C 1445.11 758.39 1448.331 751.802 1444.41 747.612 C 1441.247 744.233 1436.88 747.257 1436.778 750.361 C 1436.776 750.42 1436.774 750.48 1436.771 750.554 L 1436.771 750.554 L 1436.771 750.554 Z  M 1461.429 766.529 C 1463.92 767.667 1466.917 769.284 1470.721 771.689 C 1475.705 772.46 1477.643 770.93 1479.686 769.8 C 1479.981 769.561 1480.361 769.341 1480.817 769.141 C 1475.851 767.768 1468.126 765.657 1467.329 765.557 C 1465.239 765.296 1463.27 765.896 1461.429 766.529 L 1461.429 766.529 L 1461.429 766.529 Z  M 1498.461 767.718 C 1500.388 767.901 1502.014 768.205 1503.114 768.612 C 1503.838 768.569 1536.366 757.458 1537.435 757.394 C 1538.646 757.323 1543.458 754.69 1545.02 754.597 C 1548.778 754.375 1547.424 751.556 1536.596 754.961 C 1532.286 756.316 1516.995 759.242 1508.869 761.489 C 1506.254 762.866 1503.823 764.115 1502.18 765.37 C 1500.882 766.362 1499.653 767.13 1498.461 767.718 L 1498.461 767.718 L 1498.461 767.718 Z  M 1558.865 706.663 C 1566.314 709.23 1577.474 712.632 1581.632 713.688 C 1590.769 716.007 1597.705 719.663 1602.861 725.137 C 1615.404 735.414 1621.2 750.347 1627.877 762.788 C 1634.145 774.468 1641.671 783.962 1641.929 785.048 C 1644.857 797.378 1644.921 803.568 1642.532 812.921 C 1640.634 820.355 1637.172 823.468 1629.353 825.229 C 1625.918 826.003 1612.927 816.018 1611.87 815.443 C 1602.521 810.363 1608.993 822.867 1588.748 807.568 C 1578.701 799.502 1580.316 812.646 1573.56 801.973 C 1573.268 801.991 1566.364 797.712 1562.682 797.059 C 1558.492 796.315 1557.465 799.196 1557.176 799.418 C 1554.814 801.231 1560.246 803.489 1562.947 812.645 C 1564.466 821.503 1552.891 825.079 1559.497 833.795 C 1562.166 842.502 1550.815 847.639 1562.341 850.111 C 1573.371 858.446 1570.739 863.711 1577.005 859.033 C 1580.563 855.637 1570.721 848.038 1576.652 846.69 C 1584.703 844.861 1589.44 845.641 1593.839 850.311 C 1594.78 851.31 1601.787 862.653 1600.434 867.952 C 1599.929 869.928 1598.009 873.553 1598.564 875.274 C 1598.777 875.935 1600.225 878.367 1600.595 878.76 C 1604.727 883.148 1616.133 879.85 1621.875 880.079 C 1626.333 880.257 1635.106 879.501 1637.683 882.236 C 1640.246 884.958 1643.674 893.701 1645.39 905.045 C 1646.617 913.159 1646.826 923.558 1645.871 929.651 C 1641.062 942.837 1638.504 945.36 1638.455 945.552 C 1637.324 949.979 1647.835 946.833 1646.648 956.804 C 1640.895 977.659 1634.111 990.933 1627.277 996.181 C 1626.961 996.423 1610.454 1007.952 1600.477 1013.973 C 1590.725 1019.857 1587.516 1020.245 1585.615 1019.762 C 1579.92 1018.316 1572.035 1017.949 1573.787 1011.086 C 1574.328 1008.969 1577.907 1002.27 1577.834 1002.192 C 1577.834 1002.192 1572.554 1004.564 1572.554 1004.564 C 1569.301 1006.026 1564 1010.292 1561.193 1012.447 C 1558.931 1014.183 1550.641 1019.793 1548.912 1019.354 C 1548.912 1019.354 1541.069 1019.005 1541.069 1019.005 C 1537.802 1019.33 1526.38 1027.493 1518.151 1026.612 C 1508.485 1025.578 1503.149 1015.975 1500.762 1013.441 C 1496.048 1008.436 1484.769 1022.762 1479.375 1023.976 C 1476.813 1024.554 1472.53 1012.4 1470.699 1010.457 C 1444.288 1000.212 1442.423 985.463 1441.458 985.047 C 1433.018 977.702 1430.315 980.141 1424.297 980.496 C 1414.079 981.1 1410.707 968.7 1406.46 964.191 C 1401.658 959.093 1402.506 954.951 1402.685 948.774 C 1402.685 948.774 1409.123 934.13 1409.392 933.077 C 1410.509 928.706 1406.375 925.353 1408.423 922.049 C 1411.037 917.831 1410.032 918.29 1412.858 916.12 C 1418.134 912.069 1426.162 915.155 1431.723 910.885 C 1435.824 907.736 1432.803 904.124 1429.307 904.331 C 1426.392 904.503 1420.014 904.739 1416.909 907.124 C 1408.097 913.89 1406.355 917.264 1399.349 916.403 C 1388.687 915.094 1383.863 905.536 1373.472 910.205 C 1372.402 910.685 1366.44 912.577 1366.012 914.251 C 1364.727 919.284 1365.234 922.417 1361.427 925.34 C 1360.5 926.052 1357.294 928.93 1356.147 927.712 C 1354.974 926.467 1350.517 927.913 1349.948 929.109 C 1347.289 934.697 1348.265 938.144 1348.121 943.125 C 1348.121 943.125 1348.773 945.147 1348.773 945.147 C 1348.315 946.942 1349.703 949.384 1349.81 950.237 C 1350.264 953.858 1362.352 947.597 1359.451 944.517 C 1357.496 942.442 1360.078 932.231 1363.309 933.986 C 1367.112 936.053 1367.478 941.073 1370.128 943.886 C 1376.083 950.209 1371.663 961.137 1366.356 967.805 C 1359.396 976.551 1356.406 972.082 1351.436 975.898 C 1350.548 976.58 1347.736 980.193 1347.268 980.781 C 1343.233 985.85 1342.965 990.812 1336.409 995.846 C 1331.133 999.897 1321.189 995.643 1318.955 993.271 C 1310.814 984.627 1308.533 976.335 1304.546 967.335 C 1303.874 965.816 1304.459 964.582 1303.242 963.291 C 1295.373 954.936 1289.486 946.025 1282.635 938.751 C 1280.408 936.387 1276.011 934.913 1274.479 934.081 C 1266.438 929.712 1272.036 925.346 1273.741 918.671 C 1274.407 916.065 1276.198 914.691 1277.45 913.3 C 1278.752 911.852 1279.651 910.769 1281.351 909.464 C 1286.882 905.217 1291.177 906.964 1295.737 903.463 C 1300.12 900.097 1306.242 894.356 1306.98 891.466 C 1307.784 888.317 1308.829 885.951 1307.931 883.167 C 1307.931 883.167 1307.087 879.611 1307.087 879.611 C 1307.354 878.565 1306.509 875.009 1306.509 875.009 C 1306.213 874.089 1304.416 872.787 1303.752 872.081 C 1302.829 871.101 1304.267 869.836 1304.094 868.455 C 1303.931 867.161 1304.748 865.894 1305.162 864.271 C 1306.355 859.6 1319.018 851.95 1322.412 849.343 C 1330.19 843.371 1335.466 843.525 1342.88 837.832 C 1345.06 836.157 1346.514 835.041 1347.967 833.925 C 1349.139 833.025 1350.135 832.042 1351.002 830.996 C 1350.349 830.299 1349.914 829.834 1349.48 829.37 C 1345.758 825.394 1340.164 824.219 1335.225 821.772 C 1331.473 819.913 1327.267 818.482 1323.808 816.116 C 1323.808 816.116 1319.22 814.485 1319.22 814.485 C 1315.873 810.909 1308.24 808.97 1305.526 807.487 C 1300.621 804.806 1293.957 801.821 1289.591 798.093 C 1289.591 798.093 1286.228 794.5 1286.228 794.5 C 1276.054 783.63 1279.498 784.223 1274.969 774.837 C 1273.649 772.103 1260.787 756.853 1264.337 755.846 C 1266.452 755.247 1267.907 758.717 1273.151 761.992 C 1276.255 762.928 1280.848 765.737 1282.271 765.193 C 1283.125 759.311 1276.319 752.201 1279.216 745.159 C 1281.153 740.449 1280.993 737.043 1290.971 725.334 C 1292.32 720.812 1290.778 719.219 1289.697 717.496 C 1286.875 714.672 1288.108 701.18 1290.601 696.676 C 1290.622 696.033 1281.194 667.979 1281.225 667.031 C 1281.26 665.955 1278.748 661.895 1278.794 660.508 C 1278.903 657.171 1275.59 658.634 1278.397 668 C 1279.661 672.217 1281.848 688.812 1283.799 694.683 C 1284.479 703.723 1282.306 707.805 1281.467 709.815 C 1280.838 711.323 1281.26 716.135 1281.26 716.135 C 1281.002 723.97 1281.261 728.75 1278.291 735.862 C 1274.754 744.333 1266.762 745 1259.456 744.088 C 1251.636 743.111 1242.762 736.065 1238.406 731.411 C 1236.165 729.016 1218.576 710.224 1217.456 709.026 C 1214.027 707.127 1207.666 694.976 1209.221 682.781 C 1211.032 668.576 1220.049 658.674 1222.876 658.116 C 1225.922 653.234 1233.982 636.586 1236.109 631.494 C 1239.604 623.123 1244.397 616.598 1251.072 611.499 C 1263.88 599.367 1281.297 592.843 1295.985 585.756 C 1309.775 579.103 1321.216 571.524 1322.468 571.196 C 1336.671 567.468 1343.668 566.852 1353.999 568.142 C 1362.212 569.168 1365.395 571.979 1366.634 578.805 C 1367.179 581.804 1354.658 594.308 1353.908 595.304 C 1347.275 604.114 1362.015 597.205 1342.799 616.668 C 1332.728 626.371 1347.724 623.743 1335.026 630.74 C 1335.017 631 1329.524 637.552 1328.433 640.9 C 1327.192 644.71 1330.347 645.368 1330.569 645.606 C 1332.391 647.552 1335.461 642.497 1346.059 639.257 C 1356.206 637.102 1359.135 647.119 1369.61 640.431 C 1379.698 637.262 1384.41 646.938 1388.306 636.419 C 1398.775 625.815 1404.468 627.691 1399.786 622.515 C 1396.293 619.644 1386.769 629.121 1385.815 623.944 C 1384.522 616.918 1385.857 612.616 1391.552 608.266 C 1392.77 607.335 1406.25 600.052 1412.103 600.783 C 1414.287 601.056 1418.196 602.444 1420.192 601.793 C 1420.959 601.543 1423.845 600.03 1424.323 599.664 C 1429.674 595.577 1427.043 585.687 1427.852 580.537 C 1428.481 576.538 1428.468 568.77 1431.804 566.222 C 1435.123 563.686 1445.323 559.836 1458.298 557.28 C 1467.577 555.452 1479.341 554.327 1486.129 554.63 C 1500.557 557.736 1503.161 559.794 1503.373 559.82 C 1508.264 560.431 1505.719 551.326 1516.864 551.487 C 1539.861 554.744 1554.2 559.607 1559.47 565.238 C 1559.714 565.498 1571.15 579.203 1576.992 587.572 C 1582.701 595.752 1582.831 598.584 1582.104 600.325 C 1579.926 605.543 1578.755 612.62 1571.174 611.673 C 1568.835 611.381 1561.614 608.788 1561.518 608.861 C 1561.518 608.861 1563.691 613.363 1563.691 613.363 C 1565.03 616.137 1569.338 620.487 1571.503 622.801 C 1573.247 624.664 1578.786 631.564 1578.125 633.147 C 1578.125 633.147 1576.979 640.185 1576.979 640.185 C 1577.033 643.073 1585.155 652.54 1583.372 659.97 C 1581.278 668.697 1569.923 674.33 1566.832 676.691 C 1560.729 681.353 1575.824 690.136 1576.679 694.844 C 1577.085 697.081 1562.951 702.003 1560.581 703.814 C 1560.013 704.801 1559.441 705.753 1558.865 706.663 L 1558.865 706.663 L 1558.865 706.663 Z " fill-rule="evenodd" fill="rgb(0,0,0)" fill-opacity="0.2" vector-effect="non-scaling-stroke" stroke-width="1" stroke="rgb(0,0,0)" stroke-linejoin="miter" stroke-linecap="square" stroke-miterlimit="3"/><path d=" M 1152.106 2482.417 C 1181.313 2479.628 1206.163 2491.424 1208.907 2496.196 C 1220.349 2499.533 1258.019 2506.784 1269.344 2508.401 C 1287.962 2511.06 1303.673 2516.796 1317.648 2526.47 C 1349.113 2544.039 1372.137 2572.141 1394.693 2595.172 C 1415.868 2616.793 1437.519 2633.864 1438.895 2635.942 C 1454.512 2659.533 1459.785 2671.667 1463.213 2690.516 C 1465.938 2705.498 1462.21 2712.325 1449.397 2717.402 C 1443.768 2719.633 1411.729 2702.729 1409.319 2701.821 C 1388.015 2693.789 1410.248 2716.986 1360.536 2691.159 C 1335.469 2677.412 1349.366 2702.871 1328.139 2683.328 C 1327.62 2683.423 1311.449 2676.456 1304.181 2675.938 C 1295.91 2675.347 1296.433 2681.214 1296.091 2681.708 C 1293.289 2685.757 1305.087 2689.061 1317.648 2706.471 C 1327.798 2723.538 1309.639 2732.954 1328.963 2748.689 C 1341.09 2765.224 1324.639 2777.657 1347.746 2780.12 C 1374.831 2794.189 1374.41 2805.067 1381.957 2794.588 C 1385.627 2787.187 1361.323 2774.314 1371.032 2770.44 C 1384.21 2765.181 1393.511 2765.731 1405.434 2773.984 C 1407.984 2775.75 1430.229 2796.556 1432.171 2807.234 C 1432.896 2811.218 1432.408 2818.729 1434.855 2821.992 C 1435.794 2823.244 1440.465 2827.718 1441.467 2828.412 C 1452.668 2836.165 1470.75 2827.33 1481.427 2826.589 C 1489.717 2826.014 1505.108 2822.712 1512.091 2827.546 C 1519.04 2832.356 1532.581 2848.802 1545.164 2870.71 C 1554.163 2886.377 1563.208 2906.743 1566.538 2918.897 C 1568.739 2945.769 1566.169 2951.252 1566.239 2951.639 C 1567.862 2960.561 1584.436 2952.208 1590.574 2972.022 C 1597.439 3014.14 1596.106 3041.596 1587.997 3053.31 C 1587.622 3053.852 1567.081 3079.897 1553.875 3093.78 C 1540.968 3107.349 1535.43 3108.774 1531.558 3108.221 C 1519.953 3106.564 1505.247 3107.478 1502.731 3093.647 C 1501.956 3089.381 1502.912 3075.492 1502.712 3075.354 C 1502.712 3075.354 1495.047 3081.104 1495.047 3081.104 C 1490.324 3084.646 1484.196 3094.116 1480.865 3098.928 C 1478.182 3102.804 1467.714 3115.531 1464.192 3115.028 C 1464.192 3115.028 1449.577 3115.968 1449.577 3115.968 C 1443.883 3117.283 1429.824 3135.669 1414.063 3135.647 C 1395.549 3135.621 1377.807 3117.883 1371.336 3113.403 C 1358.56 3104.559 1349.893 3135.009 1341.056 3138.511 C 1336.858 3140.175 1318.913 3117.213 1313.951 3113.778 C 1257.187 3099.148 1241.497 3070.591 1239.387 3069.975 C 1217.856 3057.309 1214.952 3062.656 1204.258 3064.601 C 1186.101 3067.903 1169.615 3044.268 1158.104 3036.3 C 1145.089 3027.291 1143.188 3018.987 1138.37 3006.829 C 1138.37 3006.829 1137.929 2976.757 1137.543 2974.635 C 1135.941 2965.824 1125.6 2960.102 1126.587 2953.193 C 1127.847 2944.374 1126.395 2945.484 1129.749 2940.64 C 1136.009 2931.596 1153.24 2935.987 1159.838 2926.456 C 1164.704 2919.426 1156.18 2912.965 1149.967 2914.095 C 1144.787 2915.037 1133.337 2916.822 1129.652 2922.145 C 1119.196 2937.25 1118.825 2944.231 1105.313 2943.995 C 1084.752 2943.635 1067.982 2925.878 1052.896 2937.194 C 1051.342 2938.359 1042.029 2943.308 1042.643 2946.681 C 1044.487 2956.824 1048.023 2962.867 1043.506 2969.392 C 1042.406 2970.982 1038.949 2977.294 1035.84 2975.142 C 1032.661 2972.941 1025.726 2976.702 1025.683 2979.167 C 1025.481 2990.686 1030.135 2997.247 1034.021 3007.052 C 1034.021 3007.052 1036.896 3010.885 1036.896 3010.885 C 1037.554 3014.501 1042.123 3019.006 1043.03 3020.659 C 1046.875 3027.67 1063.733 3012.878 1055.87 3007.434 C 1050.573 3003.767 1046.782 2983.194 1054.144 2985.969 C 1062.81 2989.236 1067.661 2999.012 1074.843 3003.984 C 1090.984 3015.157 1092.015 3037.519 1087.878 3051.705 C 1082.452 3070.309 1073.27 3062.159 1067.372 3070.679 C 1066.319 3072.201 1064.192 3079.874 1063.827 3081.125 C 1060.682 3091.909 1064.324 3101.702 1056.546 3112.939 C 1050.285 3121.984 1028.582 3115.696 1022.527 3111.504 C 1000.46 3096.228 989.387 3080.429 974.611 3063.593 C 972.118 3060.752 972.158 3058.209 968.861 3055.927 C 947.532 3041.162 929.359 3024.896 910.788 3012.041 C 904.753 3007.863 895.496 3005.883 892.006 3004.568 C 873.683 2997.66 880.269 2987.932 877.822 2974.479 C 876.867 2969.228 878.995 2966.16 880.122 2963.171 C 881.294 2960.06 882.034 2957.747 884.05 2954.834 C 890.613 2945.353 899.912 2947.892 905.323 2940.076 C 910.524 2932.562 916.922 2920.026 915.862 2914.202 C 914.708 2907.856 914.645 2902.997 910.687 2897.72 C 910.687 2897.72 906.183 2890.917 906.183 2890.917 C 905.799 2888.808 901.295 2882.005 901.295 2882.005 C 899.988 2880.261 895.621 2878.077 893.821 2876.831 C 891.319 2875.099 892.892 2872.319 891.425 2869.644 C 890.05 2867.137 890.486 2864.482 889.891 2861.211 C 888.179 2851.797 904.931 2834.16 908.959 2828.342 C 918.187 2815.011 927.95 2814.218 936.747 2801.509 C 939.334 2797.771 941.059 2795.28 942.784 2792.788 C 948.51 2784.517 947.597 2774.11 949.586 2764.327 C 951.097 2756.895 951.498 2748.839 954.185 2741.712 C 954.185 2741.712 954.759 2732.896 954.759 2732.896 C 959.91 2725.456 959.331 2711.114 960.699 2705.681 C 963.173 2695.859 965.229 2682.792 970.089 2673.483 C 970.089 2673.483 975.263 2666.008 975.263 2666.008 C 990.916 2643.396 991.735 2649.748 1007.716 2637.761 C 1012.371 2634.269 1035.151 2605.043 1039.202 2610.908 C 1041.616 2614.402 1035.579 2618.444 1032.127 2629.118 C 1032.069 2635.012 1029.162 2644.335 1031.064 2646.625 C 1043.217 2645.656 1053.369 2630.597 1069.007 2632.756 C 1079.464 2634.199 1086.123 2632.478 1115.113 2645.213 C 1124.858 2645.693 1127.122 2642.289 1129.912 2639.646 C 1133.876 2633.455 1161.333 2629.944 1171.706 2632.459 C 1172.992 2632.225 1223.139 2603.678 1225.038 2603.333 C 1227.189 2602.942 1233.784 2596.777 1236.56 2596.272 C 1243.237 2595.058 1238.418 2589.805 1221.478 2598.732 C 1213.851 2602.751 1182.224 2613.632 1171.716 2619.567 C 1154.189 2624.587 1144.839 2622.462 1140.37 2621.824 C 1137.016 2621.345 1127.721 2624.125 1127.721 2624.125 C 1112.042 2626.976 1102.717 2629.452 1086.899 2627.193 C 1068.058 2624.502 1062.107 2610.625 1059.683 2597.296 C 1057.088 2583.031 1065.916 2564.334 1072.617 2554.653 C 1076.067 2549.67 1103.128 2510.577 1104.853 2508.085 C 1106.632 2501.21 1127.032 2484.811 1152.106 2482.417 Z " fill="rgb(0,0,0)" fill-opacity="0.2" vector-effect="non-scaling-stroke" stroke-width="1" stroke="rgb(0,0,0)" stroke-linejoin="miter" stroke-linecap="square" stroke-miterlimit="3"/></g></g></svg>