<?xml version="1.0" encoding="UTF-8" standalone="no"?>
<!-- Generator: Gravit.io -->
<svg xmlns="http://www.w3.org/2000/svg" xmlns:xlink="http://www.w3.org/1999/xlink" style="isolation:isolate" viewBox="0 0 600 292" width="600pt" height="292pt"><defs><clipPath id="_clipPath_TE3vmf7AA2ylGNC9Bj2l3ty7ICP4UjmV"><rect width="600" height="292"/></clipPath></defs><g clip-path="url(#_clipPath_TE3vmf7AA2ylGNC9Bj2l3ty7ICP4UjmV)"><g><path d=" M 531.214 56.08 Q 518.527 49.377 503.357 28.03 Q 515.343 23.965 522.132 24.523 Q 529.22 25.106 540.655 31.536 C 542.608 40.385 543.757 50.354 544.215 61.339 Q 535.559 58.375 531.214 56.08 L 531.214 56.08 L 531.214 56.08 Z  M 585.111 57.833 L 557.001 57.833 Q 555.007 37.855 551.769 21.017 Q 550.937 16.688 522.132 12.251 L 496.199 14.004 L 488.79 14.004 L 479.528 3.486 L 61.348 3 C 29.097 8.012 -1.559 94.674 0.062 152.502 C 1.573 206.465 5.947 255.685 61.348 291 L 468.414 287.494 L 484.785 275.222 Q 530.226 276.932 536.951 271.715 Q 541.521 268.17 540.655 234.9 L 561.031 234.9 L 581.407 234.9 L 585.111 241.912 L 590.668 241.912 Q 599.243 180.647 599.93 147.205 Q 600.627 113.264 594.373 50.82 L 590.668 50.82 L 585.111 57.833 L 585.111 57.833 L 585.111 57.833 Z  M 533.072 247.172 Q 532.855 243.438 531.214 236.653 Q 519.262 241.662 513.707 245.418 Q 506.12 250.548 496.199 262.95 L 531.214 262.95 Q 533.396 252.752 533.072 247.172 Z " fill-rule="evenodd" fill="rgb(255,255,255)" vector-effect="non-scaling-stroke" stroke-width="1" stroke="rgb(0,0,0)" stroke-linejoin="miter" stroke-linecap="square" stroke-miterlimit="3"/><g clip-path="url(#_clipPath_BAOgTtqXniRuHOHfpng26oLssptzBhzs)"><text transform="matrix(1.374,0,0,1.374,30.214,150.631)" style="font-family:'Open Sans';font-weight:700;font-size:44px;font-style:normal;fill:#000000;stroke:none;">miranchito.digital</text></g><defs><clipPath id="_clipPath_BAOgTtqXniRuHOHfpng26oLssptzBhzs"><rect x="0" y="0" width="403.729" height="66.948" transform="matrix(1.374,0,0,1.374,30.214,85.992)"/></clipPath></defs></g></g></svg>