<?xml version="1.0" encoding="UTF-8" standalone="no"?>
<!-- Generator: Gravit.io -->
<svg xmlns="http://www.w3.org/2000/svg" xmlns:xlink="http://www.w3.org/1999/xlink" style="isolation:isolate" viewBox="0 0 600 400" width="600pt" height="400pt"><defs><clipPath id="_clipPath_opQlxFbsNtO565zgufeuSb1aDAkwFe75"><rect width="600" height="400"/></clipPath></defs><g clip-path="url(#_clipPath_opQlxFbsNtO565zgufeuSb1aDAkwFe75)"><g><path d=" M 580.36 115.119 L 552.718 115.119 Q 550.757 94.308 547.573 76.768 Q 546.755 72.258 518.43 67.637 L 492.929 69.463 L 485.643 69.463 L 476.536 58.506 L 65.326 58 C 33.612 63.221 3.467 153.495 5.06 213.735 C 6.547 269.948 10.848 321.219 65.326 358.007 L 465.607 354.354 L 481.705 341.571 Q 526.389 343.353 533.001 337.918 Q 537.496 334.225 536.644 299.568 L 576.717 299.568 L 580.36 306.872 L 585.824 306.872 Q 594.256 243.053 594.931 208.217 Q 595.617 172.861 589.467 107.814 L 585.824 107.814 L 580.36 115.119 Z " fill="none" vector-effect="non-scaling-stroke" stroke-width="1" stroke="rgb(0,0,0)" stroke-linejoin="miter" stroke-linecap="square" stroke-miterlimit="3"/><clipPath id="_clipPath_i6j6nokN506BKTlaGH7z3DipRnuAWs0r"><path d=" M 580.36 115.119 L 552.718 115.119 Q 550.757 94.308 547.573 76.768 Q 546.755 72.258 518.43 67.637 L 492.929 69.463 L 485.643 69.463 L 476.536 58.506 L 65.326 58 C 33.612 63.221 3.467 153.495 5.06 213.735 C 6.547 269.948 10.848 321.219 65.326 358.007 L 465.607 354.354 L 481.705 341.571 Q 526.389 343.353 533.001 337.918 Q 537.496 334.225 536.644 299.568 L 576.717 299.568 L 580.36 306.872 L 585.824 306.872 Q 594.256 243.053 594.931 208.217 Q 595.617 172.861 589.467 107.814 L 585.824 107.814 L 580.36 115.119 Z " fill="none" vector-effect="non-scaling-stroke" stroke-width="1" stroke="rgb(0,0,0)" stroke-linejoin="miter" stroke-linecap="square" stroke-miterlimit="3"/></clipPath><g clip-path="url(#_clipPath_i6j6nokN506BKTlaGH7z3DipRnuAWs0r)"><path d=" M 527.361 113.293 Q 514.884 106.311 499.967 84.073 Q 511.754 79.839 518.43 80.421 Q 525.399 81.027 536.644 87.725 C 538.565 96.943 539.695 107.328 540.144 118.771 Q 531.633 115.683 527.361 113.293 Z " fill="none" vector-effect="non-scaling-stroke" stroke-width="1" stroke="rgb(0,0,0)" stroke-linejoin="miter" stroke-linecap="square" stroke-miterlimit="3"/><path d=" M 529.187 312.351 Q 528.974 308.462 527.361 301.394 Q 515.608 306.612 510.145 310.525 Q 502.685 315.868 492.929 328.787 L 527.361 328.787 Q 529.506 318.164 529.187 312.351 Z " fill="none" vector-effect="non-scaling-stroke" stroke-width="1" stroke="rgb(0,0,0)" stroke-linejoin="miter" stroke-linecap="square" stroke-miterlimit="3"/></g><path d=" M 580.36 115.119 L 552.718 115.119 Q 550.757 94.308 547.573 76.768 Q 546.755 72.258 518.43 67.637 L 492.929 69.463 L 485.643 69.463 L 476.536 58.506 L 65.326 58 C 33.612 63.221 3.467 153.495 5.06 213.735 C 6.547 269.948 10.848 321.219 65.326 358.007 L 465.607 354.354 L 481.705 341.571 Q 526.389 343.353 533.001 337.918 Q 537.496 334.225 536.644 299.568 L 576.717 299.568 L 580.36 306.872 L 585.824 306.872 Q 594.256 243.053 594.931 208.217 Q 595.617 172.861 589.467 107.814 L 585.824 107.814 L 580.36 115.119 Z " fill="transparent" vector-effect="non-scaling-stroke" stroke-width="1" stroke="rgb(0,0,0)" stroke-linejoin="miter" stroke-linecap="square" stroke-miterlimit="3"/><path d=" M 527.361 113.293 Q 514.884 106.311 499.967 84.073 Q 511.754 79.839 518.43 80.421 Q 525.399 81.027 536.644 87.725 C 538.565 96.943 539.695 107.328 540.144 118.771 Q 531.633 115.683 527.361 113.293 L 527.361 113.293 L 527.361 113.293 Z  M 580.36 115.119 L 552.718 115.119 Q 550.757 94.308 547.573 76.768 Q 546.755 72.258 518.43 67.637 L 492.929 69.463 L 485.643 69.463 L 476.536 58.506 L 65.326 58 C 33.612 63.221 3.467 153.495 5.06 213.735 C 6.547 269.948 10.848 321.219 65.326 358.007 L 465.607 354.354 L 481.705 341.571 Q 526.389 343.353 533.001 337.918 Q 537.496 334.225 536.644 299.568 L 556.68 299.568 L 576.717 299.568 L 580.36 306.872 L 585.824 306.872 Q 594.256 243.053 594.931 208.217 Q 595.617 172.861 589.467 107.814 L 585.824 107.814 L 580.36 115.119 L 580.36 115.119 L 580.36 115.119 Z  M 529.187 312.351 Q 528.974 308.462 527.361 301.394 Q 515.608 306.612 510.145 310.525 Q 502.685 315.868 492.929 328.787 L 527.361 328.787 Q 529.506 318.164 529.187 312.351 Z " fill-rule="evenodd" fill="rgb(255,255,255)" vector-effect="non-scaling-stroke" stroke-width="1" stroke="rgb(0,0,0)" stroke-linejoin="miter" stroke-linecap="square" stroke-miterlimit="3"/><g clip-path="url(#_clipPath_iY41xcSa3Pl8gERr4aRNGMVlU9NT6ugZ)"><text transform="matrix(1.374,0,0,1.374,23.739,226.384)" style="font-family:'Open Sans';font-weight:400;font-size:49px;font-style:normal;fill:#000000;stroke:none;">miranchito.digital</text></g><defs><clipPath id="_clipPath_iY41xcSa3Pl8gERr4aRNGMVlU9NT6ugZ"><rect x="0" y="0" width="402" height="66.729" transform="matrix(1.374,0,0,1.374,23.739,154.401)"/></clipPath></defs></g></g></svg>