<?xml version="1.0" encoding="UTF-8" standalone="no"?>
<!-- Generator: Gravit.io -->
<svg xmlns="http://www.w3.org/2000/svg" xmlns:xlink="http://www.w3.org/1999/xlink" style="isolation:isolate" viewBox="0 0 100 100" width="100pt" height="100pt"><defs><clipPath id="_clipPath_jb2jrfDhvvOQnVUT8FYDWK0OBXluLqic"><rect width="100" height="100"/></clipPath></defs><g clip-path="url(#_clipPath_jb2jrfDhvvOQnVUT8FYDWK0OBXluLqic)"><path d=" M 51.265 20.175 C 61.861 20.457 76.036 24.823 75.027 36.086 C 74.528 41.654 72.153 71.429 70.407 80.228 C 68.662 89.028 62.463 96.041 51.265 96.653 C 39.013 97.257 32.58 87.011 30.885 80.228 C 30.869 80.106 30.852 79.983 30.836 79.859 C 28.73 63.882 26.503 39.906 26.077 36.086 C 24.88 25.347 40.168 19.879 51.265 20.175 Z " fill="rgb(255,255,255)" vector-effect="non-scaling-stroke" stroke-width="4" stroke="rgb(0,0,0)" stroke-linejoin="miter" stroke-linecap="round" stroke-miterlimit="3"/><mask id="_mask_P2o2RRZOPPXcutVM1adrksHdrWwv2CBz"><circle vector-effect="non-scaling-stroke" cx="39.86724670901684" cy="45.582101997328756" r="4.362869874186728" fill="white" stroke="none"/></mask><circle vector-effect="non-scaling-stroke" cx="39.86724670901684" cy="45.582101997328756" r="4.362869874186728" fill="none"/><circle vector-effect="non-scaling-stroke" cx="39.86724670901684" cy="45.582101997328756" r="4.362869874186728" fill="none" mask="url(#_mask_P2o2RRZOPPXcutVM1adrksHdrWwv2CBz)" stroke-width="4" stroke="rgb(0,0,0)" stroke-linejoin="miter" stroke-linecap="round" stroke-miterlimit="3"/><mask id="_mask_5DQqrC9cFlbV0h8QwT1CtZbexEo73LHH"><circle vector-effect="non-scaling-stroke" cx="61.938235484314376" cy="45.582101997328735" r="4.362869874186725" fill="white" stroke="none"/></mask><circle vector-effect="non-scaling-stroke" cx="61.938235484314376" cy="45.582101997328735" r="4.362869874186725" fill="none"/><circle vector-effect="non-scaling-stroke" cx="61.938235484314376" cy="45.582101997328735" r="4.362869874186725" fill="none" mask="url(#_mask_5DQqrC9cFlbV0h8QwT1CtZbexEo73LHH)" stroke-width="4" stroke="rgb(0,0,0)" stroke-linejoin="miter" stroke-linecap="round" stroke-miterlimit="3"/><path d=" M 30.885 80.228 C 44.178 73.516 57.015 73.008 70.407 79.715" fill="none" vector-effect="non-scaling-stroke" stroke-width="4" stroke="rgb(0,0,0)" stroke-linejoin="miter" stroke-linecap="round" stroke-miterlimit="3"/><ellipse vector-effect="non-scaling-stroke" cx="45.76995300938711" cy="85.36120967373716" rx="1.5398364261835482" ry="1.7964758305474788" fill="rgb(0,0,0)"/><ellipse vector-effect="non-scaling-stroke" cx="56.035529183944135" cy="85.36120967373715" rx="1.5398364261835482" ry="1.7964758305474788" fill="rgb(0,0,0)"/><path d=" M 51.265 20.175 Q 34.478 21.372 32.938 4.263" fill="none" vector-effect="non-scaling-stroke" stroke-width="4" stroke="rgb(0,0,0)" stroke-linejoin="miter" stroke-linecap="round" stroke-miterlimit="3"/><path d=" M 25.752 35.06 Q 19.809 35.528 13.947 33.52 C 7.676 31.373 4.329 28.47 7.787 17.095 Q 7.841 16.918 30.885 25.821" fill="rgb(255,255,255)" vector-effect="non-scaling-stroke" stroke-width="4" stroke="rgb(0,0,0)" stroke-linejoin="miter" stroke-linecap="round" stroke-miterlimit="3"/><path d=" M 75.54 35.06 Q 81.483 35.528 87.346 33.52 C 93.616 31.373 96.963 28.47 93.505 17.095 Q 93.451 16.918 70.407 25.821" fill="rgb(255,255,255)" vector-effect="non-scaling-stroke" stroke-width="4" stroke="rgb(0,0,0)" stroke-linejoin="miter" stroke-linecap="round" stroke-miterlimit="3"/><path d=" M 51.265 20.175 Q 68.183 19.833 68.867 4.263" fill="none" vector-effect="non-scaling-stroke" stroke-width="4" stroke="rgb(0,0,0)" stroke-linejoin="miter" stroke-linecap="round" stroke-miterlimit="3"/></g></svg>