<?xml version="1.0" encoding="UTF-8" standalone="no"?>
<!-- Generator: Gravit.io -->
<svg xmlns="http://www.w3.org/2000/svg" xmlns:xlink="http://www.w3.org/1999/xlink" style="isolation:isolate" viewBox="0 0 100 100" width="100pt" height="100pt"><defs><clipPath id="_clipPath_PIo0blmt2rnE63tdf81G7xjGRw3hswyG"><rect width="100" height="100"/></clipPath></defs><g clip-path="url(#_clipPath_PIo0blmt2rnE63tdf81G7xjGRw3hswyG)"><path d=" M 77.394 52.407 C 82.275 52.534 88.804 54.491 88.34 59.54 C 88.11 62.035 87.016 75.383 86.212 79.327 C 85.408 83.272 82.553 86.416 77.394 86.69 C 71.751 86.961 68.788 82.368 68.007 79.327 C 67.999 79.273 67.992 79.217 67.984 79.162 C 67.014 72 65.989 61.252 65.792 59.54 C 65.241 54.726 72.283 52.275 77.394 52.407 Z " fill="rgb(255,255,255)" vector-effect="non-scaling-stroke" stroke-width="2" stroke="rgb(0,0,0)" stroke-linejoin="miter" stroke-linecap="round" stroke-miterlimit="3"/><mask id="_mask_HfZdNvAGhr15t8Afk78GLusjPcp1svnO"><ellipse vector-effect="non-scaling-stroke" cx="72.14427645489197" cy="63.796494174459596" rx="2.0096401151011776" ry="1.9557531971516369" fill="white" stroke="none"/></mask><ellipse vector-effect="non-scaling-stroke" cx="72.14427645489197" cy="63.796494174459596" rx="2.0096401151011776" ry="1.9557531971516369" fill="rgb(255,255,255)"/><ellipse vector-effect="non-scaling-stroke" cx="72.14427645489197" cy="63.796494174459596" rx="2.0096401151011776" ry="1.9557531971516369" fill="rgb(255,255,255)" mask="url(#_mask_HfZdNvAGhr15t8Afk78GLusjPcp1svnO)" stroke-width="4" stroke="rgb(0,0,0)" stroke-linejoin="miter" stroke-linecap="round" stroke-miterlimit="3"/><mask id="_mask_YBRPJcvwxcvZ7ae8ApxulsJP6kzAjtaI"><ellipse vector-effect="non-scaling-stroke" cx="82.31069115481559" cy="63.796494174459596" rx="2.0096401151011776" ry="1.9557531971516369" fill="white" stroke="none"/></mask><ellipse vector-effect="non-scaling-stroke" cx="82.31069115481559" cy="63.796494174459596" rx="2.0096401151011776" ry="1.9557531971516369" fill="rgb(255,255,255)"/><ellipse vector-effect="non-scaling-stroke" cx="82.31069115481559" cy="63.796494174459596" rx="2.0096401151011776" ry="1.9557531971516369" fill="rgb(255,255,255)" mask="url(#_mask_YBRPJcvwxcvZ7ae8ApxulsJP6kzAjtaI)" stroke-width="4" stroke="rgb(0,0,0)" stroke-linejoin="miter" stroke-linecap="round" stroke-miterlimit="3"/><path d=" M 68.007 79.327 C 74.13 76.318 80.043 76.091 86.212 79.097" fill="rgb(255,255,255)" vector-effect="non-scaling-stroke" stroke-width="2" stroke="rgb(0,0,0)" stroke-linejoin="miter" stroke-linecap="round" stroke-miterlimit="3"/><path d=" M 77.394 52.407 Q 69.662 52.944 68.952 45.274" fill="none" vector-effect="non-scaling-stroke" stroke-width="2" stroke="rgb(0,0,0)" stroke-linejoin="miter" stroke-linecap="round" stroke-miterlimit="3"/><path d=" M 65.642 59.08 Q 62.905 59.289 60.205 58.389 C 57.316 57.427 55.775 56.126 57.368 51.027 Q 57.392 50.947 68.007 54.938" fill="rgb(255,255,255)" vector-effect="non-scaling-stroke" stroke-width="2" stroke="rgb(0,0,0)" stroke-linejoin="miter" stroke-linecap="round" stroke-miterlimit="3"/><path d=" M 88.576 59.08 Q 91.314 59.289 94.014 58.389 C 96.902 57.427 98.444 56.126 96.851 51.027 Q 96.826 50.947 86.212 54.938" fill="rgb(255,255,255)" vector-effect="non-scaling-stroke" stroke-width="2" stroke="rgb(0,0,0)" stroke-linejoin="miter" stroke-linecap="round" stroke-miterlimit="3"/><path d=" M 77.394 52.407 Q 85.187 52.254 85.502 45.274" fill="none" vector-effect="non-scaling-stroke" stroke-width="2" stroke="rgb(0,0,0)" stroke-linejoin="miter" stroke-linecap="round" stroke-miterlimit="3"/><mask id="_mask_pizL0YtF0gT3khHPljdGTzjeYqY7GBFr"><ellipse vector-effect="non-scaling-stroke" cx="72.14427645489197" cy="63.796494174459596" rx="2.0096401151011776" ry="1.9557531971516369" fill="white" stroke="none"/></mask><ellipse vector-effect="non-scaling-stroke" cx="72.14427645489197" cy="63.796494174459596" rx="2.0096401151011776" ry="1.9557531971516369" fill="rgb(255,255,255)"/><ellipse vector-effect="non-scaling-stroke" cx="72.14427645489197" cy="63.796494174459596" rx="2.0096401151011776" ry="1.9557531971516369" fill="rgb(255,255,255)" mask="url(#_mask_pizL0YtF0gT3khHPljdGTzjeYqY7GBFr)" stroke-width="4" stroke="rgb(0,0,0)" stroke-linejoin="miter" stroke-linecap="round" stroke-miterlimit="3"/><mask id="_mask_GwV9VsTVSqASmhuGFxhUHFmyEIiwSZhq"><ellipse vector-effect="non-scaling-stroke" cx="82.31069115481559" cy="63.796494174459596" rx="2.0096401151011776" ry="1.9557531971516369" fill="white" stroke="none"/></mask><ellipse vector-effect="non-scaling-stroke" cx="82.31069115481559" cy="63.796494174459596" rx="2.0096401151011776" ry="1.9557531971516369" fill="rgb(255,255,255)"/><ellipse vector-effect="non-scaling-stroke" cx="82.31069115481559" cy="63.796494174459596" rx="2.0096401151011776" ry="1.9557531971516369" fill="rgb(255,255,255)" mask="url(#_mask_GwV9VsTVSqASmhuGFxhUHFmyEIiwSZhq)" stroke-width="4" stroke="rgb(0,0,0)" stroke-linejoin="miter" stroke-linecap="round" stroke-miterlimit="3"/><path d=" M 65.642 59.08 Q 62.905 59.289 60.205 58.389 C 57.316 57.427 55.775 56.126 57.368 51.027 Q 57.392 50.947 68.007 54.938" fill="rgb(255,255,255)" vector-effect="non-scaling-stroke" stroke-width="2" stroke="rgb(0,0,0)" stroke-linejoin="miter" stroke-linecap="round" stroke-miterlimit="3"/><path d=" M 88.576 59.08 Q 91.314 59.289 94.014 58.389 C 96.902 57.427 98.444 56.126 96.851 51.027 Q 96.826 50.947 86.212 54.938" fill="rgb(255,255,255)" vector-effect="non-scaling-stroke" stroke-width="2" stroke="rgb(0,0,0)" stroke-linejoin="miter" stroke-linecap="round" stroke-miterlimit="3"/><mask id="_mask_kb9hazrMO7r9U8JvOdhw8gB0bSpnZf7e"><ellipse vector-effect="non-scaling-stroke" cx="72.14427645489197" cy="63.796494174459596" rx="2.0096401151011776" ry="1.9557531971516369" fill="white" stroke="none"/></mask><ellipse vector-effect="non-scaling-stroke" cx="72.14427645489197" cy="63.796494174459596" rx="2.0096401151011776" ry="1.9557531971516369" fill="rgb(255,255,255)"/><ellipse vector-effect="non-scaling-stroke" cx="72.14427645489197" cy="63.796494174459596" rx="2.0096401151011776" ry="1.9557531971516369" fill="rgb(255,255,255)" mask="url(#_mask_kb9hazrMO7r9U8JvOdhw8gB0bSpnZf7e)" stroke-width="4" stroke="rgb(0,0,0)" stroke-linejoin="miter" stroke-linecap="round" stroke-miterlimit="3"/><mask id="_mask_eU0VjyHcxM82zYKDU1VWKGYSkOefhd7K"><ellipse vector-effect="non-scaling-stroke" cx="82.31069115481559" cy="63.796494174459596" rx="2.0096401151011776" ry="1.9557531971516369" fill="white" stroke="none"/></mask><ellipse vector-effect="non-scaling-stroke" cx="82.31069115481559" cy="63.796494174459596" rx="2.0096401151011776" ry="1.9557531971516369" fill="rgb(255,255,255)"/><ellipse vector-effect="non-scaling-stroke" cx="82.31069115481559" cy="63.796494174459596" rx="2.0096401151011776" ry="1.9557531971516369" fill="rgb(255,255,255)" mask="url(#_mask_eU0VjyHcxM82zYKDU1VWKGYSkOefhd7K)" stroke-width="4" stroke="rgb(0,0,0)" stroke-linejoin="miter" stroke-linecap="round" stroke-miterlimit="3"/><path d=" M 65.642 59.08 Q 62.905 59.289 60.205 58.389 C 57.316 57.427 55.775 56.126 57.368 51.027 Q 57.392 50.947 68.007 54.938" fill="rgb(255,255,255)" vector-effect="non-scaling-stroke" stroke-width="2" stroke="rgb(0,0,0)" stroke-linejoin="miter" stroke-linecap="round" stroke-miterlimit="3"/><path d=" M 88.576 59.08 Q 91.314 59.289 94.014 58.389 C 96.902 57.427 98.444 56.126 96.851 51.027 Q 96.826 50.947 86.212 54.938" fill="rgb(255,255,255)" vector-effect="non-scaling-stroke" stroke-width="2" stroke="rgb(0,0,0)" stroke-linejoin="miter" stroke-linecap="round" stroke-miterlimit="3"/><mask id="_mask_ILy2Vk4VWK6ZfY72ErvPRIBcd159xizo"><ellipse vector-effect="non-scaling-stroke" cx="72.14427645489197" cy="63.796494174459596" rx="2.0096401151011776" ry="1.9557531971516369" fill="white" stroke="none"/></mask><ellipse vector-effect="non-scaling-stroke" cx="72.14427645489197" cy="63.796494174459596" rx="2.0096401151011776" ry="1.9557531971516369" fill="rgb(255,255,255)"/><ellipse vector-effect="non-scaling-stroke" cx="72.14427645489197" cy="63.796494174459596" rx="2.0096401151011776" ry="1.9557531971516369" fill="rgb(255,255,255)" mask="url(#_mask_ILy2Vk4VWK6ZfY72ErvPRIBcd159xizo)" stroke-width="2" stroke="rgb(0,0,0)" stroke-linejoin="miter" stroke-linecap="round" stroke-miterlimit="3"/><mask id="_mask_QD2neZdJhNNV1EvbxSncx7kDIsO1Nbvv"><ellipse vector-effect="non-scaling-stroke" cx="82.31069115481559" cy="63.796494174459596" rx="2.0096401151011776" ry="1.9557531971516369" fill="white" stroke="none"/></mask><ellipse vector-effect="non-scaling-stroke" cx="82.31069115481559" cy="63.796494174459596" rx="2.0096401151011776" ry="1.9557531971516369" fill="rgb(255,255,255)"/><ellipse vector-effect="non-scaling-stroke" cx="82.31069115481559" cy="63.796494174459596" rx="2.0096401151011776" ry="1.9557531971516369" fill="rgb(255,255,255)" mask="url(#_mask_QD2neZdJhNNV1EvbxSncx7kDIsO1Nbvv)" stroke-width="2" stroke="rgb(0,0,0)" stroke-linejoin="miter" stroke-linecap="round" stroke-miterlimit="3"/><ellipse vector-effect="non-scaling-stroke" cx="74.86320131649934" cy="82.62836156025384" rx="0.7092847465062988" ry="0.8053101400036127" fill="rgb(0,0,0)"/><ellipse vector-effect="non-scaling-stroke" cx="79.591766293208" cy="82.62836156025384" rx="0.7092847465062988" ry="0.8053101400036127" fill="rgb(0,0,0)"/><path d=" M 65.642 59.08 Q 62.905 59.289 60.205 58.389 C 57.316 57.427 55.775 56.126 57.368 51.027 Q 57.392 50.947 68.007 54.938" fill="rgb(255,255,255)" vector-effect="non-scaling-stroke" stroke-width="2" stroke="rgb(0,0,0)" stroke-linejoin="miter" stroke-linecap="round" stroke-miterlimit="3"/><path d=" M 52.659 23.462 C 60.03 23.653 69.89 26.608 69.188 34.233 C 68.841 38.001 67.189 58.157 65.975 64.113 C 64.76 70.07 60.449 74.818 52.659 75.232 C 44.138 75.641 39.663 68.705 38.484 64.113 C 38.472 64.031 38.461 63.947 38.45 63.864 C 36.985 53.048 35.436 36.818 35.14 34.233 C 34.307 26.963 44.941 23.262 52.659 23.462 Z " fill="rgb(255,255,255)" vector-effect="non-scaling-stroke" stroke-width="2" stroke="rgb(0,0,0)" stroke-linejoin="miter" stroke-linecap="round" stroke-miterlimit="3"/><mask id="_mask_XTgEmis7gTYjKI4yO6oiqZo4Xmph9YYB"><ellipse vector-effect="non-scaling-stroke" cx="44.73168141669471" cy="40.66061097924714" rx="3.0346986393210997" ry="2.953325583842229" fill="white" stroke="none"/></mask><ellipse vector-effect="non-scaling-stroke" cx="44.73168141669471" cy="40.66061097924714" rx="3.0346986393210997" ry="2.953325583842229" fill="rgb(255,255,255)"/><ellipse vector-effect="non-scaling-stroke" cx="44.73168141669471" cy="40.66061097924714" rx="3.0346986393210997" ry="2.953325583842229" fill="rgb(255,255,255)" mask="url(#_mask_XTgEmis7gTYjKI4yO6oiqZo4Xmph9YYB)" stroke-width="4" stroke="rgb(0,0,0)" stroke-linejoin="miter" stroke-linecap="round" stroke-miterlimit="3"/><mask id="_mask_MxkT0ne5bLz7XziKiNeGpOv5KgAyrYlW"><ellipse vector-effect="non-scaling-stroke" cx="60.08368629796613" cy="40.66061097924714" rx="3.0346986393210997" ry="2.953325583842229" fill="white" stroke="none"/></mask><ellipse vector-effect="non-scaling-stroke" cx="60.08368629796613" cy="40.66061097924714" rx="3.0346986393210997" ry="2.953325583842229" fill="rgb(255,255,255)"/><ellipse vector-effect="non-scaling-stroke" cx="60.08368629796613" cy="40.66061097924714" rx="3.0346986393210997" ry="2.953325583842229" fill="rgb(255,255,255)" mask="url(#_mask_MxkT0ne5bLz7XziKiNeGpOv5KgAyrYlW)" stroke-width="4" stroke="rgb(0,0,0)" stroke-linejoin="miter" stroke-linecap="round" stroke-miterlimit="3"/><path d=" M 38.484 64.113 C 47.73 59.57 56.659 59.226 65.975 63.766" fill="rgb(255,255,255)" vector-effect="non-scaling-stroke" stroke-width="2" stroke="rgb(0,0,0)" stroke-linejoin="miter" stroke-linecap="round" stroke-miterlimit="3"/><path d=" M 52.659 23.462 Q 40.983 24.273 39.912 12.691" fill="none" vector-effect="non-scaling-stroke" stroke-width="2" stroke="rgb(0,0,0)" stroke-linejoin="miter" stroke-linecap="round" stroke-miterlimit="3"/><path d=" M 34.914 33.538 Q 30.78 33.854 26.702 32.496 C 22.34 31.042 20.012 29.077 22.418 21.377 Q 22.455 21.257 38.484 27.284" fill="rgb(255,255,255)" vector-effect="non-scaling-stroke" stroke-width="2" stroke="rgb(0,0,0)" stroke-linejoin="miter" stroke-linecap="round" stroke-miterlimit="3"/><path d=" M 69.545 33.538 Q 73.679 33.854 77.756 32.496 C 82.118 31.042 84.446 29.077 82.041 21.377 Q 82.003 21.257 65.975 27.284" fill="rgb(255,255,255)" vector-effect="non-scaling-stroke" stroke-width="2" stroke="rgb(0,0,0)" stroke-linejoin="miter" stroke-linecap="round" stroke-miterlimit="3"/><path d=" M 52.659 23.462 Q 64.427 23.23 64.904 12.691" fill="none" vector-effect="non-scaling-stroke" stroke-width="2" stroke="rgb(0,0,0)" stroke-linejoin="miter" stroke-linecap="round" stroke-miterlimit="3"/><mask id="_mask_sV8ggMXNlyTELFeI36zGiGYA56Sf1Whe"><ellipse vector-effect="non-scaling-stroke" cx="44.73168141669471" cy="40.66061097924714" rx="3.0346986393210997" ry="2.953325583842229" fill="white" stroke="none"/></mask><ellipse vector-effect="non-scaling-stroke" cx="44.73168141669471" cy="40.66061097924714" rx="3.0346986393210997" ry="2.953325583842229" fill="rgb(255,255,255)"/><ellipse vector-effect="non-scaling-stroke" cx="44.73168141669471" cy="40.66061097924714" rx="3.0346986393210997" ry="2.953325583842229" fill="rgb(255,255,255)" mask="url(#_mask_sV8ggMXNlyTELFeI36zGiGYA56Sf1Whe)" stroke-width="4" stroke="rgb(0,0,0)" stroke-linejoin="miter" stroke-linecap="round" stroke-miterlimit="3"/><mask id="_mask_99jygJWKIz6hGCFZDhlyGOqjnMROy3xf"><ellipse vector-effect="non-scaling-stroke" cx="60.08368629796613" cy="40.66061097924714" rx="3.0346986393210997" ry="2.953325583842229" fill="white" stroke="none"/></mask><ellipse vector-effect="non-scaling-stroke" cx="60.08368629796613" cy="40.66061097924714" rx="3.0346986393210997" ry="2.953325583842229" fill="rgb(255,255,255)"/><ellipse vector-effect="non-scaling-stroke" cx="60.08368629796613" cy="40.66061097924714" rx="3.0346986393210997" ry="2.953325583842229" fill="rgb(255,255,255)" mask="url(#_mask_99jygJWKIz6hGCFZDhlyGOqjnMROy3xf)" stroke-width="4" stroke="rgb(0,0,0)" stroke-linejoin="miter" stroke-linecap="round" stroke-miterlimit="3"/><path d=" M 34.914 33.538 Q 30.78 33.854 26.702 32.496 C 22.34 31.042 20.012 29.077 22.418 21.377 Q 22.455 21.257 38.484 27.284" fill="rgb(255,255,255)" vector-effect="non-scaling-stroke" stroke-width="2" stroke="rgb(0,0,0)" stroke-linejoin="miter" stroke-linecap="round" stroke-miterlimit="3"/><path d=" M 69.545 33.538 Q 73.679 33.854 77.756 32.496 C 82.118 31.042 84.446 29.077 82.041 21.377 Q 82.003 21.257 65.975 27.284" fill="rgb(255,255,255)" vector-effect="non-scaling-stroke" stroke-width="2" stroke="rgb(0,0,0)" stroke-linejoin="miter" stroke-linecap="round" stroke-miterlimit="3"/><mask id="_mask_37i3tJRpNi8DzJ85QCMidRPw6EX5k1zH"><ellipse vector-effect="non-scaling-stroke" cx="44.73168141669471" cy="40.66061097924714" rx="3.0346986393210997" ry="2.953325583842229" fill="white" stroke="none"/></mask><ellipse vector-effect="non-scaling-stroke" cx="44.73168141669471" cy="40.66061097924714" rx="3.0346986393210997" ry="2.953325583842229" fill="rgb(255,255,255)"/><ellipse vector-effect="non-scaling-stroke" cx="44.73168141669471" cy="40.66061097924714" rx="3.0346986393210997" ry="2.953325583842229" fill="rgb(255,255,255)" mask="url(#_mask_37i3tJRpNi8DzJ85QCMidRPw6EX5k1zH)" stroke-width="4" stroke="rgb(0,0,0)" stroke-linejoin="miter" stroke-linecap="round" stroke-miterlimit="3"/><mask id="_mask_xiX0q76tkLeyptrElvvU9oKTjOVcUb4l"><ellipse vector-effect="non-scaling-stroke" cx="60.08368629796613" cy="40.66061097924714" rx="3.0346986393210997" ry="2.953325583842229" fill="white" stroke="none"/></mask><ellipse vector-effect="non-scaling-stroke" cx="60.08368629796613" cy="40.66061097924714" rx="3.0346986393210997" ry="2.953325583842229" fill="rgb(255,255,255)"/><ellipse vector-effect="non-scaling-stroke" cx="60.08368629796613" cy="40.66061097924714" rx="3.0346986393210997" ry="2.953325583842229" fill="rgb(255,255,255)" mask="url(#_mask_xiX0q76tkLeyptrElvvU9oKTjOVcUb4l)" stroke-width="4" stroke="rgb(0,0,0)" stroke-linejoin="miter" stroke-linecap="round" stroke-miterlimit="3"/><path d=" M 34.914 33.538 Q 30.78 33.854 26.702 32.496 C 22.34 31.042 20.012 29.077 22.418 21.377 Q 22.455 21.257 38.484 27.284" fill="rgb(255,255,255)" vector-effect="non-scaling-stroke" stroke-width="2" stroke="rgb(0,0,0)" stroke-linejoin="miter" stroke-linecap="round" stroke-miterlimit="3"/><path d=" M 69.545 33.538 Q 73.679 33.854 77.756 32.496 C 82.118 31.042 84.446 29.077 82.041 21.377 Q 82.003 21.257 65.975 27.284" fill="rgb(255,255,255)" vector-effect="non-scaling-stroke" stroke-width="2" stroke="rgb(0,0,0)" stroke-linejoin="miter" stroke-linecap="round" stroke-miterlimit="3"/><mask id="_mask_CLYoRvULxaaOTuwXpL1auHAoOdv3AK8O"><ellipse vector-effect="non-scaling-stroke" cx="44.73168141669471" cy="40.66061097924714" rx="3.0346986393210997" ry="2.953325583842229" fill="white" stroke="none"/></mask><ellipse vector-effect="non-scaling-stroke" cx="44.73168141669471" cy="40.66061097924714" rx="3.0346986393210997" ry="2.953325583842229" fill="rgb(255,255,255)"/><ellipse vector-effect="non-scaling-stroke" cx="44.73168141669471" cy="40.66061097924714" rx="3.0346986393210997" ry="2.953325583842229" fill="rgb(255,255,255)" mask="url(#_mask_CLYoRvULxaaOTuwXpL1auHAoOdv3AK8O)" stroke-width="4" stroke="rgb(0,0,0)" stroke-linejoin="miter" stroke-linecap="round" stroke-miterlimit="3"/><mask id="_mask_qRBA72NvbIRXasab6HavQpKN6bslgHwv"><ellipse vector-effect="non-scaling-stroke" cx="60.08368629796613" cy="40.66061097924714" rx="3.0346986393210997" ry="2.953325583842229" fill="white" stroke="none"/></mask><ellipse vector-effect="non-scaling-stroke" cx="60.08368629796613" cy="40.66061097924714" rx="3.0346986393210997" ry="2.953325583842229" fill="rgb(255,255,255)"/><ellipse vector-effect="non-scaling-stroke" cx="60.08368629796613" cy="40.66061097924714" rx="3.0346986393210997" ry="2.953325583842229" fill="rgb(255,255,255)" mask="url(#_mask_qRBA72NvbIRXasab6HavQpKN6bslgHwv)" stroke-width="4" stroke="rgb(0,0,0)" stroke-linejoin="miter" stroke-linecap="round" stroke-miterlimit="3"/><ellipse vector-effect="non-scaling-stroke" cx="48.83745016401135" cy="67.66712142220334" rx="1.0710701079956806" ry="1.2160752404056296" fill="rgb(0,0,0)"/><ellipse vector-effect="non-scaling-stroke" cx="55.97791755064918" cy="67.74386057889592" rx="1.0710701079956806" ry="1.2160752404056296" fill="rgb(0,0,0)"/><path d=" M 34.914 33.538 Q 30.78 33.854 26.702 32.496 C 22.34 31.042 20.012 29.077 22.418 21.377 Q 22.455 21.257 38.484 27.284" fill="rgb(255,255,255)" vector-effect="non-scaling-stroke" stroke-width="2" stroke="rgb(0,0,0)" stroke-linejoin="miter" stroke-linecap="round" stroke-miterlimit="3"/><path d=" M 69.545 33.538 Q 73.679 33.854 77.756 32.496 C 82.118 31.042 84.446 29.077 82.041 21.377 Q 82.003 21.257 65.975 27.284" fill="rgb(255,255,255)" vector-effect="non-scaling-stroke" stroke-width="2" stroke="rgb(0,0,0)" stroke-linejoin="miter" stroke-linecap="round" stroke-miterlimit="3"/><path d=" M 22.627 52.407 C 27.508 52.534 34.037 54.491 33.573 59.54 C 33.343 62.035 32.249 75.383 31.445 79.327 C 30.641 83.272 27.786 86.416 22.627 86.69 C 16.984 86.961 14.021 82.368 13.24 79.327 C 13.232 79.273 13.225 79.217 13.217 79.162 C 12.247 72 11.222 61.252 11.025 59.54 C 10.474 54.726 17.516 52.275 22.627 52.407 Z " fill="rgb(255,255,255)" vector-effect="non-scaling-stroke" stroke-width="2" stroke="rgb(0,0,0)" stroke-linejoin="miter" stroke-linecap="round" stroke-miterlimit="3"/><mask id="_mask_Z5IOoW54TAkVbyl302pIyj1i9SgCmMEZ"><ellipse vector-effect="non-scaling-stroke" cx="17.377188818903672" cy="63.796494174459596" rx="2.009640115101182" ry="1.9557531971516369" fill="white" stroke="none"/></mask><ellipse vector-effect="non-scaling-stroke" cx="17.377188818903672" cy="63.796494174459596" rx="2.009640115101182" ry="1.9557531971516369" fill="rgb(255,255,255)"/><ellipse vector-effect="non-scaling-stroke" cx="17.377188818903672" cy="63.796494174459596" rx="2.009640115101182" ry="1.9557531971516369" fill="rgb(255,255,255)" mask="url(#_mask_Z5IOoW54TAkVbyl302pIyj1i9SgCmMEZ)" stroke-width="4" stroke="rgb(0,0,0)" stroke-linejoin="miter" stroke-linecap="round" stroke-miterlimit="3"/><mask id="_mask_jcwmW4YzelBqGxvSv8jCGFSyhOwnuYB8"><ellipse vector-effect="non-scaling-stroke" cx="27.543603518827275" cy="63.796494174459596" rx="2.009640115101181" ry="1.9557531971516369" fill="white" stroke="none"/></mask><ellipse vector-effect="non-scaling-stroke" cx="27.543603518827275" cy="63.796494174459596" rx="2.009640115101181" ry="1.9557531971516369" fill="rgb(255,255,255)"/><ellipse vector-effect="non-scaling-stroke" cx="27.543603518827275" cy="63.796494174459596" rx="2.009640115101181" ry="1.9557531971516369" fill="rgb(255,255,255)" mask="url(#_mask_jcwmW4YzelBqGxvSv8jCGFSyhOwnuYB8)" stroke-width="4" stroke="rgb(0,0,0)" stroke-linejoin="miter" stroke-linecap="round" stroke-miterlimit="3"/><path d=" M 13.24 79.327 C 19.363 76.318 25.276 76.091 31.445 79.097" fill="rgb(255,255,255)" vector-effect="non-scaling-stroke" stroke-width="2" stroke="rgb(0,0,0)" stroke-linejoin="miter" stroke-linecap="round" stroke-miterlimit="3"/><path d=" M 22.627 52.407 Q 14.895 52.944 14.185 45.274" fill="none" vector-effect="non-scaling-stroke" stroke-width="2" stroke="rgb(0,0,0)" stroke-linejoin="miter" stroke-linecap="round" stroke-miterlimit="3"/><path d=" M 10.875 59.08 Q 8.138 59.289 5.438 58.389 C 2.549 57.427 1.008 56.126 2.6 51.027 Q 2.625 50.947 13.24 54.938" fill="rgb(255,255,255)" vector-effect="non-scaling-stroke" stroke-width="2" stroke="rgb(0,0,0)" stroke-linejoin="miter" stroke-linecap="round" stroke-miterlimit="3"/><path d=" M 33.809 59.08 Q 36.546 59.289 39.247 58.389 C 42.135 57.427 43.677 56.126 42.084 51.027 Q 42.059 50.947 31.445 54.938" fill="rgb(255,255,255)" vector-effect="non-scaling-stroke" stroke-width="2" stroke="rgb(0,0,0)" stroke-linejoin="miter" stroke-linecap="round" stroke-miterlimit="3"/><path d=" M 22.627 52.407 Q 30.42 52.254 30.735 45.274" fill="none" vector-effect="non-scaling-stroke" stroke-width="2" stroke="rgb(0,0,0)" stroke-linejoin="miter" stroke-linecap="round" stroke-miterlimit="3"/><mask id="_mask_u4VrzCYpCsMgUYPirkKrZcVm9kxbHHmd"><ellipse vector-effect="non-scaling-stroke" cx="17.377188818903672" cy="63.796494174459596" rx="2.009640115101182" ry="1.9557531971516369" fill="white" stroke="none"/></mask><ellipse vector-effect="non-scaling-stroke" cx="17.377188818903672" cy="63.796494174459596" rx="2.009640115101182" ry="1.9557531971516369" fill="rgb(255,255,255)"/><ellipse vector-effect="non-scaling-stroke" cx="17.377188818903672" cy="63.796494174459596" rx="2.009640115101182" ry="1.9557531971516369" fill="rgb(255,255,255)" mask="url(#_mask_u4VrzCYpCsMgUYPirkKrZcVm9kxbHHmd)" stroke-width="4" stroke="rgb(0,0,0)" stroke-linejoin="miter" stroke-linecap="round" stroke-miterlimit="3"/><mask id="_mask_TbpbHA7skUlLNhTuUakdbP4oj9Tstzb8"><ellipse vector-effect="non-scaling-stroke" cx="27.543603518827275" cy="63.796494174459596" rx="2.009640115101181" ry="1.9557531971516369" fill="white" stroke="none"/></mask><ellipse vector-effect="non-scaling-stroke" cx="27.543603518827275" cy="63.796494174459596" rx="2.009640115101181" ry="1.9557531971516369" fill="rgb(255,255,255)"/><ellipse vector-effect="non-scaling-stroke" cx="27.543603518827275" cy="63.796494174459596" rx="2.009640115101181" ry="1.9557531971516369" fill="rgb(255,255,255)" mask="url(#_mask_TbpbHA7skUlLNhTuUakdbP4oj9Tstzb8)" stroke-width="4" stroke="rgb(0,0,0)" stroke-linejoin="miter" stroke-linecap="round" stroke-miterlimit="3"/><path d=" M 10.875 59.08 Q 8.138 59.289 5.438 58.389 C 2.549 57.427 1.008 56.126 2.6 51.027 Q 2.625 50.947 13.24 54.938" fill="rgb(255,255,255)" vector-effect="non-scaling-stroke" stroke-width="2" stroke="rgb(0,0,0)" stroke-linejoin="miter" stroke-linecap="round" stroke-miterlimit="3"/><path d=" M 33.809 59.08 Q 36.546 59.289 39.247 58.389 C 42.135 57.427 43.677 56.126 42.084 51.027 Q 42.059 50.947 31.445 54.938" fill="rgb(255,255,255)" vector-effect="non-scaling-stroke" stroke-width="2" stroke="rgb(0,0,0)" stroke-linejoin="miter" stroke-linecap="round" stroke-miterlimit="3"/><mask id="_mask_0eZG0nj1FSx6yjuGQONrECMzpCLq0kLx"><ellipse vector-effect="non-scaling-stroke" cx="17.377188818903672" cy="63.796494174459596" rx="2.009640115101182" ry="1.9557531971516369" fill="white" stroke="none"/></mask><ellipse vector-effect="non-scaling-stroke" cx="17.377188818903672" cy="63.796494174459596" rx="2.009640115101182" ry="1.9557531971516369" fill="rgb(255,255,255)"/><ellipse vector-effect="non-scaling-stroke" cx="17.377188818903672" cy="63.796494174459596" rx="2.009640115101182" ry="1.9557531971516369" fill="rgb(255,255,255)" mask="url(#_mask_0eZG0nj1FSx6yjuGQONrECMzpCLq0kLx)" stroke-width="4" stroke="rgb(0,0,0)" stroke-linejoin="miter" stroke-linecap="round" stroke-miterlimit="3"/><mask id="_mask_HHQ5CYBsk9xazjblOhC1kKgTEaHIeBq5"><ellipse vector-effect="non-scaling-stroke" cx="27.543603518827275" cy="63.796494174459596" rx="2.009640115101181" ry="1.9557531971516369" fill="white" stroke="none"/></mask><ellipse vector-effect="non-scaling-stroke" cx="27.543603518827275" cy="63.796494174459596" rx="2.009640115101181" ry="1.9557531971516369" fill="rgb(255,255,255)"/><ellipse vector-effect="non-scaling-stroke" cx="27.543603518827275" cy="63.796494174459596" rx="2.009640115101181" ry="1.9557531971516369" fill="rgb(255,255,255)" mask="url(#_mask_HHQ5CYBsk9xazjblOhC1kKgTEaHIeBq5)" stroke-width="4" stroke="rgb(0,0,0)" stroke-linejoin="miter" stroke-linecap="round" stroke-miterlimit="3"/><path d=" M 10.875 59.08 Q 8.138 59.289 5.438 58.389 C 2.549 57.427 1.008 56.126 2.6 51.027 Q 2.625 50.947 13.24 54.938" fill="rgb(255,255,255)" vector-effect="non-scaling-stroke" stroke-width="2" stroke="rgb(0,0,0)" stroke-linejoin="miter" stroke-linecap="round" stroke-miterlimit="3"/><path d=" M 33.809 59.08 Q 36.546 59.289 39.247 58.389 C 42.135 57.427 43.677 56.126 42.084 51.027 Q 42.059 50.947 31.445 54.938" fill="rgb(255,255,255)" vector-effect="non-scaling-stroke" stroke-width="2" stroke="rgb(0,0,0)" stroke-linejoin="miter" stroke-linecap="round" stroke-miterlimit="3"/><mask id="_mask_xBAT78cd1VNuXeF4B9ukR8WD0yTif6vq"><ellipse vector-effect="non-scaling-stroke" cx="17.377188818903672" cy="63.796494174459596" rx="2.009640115101182" ry="1.9557531971516369" fill="white" stroke="none"/></mask><ellipse vector-effect="non-scaling-stroke" cx="17.377188818903672" cy="63.796494174459596" rx="2.009640115101182" ry="1.9557531971516369" fill="rgb(255,255,255)"/><ellipse vector-effect="non-scaling-stroke" cx="17.377188818903672" cy="63.796494174459596" rx="2.009640115101182" ry="1.9557531971516369" fill="rgb(255,255,255)" mask="url(#_mask_xBAT78cd1VNuXeF4B9ukR8WD0yTif6vq)" stroke-width="2" stroke="rgb(0,0,0)" stroke-linejoin="miter" stroke-linecap="round" stroke-miterlimit="3"/><mask id="_mask_K14rRrHX2mketwTrQRWXPoYq6kLlVTfF"><ellipse vector-effect="non-scaling-stroke" cx="27.543603518827275" cy="63.796494174459596" rx="2.009640115101181" ry="1.9557531971516369" fill="white" stroke="none"/></mask><ellipse vector-effect="non-scaling-stroke" cx="27.543603518827275" cy="63.796494174459596" rx="2.009640115101181" ry="1.9557531971516369" fill="rgb(255,255,255)"/><ellipse vector-effect="non-scaling-stroke" cx="27.543603518827275" cy="63.796494174459596" rx="2.009640115101181" ry="1.9557531971516369" fill="rgb(255,255,255)" mask="url(#_mask_K14rRrHX2mketwTrQRWXPoYq6kLlVTfF)" stroke-width="2" stroke="rgb(0,0,0)" stroke-linejoin="miter" stroke-linecap="round" stroke-miterlimit="3"/><ellipse vector-effect="non-scaling-stroke" cx="20.634414272807234" cy="82.35357878686615" rx="0.7092847465062988" ry="0.8053101400036127" fill="rgb(0,0,0)"/><ellipse vector-effect="non-scaling-stroke" cx="24.40430303858238" cy="82.16116764741065" rx="0.7092847465062988" ry="0.8053101400036127" fill="rgb(0,0,0)"/><path d=" M 10.875 59.08 Q 8.138 59.289 5.438 58.389 C 2.549 57.427 1.008 56.126 2.6 51.027 Q 2.625 50.947 13.24 54.938" fill="rgb(255,255,255)" vector-effect="non-scaling-stroke" stroke-width="2" stroke="rgb(0,0,0)" stroke-linejoin="miter" stroke-linecap="round" stroke-miterlimit="3"/><path d=" M 33.809 59.08 Q 36.546 59.289 39.247 58.389 C 42.135 57.427 43.677 56.126 42.084 51.027 Q 42.059 50.947 31.445 54.938" fill="rgb(255,255,255)" vector-effect="non-scaling-stroke" stroke-width="2" stroke="rgb(0,0,0)" stroke-linejoin="miter" stroke-linecap="round" stroke-miterlimit="3"/></g></svg>