<?xml version="1.0" encoding="UTF-8" standalone="no"?>
<!-- Generator: Gravit.io -->
<svg xmlns="http://www.w3.org/2000/svg" xmlns:xlink="http://www.w3.org/1999/xlink" style="isolation:isolate" viewBox="0 0 100 100" width="100pt" height="100pt"><defs><clipPath id="_clipPath_Mr0z216TRope8zNK3wBqvVBJWPVFB4sW"><rect width="100" height="100"/></clipPath></defs><g clip-path="url(#_clipPath_Mr0z216TRope8zNK3wBqvVBJWPVFB4sW)"><g><g><g><g><g><path d=" M 76.903 51.705 C 81.784 51.832 88.313 53.789 87.848 58.838 C 87.619 61.334 86.525 74.681 85.721 78.626 C 84.917 82.57 82.061 85.714 76.903 85.989 C 71.26 86.259 68.297 81.666 67.516 78.626 C 67.508 78.571 67.501 78.516 67.493 78.46 C 66.523 71.298 65.497 60.55 65.301 58.838 C 64.749 54.024 71.791 51.573 76.903 51.705 Z " fill="rgb(255,255,255)" vector-effect="non-scaling-stroke" stroke-width="2" stroke="rgb(0,0,0)" stroke-linejoin="miter" stroke-linecap="round" stroke-miterlimit="3"/><mask id="_mask_6kCRF6GOBIg6Oqs9GF2EkI6HB2QT4qzj"><ellipse vector-effect="non-scaling-stroke" cx="71.65304838471648" cy="63.09473978849469" rx="2.0096401151011776" ry="1.9557531971516369" fill="white" stroke="none"/></mask><ellipse vector-effect="non-scaling-stroke" cx="71.65304838471648" cy="63.09473978849469" rx="2.0096401151011776" ry="1.9557531971516369" fill="rgb(255,255,255)"/><ellipse vector-effect="non-scaling-stroke" cx="71.65304838471648" cy="63.09473978849469" rx="2.0096401151011776" ry="1.9557531971516369" fill="rgb(255,255,255)" mask="url(#_mask_6kCRF6GOBIg6Oqs9GF2EkI6HB2QT4qzj)" stroke-width="4" stroke="rgb(0,0,0)" stroke-linejoin="miter" stroke-linecap="round" stroke-miterlimit="3"/><mask id="_mask_WgnvhVf3sFhfoblx90BAARy8OEXYdnj4"><ellipse vector-effect="non-scaling-stroke" cx="81.8194630846401" cy="63.09473978849469" rx="2.0096401151011776" ry="1.9557531971516369" fill="white" stroke="none"/></mask><ellipse vector-effect="non-scaling-stroke" cx="81.8194630846401" cy="63.09473978849469" rx="2.0096401151011776" ry="1.9557531971516369" fill="rgb(255,255,255)"/><ellipse vector-effect="non-scaling-stroke" cx="81.8194630846401" cy="63.09473978849469" rx="2.0096401151011776" ry="1.9557531971516369" fill="rgb(255,255,255)" mask="url(#_mask_WgnvhVf3sFhfoblx90BAARy8OEXYdnj4)" stroke-width="4" stroke="rgb(0,0,0)" stroke-linejoin="miter" stroke-linecap="round" stroke-miterlimit="3"/><path d=" M 67.516 78.626 C 73.639 75.617 79.552 75.389 85.721 78.396" fill="rgb(255,255,255)" vector-effect="non-scaling-stroke" stroke-width="2" stroke="rgb(0,0,0)" stroke-linejoin="miter" stroke-linecap="round" stroke-miterlimit="3"/><ellipse vector-effect="non-scaling-stroke" cx="74.37197324632389" cy="80.92660717428899" rx="0.7092847465062988" ry="0.8053101400036127" fill="rgb(0,0,0)"/><ellipse vector-effect="non-scaling-stroke" cx="74.37197324632389" cy="80.92660717428899" rx="0.7092847465062988" ry="0.8053101400036127" fill="rgb(255,255,255)"/><ellipse vector-effect="non-scaling-stroke" cx="79.10053822303253" cy="80.92660717428899" rx="0.7092847465062988" ry="0.8053101400036127" fill="rgb(0,0,0)"/><ellipse vector-effect="non-scaling-stroke" cx="79.10053822303253" cy="80.92660717428899" rx="0.7092847465062988" ry="0.8053101400036127" fill="rgb(255,255,255)"/><path d=" M 76.903 51.705 Q 69.171 52.242 68.461 44.573" fill="rgb(255,255,255)" vector-effect="non-scaling-stroke" stroke-width="2" stroke="rgb(0,0,0)" stroke-linejoin="miter" stroke-linecap="round" stroke-miterlimit="3"/><path d=" M 65.151 58.378 Q 62.414 58.588 59.713 57.688 C 56.825 56.725 55.283 55.424 56.876 50.325 Q 56.901 50.246 67.516 54.236" fill="rgb(255,255,255)" vector-effect="non-scaling-stroke" stroke-width="2" stroke="rgb(0,0,0)" stroke-linejoin="miter" stroke-linecap="round" stroke-miterlimit="3"/><path d=" M 88.085 58.378 Q 90.822 58.588 93.523 57.688 C 96.411 56.725 97.953 55.424 96.36 50.325 Q 96.335 50.246 85.721 54.236" fill="rgb(255,255,255)" vector-effect="non-scaling-stroke" stroke-width="2" stroke="rgb(0,0,0)" stroke-linejoin="miter" stroke-linecap="round" stroke-miterlimit="3"/><path d=" M 76.903 51.705 Q 84.696 51.552 85.011 44.573" fill="rgb(255,255,255)" vector-effect="non-scaling-stroke" stroke-width="2" stroke="rgb(0,0,0)" stroke-linejoin="miter" stroke-linecap="round" stroke-miterlimit="3"/></g><g><path d=" M 76.903 51.705 C 81.784 51.832 88.313 53.789 87.848 58.838 C 87.619 61.334 86.525 74.681 85.721 78.626 C 84.917 82.57 82.061 85.714 76.903 85.989 C 71.26 86.259 68.297 81.666 67.516 78.626 C 67.508 78.571 67.501 78.516 67.493 78.46 C 66.523 71.298 65.497 60.55 65.301 58.838 C 64.749 54.024 71.791 51.573 76.903 51.705 Z " fill="rgb(255,255,255)" vector-effect="non-scaling-stroke" stroke-width="2" stroke="rgb(0,0,0)" stroke-linejoin="miter" stroke-linecap="round" stroke-miterlimit="3"/><mask id="_mask_QvBVsy2YG3e166llxMDjAaBA50D9rYyp"><ellipse vector-effect="non-scaling-stroke" cx="71.65304838471648" cy="63.09473978849469" rx="2.0096401151011776" ry="1.9557531971516369" fill="white" stroke="none"/></mask><ellipse vector-effect="non-scaling-stroke" cx="71.65304838471648" cy="63.09473978849469" rx="2.0096401151011776" ry="1.9557531971516369" fill="rgb(255,255,255)"/><ellipse vector-effect="non-scaling-stroke" cx="71.65304838471648" cy="63.09473978849469" rx="2.0096401151011776" ry="1.9557531971516369" fill="rgb(255,255,255)" mask="url(#_mask_QvBVsy2YG3e166llxMDjAaBA50D9rYyp)" stroke-width="4" stroke="rgb(0,0,0)" stroke-linejoin="miter" stroke-linecap="round" stroke-miterlimit="3"/><mask id="_mask_NYIyyhFXFy1LESTwybaxfEciho56buYm"><ellipse vector-effect="non-scaling-stroke" cx="81.8194630846401" cy="63.09473978849469" rx="2.0096401151011776" ry="1.9557531971516369" fill="white" stroke="none"/></mask><ellipse vector-effect="non-scaling-stroke" cx="81.8194630846401" cy="63.09473978849469" rx="2.0096401151011776" ry="1.9557531971516369" fill="rgb(255,255,255)"/><ellipse vector-effect="non-scaling-stroke" cx="81.8194630846401" cy="63.09473978849469" rx="2.0096401151011776" ry="1.9557531971516369" fill="rgb(255,255,255)" mask="url(#_mask_NYIyyhFXFy1LESTwybaxfEciho56buYm)" stroke-width="4" stroke="rgb(0,0,0)" stroke-linejoin="miter" stroke-linecap="round" stroke-miterlimit="3"/><path d=" M 67.516 78.626 C 73.639 75.617 79.552 75.389 85.721 78.396" fill="rgb(255,255,255)" vector-effect="non-scaling-stroke" stroke-width="2" stroke="rgb(0,0,0)" stroke-linejoin="miter" stroke-linecap="round" stroke-miterlimit="3"/><ellipse vector-effect="non-scaling-stroke" cx="74.37197324632389" cy="80.92660717428899" rx="0.7092847465062988" ry="0.8053101400036127" fill="rgb(0,0,0)"/><ellipse vector-effect="non-scaling-stroke" cx="74.37197324632389" cy="80.92660717428899" rx="0.7092847465062988" ry="0.8053101400036127" fill="rgb(255,255,255)"/><ellipse vector-effect="non-scaling-stroke" cx="79.10053822303253" cy="80.92660717428899" rx="0.7092847465062988" ry="0.8053101400036127" fill="rgb(0,0,0)"/><ellipse vector-effect="non-scaling-stroke" cx="79.10053822303253" cy="80.92660717428899" rx="0.7092847465062988" ry="0.8053101400036127" fill="rgb(255,255,255)"/><path d=" M 76.903 51.705 Q 69.171 52.242 68.461 44.573" fill="rgb(255,255,255)" vector-effect="non-scaling-stroke" stroke-width="2" stroke="rgb(0,0,0)" stroke-linejoin="miter" stroke-linecap="round" stroke-miterlimit="3"/><path d=" M 65.151 58.378 Q 62.414 58.588 59.713 57.688 C 56.825 56.725 55.283 55.424 56.876 50.325 Q 56.901 50.246 67.516 54.236" fill="rgb(255,255,255)" vector-effect="non-scaling-stroke" stroke-width="2" stroke="rgb(0,0,0)" stroke-linejoin="miter" stroke-linecap="round" stroke-miterlimit="3"/><path d=" M 88.085 58.378 Q 90.822 58.588 93.523 57.688 C 96.411 56.725 97.953 55.424 96.36 50.325 Q 96.335 50.246 85.721 54.236" fill="rgb(255,255,255)" vector-effect="non-scaling-stroke" stroke-width="2" stroke="rgb(0,0,0)" stroke-linejoin="miter" stroke-linecap="round" stroke-miterlimit="3"/><path d=" M 76.903 51.705 Q 84.696 51.552 85.011 44.573" fill="rgb(255,255,255)" vector-effect="non-scaling-stroke" stroke-width="2" stroke="rgb(0,0,0)" stroke-linejoin="miter" stroke-linecap="round" stroke-miterlimit="3"/><path d=" M 76.903 51.705 C 81.784 51.832 88.313 53.789 87.848 58.838 C 87.619 61.334 86.525 74.681 85.721 78.626 C 84.917 82.57 82.061 85.714 76.903 85.989 C 71.26 86.259 68.297 81.666 67.516 78.626 C 67.508 78.571 67.501 78.516 67.493 78.46 C 66.523 71.298 65.497 60.55 65.301 58.838 C 64.749 54.024 71.791 51.573 76.903 51.705 Z " fill="rgb(255,255,255)" vector-effect="non-scaling-stroke" stroke-width="2" stroke="rgb(0,0,0)" stroke-linejoin="miter" stroke-linecap="round" stroke-miterlimit="3"/><mask id="_mask_D9F59Czlq1nyvBjbFLEV1HEYPr4YGX6s"><ellipse vector-effect="non-scaling-stroke" cx="71.65304838471648" cy="63.09473978849469" rx="2.0096401151011776" ry="1.9557531971516369" fill="white" stroke="none"/></mask><ellipse vector-effect="non-scaling-stroke" cx="71.65304838471648" cy="63.09473978849469" rx="2.0096401151011776" ry="1.9557531971516369" fill="rgb(255,255,255)"/><ellipse vector-effect="non-scaling-stroke" cx="71.65304838471648" cy="63.09473978849469" rx="2.0096401151011776" ry="1.9557531971516369" fill="rgb(255,255,255)" mask="url(#_mask_D9F59Czlq1nyvBjbFLEV1HEYPr4YGX6s)" stroke-width="4" stroke="rgb(0,0,0)" stroke-linejoin="miter" stroke-linecap="round" stroke-miterlimit="3"/><mask id="_mask_6vGR31AcVhFTjQ1C4PmmJuupW4AKnGkm"><ellipse vector-effect="non-scaling-stroke" cx="81.8194630846401" cy="63.09473978849469" rx="2.0096401151011776" ry="1.9557531971516369" fill="white" stroke="none"/></mask><ellipse vector-effect="non-scaling-stroke" cx="81.8194630846401" cy="63.09473978849469" rx="2.0096401151011776" ry="1.9557531971516369" fill="rgb(255,255,255)"/><ellipse vector-effect="non-scaling-stroke" cx="81.8194630846401" cy="63.09473978849469" rx="2.0096401151011776" ry="1.9557531971516369" fill="rgb(255,255,255)" mask="url(#_mask_6vGR31AcVhFTjQ1C4PmmJuupW4AKnGkm)" stroke-width="4" stroke="rgb(0,0,0)" stroke-linejoin="miter" stroke-linecap="round" stroke-miterlimit="3"/><path d=" M 67.516 78.626 C 73.639 75.617 79.552 75.389 85.721 78.396" fill="rgb(255,255,255)" vector-effect="non-scaling-stroke" stroke-width="2" stroke="rgb(0,0,0)" stroke-linejoin="miter" stroke-linecap="round" stroke-miterlimit="3"/><ellipse vector-effect="non-scaling-stroke" cx="74.37197324632389" cy="80.92660717428899" rx="0.7092847465062988" ry="0.8053101400036127" fill="rgb(0,0,0)"/><ellipse vector-effect="non-scaling-stroke" cx="74.37197324632389" cy="80.92660717428899" rx="0.7092847465062988" ry="0.8053101400036127" fill="rgb(255,255,255)"/><ellipse vector-effect="non-scaling-stroke" cx="79.10053822303253" cy="80.92660717428899" rx="0.7092847465062988" ry="0.8053101400036127" fill="rgb(0,0,0)"/><ellipse vector-effect="non-scaling-stroke" cx="79.10053822303253" cy="80.92660717428899" rx="0.7092847465062988" ry="0.8053101400036127" fill="rgb(255,255,255)"/><path d=" M 76.903 51.705 Q 69.171 52.242 68.461 44.573" fill="rgb(255,255,255)" vector-effect="non-scaling-stroke" stroke-width="2" stroke="rgb(0,0,0)" stroke-linejoin="miter" stroke-linecap="round" stroke-miterlimit="3"/><path d=" M 65.151 58.378 Q 62.414 58.588 59.713 57.688 C 56.825 56.725 55.283 55.424 56.876 50.325 Q 56.901 50.246 67.516 54.236" fill="rgb(255,255,255)" vector-effect="non-scaling-stroke" stroke-width="2" stroke="rgb(0,0,0)" stroke-linejoin="miter" stroke-linecap="round" stroke-miterlimit="3"/><path d=" M 88.085 58.378 Q 90.822 58.588 93.523 57.688 C 96.411 56.725 97.953 55.424 96.36 50.325 Q 96.335 50.246 85.721 54.236" fill="rgb(255,255,255)" vector-effect="non-scaling-stroke" stroke-width="2" stroke="rgb(0,0,0)" stroke-linejoin="miter" stroke-linecap="round" stroke-miterlimit="3"/><path d=" M 76.903 51.705 Q 84.696 51.552 85.011 44.573" fill="rgb(255,255,255)" vector-effect="non-scaling-stroke" stroke-width="2" stroke="rgb(0,0,0)" stroke-linejoin="miter" stroke-linecap="round" stroke-miterlimit="3"/><path d=" M 76.903 51.705 C 81.784 51.832 88.313 53.789 87.848 58.838 C 87.619 61.334 86.525 74.681 85.721 78.626 C 84.917 82.57 82.061 85.714 76.903 85.989 C 71.26 86.259 68.297 81.666 67.516 78.626 C 67.508 78.571 67.501 78.516 67.493 78.46 C 66.523 71.298 65.497 60.55 65.301 58.838 C 64.749 54.024 71.791 51.573 76.903 51.705 Z " fill="rgb(255,255,255)" vector-effect="non-scaling-stroke" stroke-width="2" stroke="rgb(0,0,0)" stroke-linejoin="miter" stroke-linecap="round" stroke-miterlimit="3"/><mask id="_mask_ZCkovXA3k0AHLVSxFfpjxRVdEgTlJHKT"><ellipse vector-effect="non-scaling-stroke" cx="71.65304838471648" cy="63.09473978849469" rx="2.0096401151011776" ry="1.9557531971516369" fill="white" stroke="none"/></mask><ellipse vector-effect="non-scaling-stroke" cx="71.65304838471648" cy="63.09473978849469" rx="2.0096401151011776" ry="1.9557531971516369" fill="rgb(255,255,255)"/><ellipse vector-effect="non-scaling-stroke" cx="71.65304838471648" cy="63.09473978849469" rx="2.0096401151011776" ry="1.9557531971516369" fill="rgb(255,255,255)" mask="url(#_mask_ZCkovXA3k0AHLVSxFfpjxRVdEgTlJHKT)" stroke-width="2" stroke="rgb(0,0,0)" stroke-linejoin="miter" stroke-linecap="round" stroke-miterlimit="3"/><mask id="_mask_FL0oedhpVYAUaJJFSHhegbHeOfui0AaO"><ellipse vector-effect="non-scaling-stroke" cx="81.8194630846401" cy="63.09473978849469" rx="2.0096401151011776" ry="1.9557531971516369" fill="white" stroke="none"/></mask><ellipse vector-effect="non-scaling-stroke" cx="81.8194630846401" cy="63.09473978849469" rx="2.0096401151011776" ry="1.9557531971516369" fill="rgb(255,255,255)"/><ellipse vector-effect="non-scaling-stroke" cx="81.8194630846401" cy="63.09473978849469" rx="2.0096401151011776" ry="1.9557531971516369" fill="rgb(255,255,255)" mask="url(#_mask_FL0oedhpVYAUaJJFSHhegbHeOfui0AaO)" stroke-width="2" stroke="rgb(0,0,0)" stroke-linejoin="miter" stroke-linecap="round" stroke-miterlimit="3"/><path d=" M 67.516 78.626 C 73.639 75.617 79.552 75.389 85.721 78.396" fill="rgb(255,255,255)" vector-effect="non-scaling-stroke" stroke-width="2" stroke="rgb(0,0,0)" stroke-linejoin="miter" stroke-linecap="round" stroke-miterlimit="3"/><ellipse vector-effect="non-scaling-stroke" cx="74.37197324632388" cy="81.92660717428896" rx="0.7092847465062988" ry="0.8053101400036127" fill="rgb(0,0,0)"/><ellipse vector-effect="non-scaling-stroke" cx="79.10053822303253" cy="81.92660717428896" rx="0.7092847465062988" ry="0.8053101400036127" fill="rgb(0,0,0)"/><path d=" M 76.903 51.705 Q 69.171 52.242 68.461 44.573" fill="rgb(255,255,255)" vector-effect="non-scaling-stroke" stroke-width="2" stroke="rgb(0,0,0)" stroke-linejoin="miter" stroke-linecap="round" stroke-miterlimit="3"/><path d=" M 65.151 58.378 Q 62.414 58.588 59.713 57.688 C 56.825 56.725 55.283 55.424 56.876 50.325 Q 56.901 50.246 67.516 54.236" fill="rgb(255,255,255)" vector-effect="non-scaling-stroke" stroke-width="2" stroke="rgb(0,0,0)" stroke-linejoin="miter" stroke-linecap="round" stroke-miterlimit="3"/><path d=" M 88.085 58.378 Q 90.822 58.588 93.523 57.688 C 96.411 56.725 97.953 55.424 96.36 50.325 Q 96.335 50.246 85.721 54.236" fill="rgb(255,255,255)" vector-effect="non-scaling-stroke" stroke-width="2" stroke="rgb(0,0,0)" stroke-linejoin="miter" stroke-linecap="round" stroke-miterlimit="3"/><path d=" M 76.903 51.705 Q 84.696 51.552 85.011 44.573" fill="rgb(255,255,255)" vector-effect="non-scaling-stroke" stroke-width="2" stroke="rgb(0,0,0)" stroke-linejoin="miter" stroke-linecap="round" stroke-miterlimit="3"/></g></g></g></g></g><g><g><g><g><g><path d=" M 52.168 22.76 C 59.539 22.951 69.398 25.906 68.697 33.531 C 68.35 37.3 66.697 57.455 65.483 63.412 C 64.269 69.368 59.958 74.116 52.168 74.53 C 43.647 74.939 39.172 68.003 37.993 63.412 C 37.981 63.329 37.97 63.246 37.959 63.162 C 36.494 52.346 34.945 36.116 34.649 33.531 C 33.815 26.261 44.449 22.56 52.168 22.76 Z " fill="rgb(255,255,255)" vector-effect="non-scaling-stroke" stroke-width="2" stroke="rgb(0,0,0)" stroke-linejoin="miter" stroke-linecap="round" stroke-miterlimit="3"/><mask id="_mask_CWBQIdBaHGrp00Ks66eRHcBnRNHZHzvV"><ellipse vector-effect="non-scaling-stroke" cx="44.24045334651923" cy="39.95885659328223" rx="3.0346986393210997" ry="2.953325583842229" fill="white" stroke="none"/></mask><ellipse vector-effect="non-scaling-stroke" cx="44.24045334651923" cy="39.95885659328223" rx="3.0346986393210997" ry="2.953325583842229" fill="rgb(255,255,255)"/><ellipse vector-effect="non-scaling-stroke" cx="44.24045334651923" cy="39.95885659328223" rx="3.0346986393210997" ry="2.953325583842229" fill="rgb(255,255,255)" mask="url(#_mask_CWBQIdBaHGrp00Ks66eRHcBnRNHZHzvV)" stroke-width="4" stroke="rgb(0,0,0)" stroke-linejoin="miter" stroke-linecap="round" stroke-miterlimit="3"/><mask id="_mask_8mgRbvvb8D1BavuIEbZmRXcNRRdTdVJE"><ellipse vector-effect="non-scaling-stroke" cx="59.59245822779065" cy="39.95885659328223" rx="3.0346986393210997" ry="2.953325583842229" fill="white" stroke="none"/></mask><ellipse vector-effect="non-scaling-stroke" cx="59.59245822779065" cy="39.95885659328223" rx="3.0346986393210997" ry="2.953325583842229" fill="rgb(255,255,255)"/><ellipse vector-effect="non-scaling-stroke" cx="59.59245822779065" cy="39.95885659328223" rx="3.0346986393210997" ry="2.953325583842229" fill="rgb(255,255,255)" mask="url(#_mask_8mgRbvvb8D1BavuIEbZmRXcNRRdTdVJE)" stroke-width="4" stroke="rgb(0,0,0)" stroke-linejoin="miter" stroke-linecap="round" stroke-miterlimit="3"/><path d=" M 37.993 63.412 C 47.239 58.868 56.168 58.524 65.483 63.064" fill="rgb(255,255,255)" vector-effect="non-scaling-stroke" stroke-width="2" stroke="rgb(0,0,0)" stroke-linejoin="miter" stroke-linecap="round" stroke-miterlimit="3"/><ellipse vector-effect="non-scaling-stroke" cx="48.346222093835934" cy="66.88623691654958" rx="1.0710701079956806" ry="1.2160752404056296" fill="rgb(0,0,0)"/><ellipse vector-effect="non-scaling-stroke" cx="48.346222093835934" cy="66.88623691654958" rx="1.0710701079956806" ry="1.2160752404056296" fill="rgb(255,255,255)"/><ellipse vector-effect="non-scaling-stroke" cx="55.486689480473736" cy="66.88623691654958" rx="1.0710701079956806" ry="1.2160752404056296" fill="rgb(0,0,0)"/><ellipse vector-effect="non-scaling-stroke" cx="55.486689480473736" cy="66.88623691654958" rx="1.0710701079956806" ry="1.2160752404056296" fill="rgb(255,255,255)"/><path d=" M 52.168 22.76 Q 40.492 23.571 39.421 11.989" fill="rgb(255,255,255)" vector-effect="non-scaling-stroke" stroke-width="2" stroke="rgb(0,0,0)" stroke-linejoin="miter" stroke-linecap="round" stroke-miterlimit="3"/><path d=" M 34.422 32.836 Q 30.288 33.153 26.211 31.794 C 21.849 30.34 19.521 28.375 21.926 20.675 Q 21.964 20.556 37.993 26.582" fill="rgb(255,255,255)" vector-effect="non-scaling-stroke" stroke-width="2" stroke="rgb(0,0,0)" stroke-linejoin="miter" stroke-linecap="round" stroke-miterlimit="3"/><path d=" M 69.054 32.836 Q 73.187 33.153 77.265 31.794 C 81.627 30.34 83.955 28.375 81.549 20.675 Q 81.512 20.556 65.483 26.582" fill="rgb(255,255,255)" vector-effect="non-scaling-stroke" stroke-width="2" stroke="rgb(0,0,0)" stroke-linejoin="miter" stroke-linecap="round" stroke-miterlimit="3"/><path d=" M 52.168 22.76 Q 63.936 22.528 64.412 11.989" fill="rgb(255,255,255)" vector-effect="non-scaling-stroke" stroke-width="2" stroke="rgb(0,0,0)" stroke-linejoin="miter" stroke-linecap="round" stroke-miterlimit="3"/></g><g><path d=" M 52.168 22.76 C 59.539 22.951 69.398 25.906 68.697 33.531 C 68.35 37.3 66.697 57.455 65.483 63.412 C 64.269 69.368 59.958 74.116 52.168 74.53 C 43.647 74.939 39.172 68.003 37.993 63.412 C 37.981 63.329 37.97 63.246 37.959 63.162 C 36.494 52.346 34.945 36.116 34.649 33.531 C 33.815 26.261 44.449 22.56 52.168 22.76 Z " fill="rgb(255,255,255)" vector-effect="non-scaling-stroke" stroke-width="2" stroke="rgb(0,0,0)" stroke-linejoin="miter" stroke-linecap="round" stroke-miterlimit="3"/><mask id="_mask_Qo6CXKBauPAblrjr9ZJbmczUAymJt8Ji"><ellipse vector-effect="non-scaling-stroke" cx="44.24045334651923" cy="39.95885659328223" rx="3.0346986393210997" ry="2.953325583842229" fill="white" stroke="none"/></mask><ellipse vector-effect="non-scaling-stroke" cx="44.24045334651923" cy="39.95885659328223" rx="3.0346986393210997" ry="2.953325583842229" fill="rgb(255,255,255)"/><ellipse vector-effect="non-scaling-stroke" cx="44.24045334651923" cy="39.95885659328223" rx="3.0346986393210997" ry="2.953325583842229" fill="rgb(255,255,255)" mask="url(#_mask_Qo6CXKBauPAblrjr9ZJbmczUAymJt8Ji)" stroke-width="4" stroke="rgb(0,0,0)" stroke-linejoin="miter" stroke-linecap="round" stroke-miterlimit="3"/><mask id="_mask_lgw8omb5xmGrx5TL1mWo7ZKzOrkP70aq"><ellipse vector-effect="non-scaling-stroke" cx="59.59245822779065" cy="39.95885659328223" rx="3.0346986393210997" ry="2.953325583842229" fill="white" stroke="none"/></mask><ellipse vector-effect="non-scaling-stroke" cx="59.59245822779065" cy="39.95885659328223" rx="3.0346986393210997" ry="2.953325583842229" fill="rgb(255,255,255)"/><ellipse vector-effect="non-scaling-stroke" cx="59.59245822779065" cy="39.95885659328223" rx="3.0346986393210997" ry="2.953325583842229" fill="rgb(255,255,255)" mask="url(#_mask_lgw8omb5xmGrx5TL1mWo7ZKzOrkP70aq)" stroke-width="4" stroke="rgb(0,0,0)" stroke-linejoin="miter" stroke-linecap="round" stroke-miterlimit="3"/><path d=" M 37.993 63.412 C 47.239 58.868 56.168 58.524 65.483 63.064" fill="rgb(255,255,255)" vector-effect="non-scaling-stroke" stroke-width="2" stroke="rgb(0,0,0)" stroke-linejoin="miter" stroke-linecap="round" stroke-miterlimit="3"/><ellipse vector-effect="non-scaling-stroke" cx="48.346222093835934" cy="66.88623691654958" rx="1.0710701079956806" ry="1.2160752404056296" fill="rgb(0,0,0)"/><ellipse vector-effect="non-scaling-stroke" cx="48.346222093835934" cy="66.88623691654958" rx="1.0710701079956806" ry="1.2160752404056296" fill="rgb(255,255,255)"/><ellipse vector-effect="non-scaling-stroke" cx="55.486689480473736" cy="66.88623691654958" rx="1.0710701079956806" ry="1.2160752404056296" fill="rgb(0,0,0)"/><ellipse vector-effect="non-scaling-stroke" cx="55.486689480473736" cy="66.88623691654958" rx="1.0710701079956806" ry="1.2160752404056296" fill="rgb(255,255,255)"/><path d=" M 52.168 22.76 Q 40.492 23.571 39.421 11.989" fill="rgb(255,255,255)" vector-effect="non-scaling-stroke" stroke-width="2" stroke="rgb(0,0,0)" stroke-linejoin="miter" stroke-linecap="round" stroke-miterlimit="3"/><path d=" M 34.422 32.836 Q 30.288 33.153 26.211 31.794 C 21.849 30.34 19.521 28.375 21.926 20.675 Q 21.964 20.556 37.993 26.582" fill="rgb(255,255,255)" vector-effect="non-scaling-stroke" stroke-width="2" stroke="rgb(0,0,0)" stroke-linejoin="miter" stroke-linecap="round" stroke-miterlimit="3"/><path d=" M 69.054 32.836 Q 73.187 33.153 77.265 31.794 C 81.627 30.34 83.955 28.375 81.549 20.675 Q 81.512 20.556 65.483 26.582" fill="rgb(255,255,255)" vector-effect="non-scaling-stroke" stroke-width="2" stroke="rgb(0,0,0)" stroke-linejoin="miter" stroke-linecap="round" stroke-miterlimit="3"/><path d=" M 52.168 22.76 Q 63.936 22.528 64.412 11.989" fill="rgb(255,255,255)" vector-effect="non-scaling-stroke" stroke-width="2" stroke="rgb(0,0,0)" stroke-linejoin="miter" stroke-linecap="round" stroke-miterlimit="3"/><path d=" M 52.168 22.76 C 59.539 22.951 69.398 25.906 68.697 33.531 C 68.35 37.3 66.697 57.455 65.483 63.412 C 64.269 69.368 59.958 74.116 52.168 74.53 C 43.647 74.939 39.172 68.003 37.993 63.412 C 37.981 63.329 37.97 63.246 37.959 63.162 C 36.494 52.346 34.945 36.116 34.649 33.531 C 33.815 26.261 44.449 22.56 52.168 22.76 Z " fill="rgb(255,255,255)" vector-effect="non-scaling-stroke" stroke-width="2" stroke="rgb(0,0,0)" stroke-linejoin="miter" stroke-linecap="round" stroke-miterlimit="3"/><mask id="_mask_FgBHByHzQ2WWn1hHq4evv5tElIF0F1EF"><ellipse vector-effect="non-scaling-stroke" cx="44.24045334651923" cy="39.95885659328223" rx="3.0346986393210997" ry="2.953325583842229" fill="white" stroke="none"/></mask><ellipse vector-effect="non-scaling-stroke" cx="44.24045334651923" cy="39.95885659328223" rx="3.0346986393210997" ry="2.953325583842229" fill="rgb(255,255,255)"/><ellipse vector-effect="non-scaling-stroke" cx="44.24045334651923" cy="39.95885659328223" rx="3.0346986393210997" ry="2.953325583842229" fill="rgb(255,255,255)" mask="url(#_mask_FgBHByHzQ2WWn1hHq4evv5tElIF0F1EF)" stroke-width="4" stroke="rgb(0,0,0)" stroke-linejoin="miter" stroke-linecap="round" stroke-miterlimit="3"/><mask id="_mask_gtq4AKqfPCfMy4147jexpQJ9bXok9GO2"><ellipse vector-effect="non-scaling-stroke" cx="59.59245822779065" cy="39.95885659328223" rx="3.0346986393210997" ry="2.953325583842229" fill="white" stroke="none"/></mask><ellipse vector-effect="non-scaling-stroke" cx="59.59245822779065" cy="39.95885659328223" rx="3.0346986393210997" ry="2.953325583842229" fill="rgb(255,255,255)"/><ellipse vector-effect="non-scaling-stroke" cx="59.59245822779065" cy="39.95885659328223" rx="3.0346986393210997" ry="2.953325583842229" fill="rgb(255,255,255)" mask="url(#_mask_gtq4AKqfPCfMy4147jexpQJ9bXok9GO2)" stroke-width="4" stroke="rgb(0,0,0)" stroke-linejoin="miter" stroke-linecap="round" stroke-miterlimit="3"/><path d=" M 37.993 63.412 C 47.239 58.868 56.168 58.524 65.483 63.064" fill="rgb(255,255,255)" vector-effect="non-scaling-stroke" stroke-width="2" stroke="rgb(0,0,0)" stroke-linejoin="miter" stroke-linecap="round" stroke-miterlimit="3"/><ellipse vector-effect="non-scaling-stroke" cx="48.346222093835934" cy="66.88623691654958" rx="1.0710701079956806" ry="1.2160752404056296" fill="rgb(0,0,0)"/><ellipse vector-effect="non-scaling-stroke" cx="48.346222093835934" cy="66.88623691654958" rx="1.0710701079956806" ry="1.2160752404056296" fill="rgb(255,255,255)"/><ellipse vector-effect="non-scaling-stroke" cx="55.486689480473736" cy="66.88623691654958" rx="1.0710701079956806" ry="1.2160752404056296" fill="rgb(0,0,0)"/><ellipse vector-effect="non-scaling-stroke" cx="55.486689480473736" cy="66.88623691654958" rx="1.0710701079956806" ry="1.2160752404056296" fill="rgb(255,255,255)"/><path d=" M 52.168 22.76 Q 40.492 23.571 39.421 11.989" fill="rgb(255,255,255)" vector-effect="non-scaling-stroke" stroke-width="2" stroke="rgb(0,0,0)" stroke-linejoin="miter" stroke-linecap="round" stroke-miterlimit="3"/><path d=" M 34.422 32.836 Q 30.288 33.153 26.211 31.794 C 21.849 30.34 19.521 28.375 21.926 20.675 Q 21.964 20.556 37.993 26.582" fill="rgb(255,255,255)" vector-effect="non-scaling-stroke" stroke-width="2" stroke="rgb(0,0,0)" stroke-linejoin="miter" stroke-linecap="round" stroke-miterlimit="3"/><path d=" M 69.054 32.836 Q 73.187 33.153 77.265 31.794 C 81.627 30.34 83.955 28.375 81.549 20.675 Q 81.512 20.556 65.483 26.582" fill="rgb(255,255,255)" vector-effect="non-scaling-stroke" stroke-width="2" stroke="rgb(0,0,0)" stroke-linejoin="miter" stroke-linecap="round" stroke-miterlimit="3"/><path d=" M 52.168 22.76 Q 63.936 22.528 64.412 11.989" fill="rgb(255,255,255)" vector-effect="non-scaling-stroke" stroke-width="2" stroke="rgb(0,0,0)" stroke-linejoin="miter" stroke-linecap="round" stroke-miterlimit="3"/><path d=" M 52.168 22.76 C 59.539 22.951 69.398 25.906 68.697 33.531 C 68.35 37.3 66.697 57.455 65.483 63.412 C 64.269 69.368 59.958 74.116 52.168 74.53 C 43.647 74.939 39.172 68.003 37.993 63.412 C 37.981 63.329 37.97 63.246 37.959 63.162 C 36.494 52.346 34.945 36.116 34.649 33.531 C 33.815 26.261 44.449 22.56 52.168 22.76 Z " fill="rgb(255,255,255)" vector-effect="non-scaling-stroke" stroke-width="2" stroke="rgb(0,0,0)" stroke-linejoin="miter" stroke-linecap="round" stroke-miterlimit="3"/><mask id="_mask_e6zZ0KNwv77CS9US8Jb13hdro8NtE1VX"><ellipse vector-effect="non-scaling-stroke" cx="44.24045334651923" cy="39.95885659328223" rx="3.0346986393210997" ry="2.953325583842229" fill="white" stroke="none"/></mask><ellipse vector-effect="non-scaling-stroke" cx="44.24045334651923" cy="39.95885659328223" rx="3.0346986393210997" ry="2.953325583842229" fill="rgb(255,255,255)"/><ellipse vector-effect="non-scaling-stroke" cx="44.24045334651923" cy="39.95885659328223" rx="3.0346986393210997" ry="2.953325583842229" fill="rgb(255,255,255)" mask="url(#_mask_e6zZ0KNwv77CS9US8Jb13hdro8NtE1VX)" stroke-width="4" stroke="rgb(0,0,0)" stroke-linejoin="miter" stroke-linecap="round" stroke-miterlimit="3"/><mask id="_mask_VjE5Law9HsxwzcJ71HvArGaMiMscm4AI"><ellipse vector-effect="non-scaling-stroke" cx="59.59245822779065" cy="39.95885659328223" rx="3.0346986393210997" ry="2.953325583842229" fill="white" stroke="none"/></mask><ellipse vector-effect="non-scaling-stroke" cx="59.59245822779065" cy="39.95885659328223" rx="3.0346986393210997" ry="2.953325583842229" fill="rgb(255,255,255)"/><ellipse vector-effect="non-scaling-stroke" cx="59.59245822779065" cy="39.95885659328223" rx="3.0346986393210997" ry="2.953325583842229" fill="rgb(255,255,255)" mask="url(#_mask_VjE5Law9HsxwzcJ71HvArGaMiMscm4AI)" stroke-width="4" stroke="rgb(0,0,0)" stroke-linejoin="miter" stroke-linecap="round" stroke-miterlimit="3"/><path d=" M 37.993 63.412 C 47.239 58.868 56.168 58.524 65.483 63.064" fill="rgb(255,255,255)" vector-effect="non-scaling-stroke" stroke-width="2" stroke="rgb(0,0,0)" stroke-linejoin="miter" stroke-linecap="round" stroke-miterlimit="3"/><ellipse vector-effect="non-scaling-stroke" cx="48.3462220938359" cy="67.88623691654958" rx="1.0710701079956806" ry="1.2160752404056296" fill="rgb(0,0,0)"/><ellipse vector-effect="non-scaling-stroke" cx="55.486689480473736" cy="67.88623691654958" rx="1.0710701079956806" ry="1.2160752404056296" fill="rgb(0,0,0)"/><path d=" M 52.168 22.76 Q 40.492 23.571 39.421 11.989" fill="rgb(255,255,255)" vector-effect="non-scaling-stroke" stroke-width="2" stroke="rgb(0,0,0)" stroke-linejoin="miter" stroke-linecap="round" stroke-miterlimit="3"/><path d=" M 34.422 32.836 Q 30.288 33.153 26.211 31.794 C 21.849 30.34 19.521 28.375 21.926 20.675 Q 21.964 20.556 37.993 26.582" fill="rgb(255,255,255)" vector-effect="non-scaling-stroke" stroke-width="2" stroke="rgb(0,0,0)" stroke-linejoin="miter" stroke-linecap="round" stroke-miterlimit="3"/><path d=" M 69.054 32.836 Q 73.187 33.153 77.265 31.794 C 81.627 30.34 83.955 28.375 81.549 20.675 Q 81.512 20.556 65.483 26.582" fill="rgb(255,255,255)" vector-effect="non-scaling-stroke" stroke-width="2" stroke="rgb(0,0,0)" stroke-linejoin="miter" stroke-linecap="round" stroke-miterlimit="3"/><path d=" M 52.168 22.76 Q 63.936 22.528 64.412 11.989" fill="rgb(255,255,255)" vector-effect="non-scaling-stroke" stroke-width="2" stroke="rgb(0,0,0)" stroke-linejoin="miter" stroke-linecap="round" stroke-miterlimit="3"/></g></g></g></g></g><g><g><g><g><g><path d=" M 22.136 51.705 C 27.017 51.832 33.546 53.789 33.081 58.838 C 32.852 61.334 31.757 74.681 30.953 78.626 C 30.149 82.57 27.294 85.714 22.136 85.989 C 16.493 86.259 13.529 81.666 12.748 78.626 C 12.741 78.571 12.733 78.516 12.726 78.46 C 11.756 71.298 10.73 60.55 10.534 58.838 C 9.982 54.024 17.024 51.573 22.136 51.705 Z " fill="rgb(255,255,255)" vector-effect="non-scaling-stroke" stroke-width="2" stroke="rgb(0,0,0)" stroke-linejoin="miter" stroke-linecap="round" stroke-miterlimit="3"/><mask id="_mask_Nvys5M3oRZKk6xlOortxe4iX6D1ufonI"><ellipse vector-effect="non-scaling-stroke" cx="16.885960748728202" cy="63.09473978849469" rx="2.009640115101182" ry="1.9557531971516369" fill="white" stroke="none"/></mask><ellipse vector-effect="non-scaling-stroke" cx="16.885960748728202" cy="63.09473978849469" rx="2.009640115101182" ry="1.9557531971516369" fill="rgb(255,255,255)"/><ellipse vector-effect="non-scaling-stroke" cx="16.885960748728202" cy="63.09473978849469" rx="2.009640115101182" ry="1.9557531971516369" fill="rgb(255,255,255)" mask="url(#_mask_Nvys5M3oRZKk6xlOortxe4iX6D1ufonI)" stroke-width="4" stroke="rgb(0,0,0)" stroke-linejoin="miter" stroke-linecap="round" stroke-miterlimit="3"/><mask id="_mask_fJPj4mD71xQy0QqzDISSrZKRabwNQqiE"><ellipse vector-effect="non-scaling-stroke" cx="27.052375448651805" cy="63.09473978849469" rx="2.009640115101181" ry="1.9557531971516369" fill="white" stroke="none"/></mask><ellipse vector-effect="non-scaling-stroke" cx="27.052375448651805" cy="63.09473978849469" rx="2.009640115101181" ry="1.9557531971516369" fill="rgb(255,255,255)"/><ellipse vector-effect="non-scaling-stroke" cx="27.052375448651805" cy="63.09473978849469" rx="2.009640115101181" ry="1.9557531971516369" fill="rgb(255,255,255)" mask="url(#_mask_fJPj4mD71xQy0QqzDISSrZKRabwNQqiE)" stroke-width="4" stroke="rgb(0,0,0)" stroke-linejoin="miter" stroke-linecap="round" stroke-miterlimit="3"/><path d=" M 12.748 78.626 C 18.872 75.617 24.785 75.389 30.953 78.396" fill="rgb(255,255,255)" vector-effect="non-scaling-stroke" stroke-width="2" stroke="rgb(0,0,0)" stroke-linejoin="miter" stroke-linecap="round" stroke-miterlimit="3"/><ellipse vector-effect="non-scaling-stroke" cx="19.604885610335653" cy="80.92660717428899" rx="0.7092847465062988" ry="0.8053101400036127" fill="rgb(0,0,0)"/><ellipse vector-effect="non-scaling-stroke" cx="19.604885610335653" cy="80.92660717428899" rx="0.7092847465062988" ry="0.8053101400036127" fill="rgb(255,255,255)"/><ellipse vector-effect="non-scaling-stroke" cx="24.333450587044293" cy="80.92660717428899" rx="0.7092847465062988" ry="0.8053101400036127" fill="rgb(0,0,0)"/><ellipse vector-effect="non-scaling-stroke" cx="24.333450587044293" cy="80.92660717428899" rx="0.7092847465062988" ry="0.8053101400036127" fill="rgb(255,255,255)"/><path d=" M 22.136 51.705 Q 14.403 52.242 13.694 44.573" fill="rgb(255,255,255)" vector-effect="non-scaling-stroke" stroke-width="2" stroke="rgb(0,0,0)" stroke-linejoin="miter" stroke-linecap="round" stroke-miterlimit="3"/><path d=" M 10.384 58.378 Q 7.647 58.588 4.946 57.688 C 2.058 56.725 0.516 55.424 2.109 50.325 Q 2.134 50.246 12.748 54.236" fill="rgb(255,255,255)" vector-effect="non-scaling-stroke" stroke-width="2" stroke="rgb(0,0,0)" stroke-linejoin="miter" stroke-linecap="round" stroke-miterlimit="3"/><path d=" M 33.318 58.378 Q 36.055 58.588 38.756 57.688 C 41.644 56.725 43.186 55.424 41.593 50.325 Q 41.568 50.246 30.953 54.236" fill="rgb(255,255,255)" vector-effect="non-scaling-stroke" stroke-width="2" stroke="rgb(0,0,0)" stroke-linejoin="miter" stroke-linecap="round" stroke-miterlimit="3"/><path d=" M 22.136 51.705 Q 29.929 51.552 30.244 44.573" fill="rgb(255,255,255)" vector-effect="non-scaling-stroke" stroke-width="2" stroke="rgb(0,0,0)" stroke-linejoin="miter" stroke-linecap="round" stroke-miterlimit="3"/></g><g><path d=" M 22.136 51.705 C 27.017 51.832 33.546 53.789 33.081 58.838 C 32.852 61.334 31.757 74.681 30.953 78.626 C 30.149 82.57 27.294 85.714 22.136 85.989 C 16.493 86.259 13.529 81.666 12.748 78.626 C 12.741 78.571 12.733 78.516 12.726 78.46 C 11.756 71.298 10.73 60.55 10.534 58.838 C 9.982 54.024 17.024 51.573 22.136 51.705 Z " fill="rgb(255,255,255)" vector-effect="non-scaling-stroke" stroke-width="2" stroke="rgb(0,0,0)" stroke-linejoin="miter" stroke-linecap="round" stroke-miterlimit="3"/><mask id="_mask_NyP82xtmd1RFwSBdFwSypn4NmoTMEVpH"><ellipse vector-effect="non-scaling-stroke" cx="16.885960748728202" cy="63.09473978849469" rx="2.009640115101182" ry="1.9557531971516369" fill="white" stroke="none"/></mask><ellipse vector-effect="non-scaling-stroke" cx="16.885960748728202" cy="63.09473978849469" rx="2.009640115101182" ry="1.9557531971516369" fill="rgb(255,255,255)"/><ellipse vector-effect="non-scaling-stroke" cx="16.885960748728202" cy="63.09473978849469" rx="2.009640115101182" ry="1.9557531971516369" fill="rgb(255,255,255)" mask="url(#_mask_NyP82xtmd1RFwSBdFwSypn4NmoTMEVpH)" stroke-width="4" stroke="rgb(0,0,0)" stroke-linejoin="miter" stroke-linecap="round" stroke-miterlimit="3"/><mask id="_mask_7Pr4MyaQ9shGYJWF0BSV9iyZGGZWHxXY"><ellipse vector-effect="non-scaling-stroke" cx="27.052375448651805" cy="63.09473978849469" rx="2.009640115101181" ry="1.9557531971516369" fill="white" stroke="none"/></mask><ellipse vector-effect="non-scaling-stroke" cx="27.052375448651805" cy="63.09473978849469" rx="2.009640115101181" ry="1.9557531971516369" fill="rgb(255,255,255)"/><ellipse vector-effect="non-scaling-stroke" cx="27.052375448651805" cy="63.09473978849469" rx="2.009640115101181" ry="1.9557531971516369" fill="rgb(255,255,255)" mask="url(#_mask_7Pr4MyaQ9shGYJWF0BSV9iyZGGZWHxXY)" stroke-width="4" stroke="rgb(0,0,0)" stroke-linejoin="miter" stroke-linecap="round" stroke-miterlimit="3"/><path d=" M 12.748 78.626 C 18.872 75.617 24.785 75.389 30.953 78.396" fill="rgb(255,255,255)" vector-effect="non-scaling-stroke" stroke-width="2" stroke="rgb(0,0,0)" stroke-linejoin="miter" stroke-linecap="round" stroke-miterlimit="3"/><ellipse vector-effect="non-scaling-stroke" cx="19.604885610335653" cy="80.92660717428899" rx="0.7092847465062988" ry="0.8053101400036127" fill="rgb(0,0,0)"/><ellipse vector-effect="non-scaling-stroke" cx="19.604885610335653" cy="80.92660717428899" rx="0.7092847465062988" ry="0.8053101400036127" fill="rgb(255,255,255)"/><ellipse vector-effect="non-scaling-stroke" cx="24.333450587044293" cy="80.92660717428899" rx="0.7092847465062988" ry="0.8053101400036127" fill="rgb(0,0,0)"/><ellipse vector-effect="non-scaling-stroke" cx="24.333450587044293" cy="80.92660717428899" rx="0.7092847465062988" ry="0.8053101400036127" fill="rgb(255,255,255)"/><path d=" M 22.136 51.705 Q 14.403 52.242 13.694 44.573" fill="rgb(255,255,255)" vector-effect="non-scaling-stroke" stroke-width="2" stroke="rgb(0,0,0)" stroke-linejoin="miter" stroke-linecap="round" stroke-miterlimit="3"/><path d=" M 10.384 58.378 Q 7.647 58.588 4.946 57.688 C 2.058 56.725 0.516 55.424 2.109 50.325 Q 2.134 50.246 12.748 54.236" fill="rgb(255,255,255)" vector-effect="non-scaling-stroke" stroke-width="2" stroke="rgb(0,0,0)" stroke-linejoin="miter" stroke-linecap="round" stroke-miterlimit="3"/><path d=" M 33.318 58.378 Q 36.055 58.588 38.756 57.688 C 41.644 56.725 43.186 55.424 41.593 50.325 Q 41.568 50.246 30.953 54.236" fill="rgb(255,255,255)" vector-effect="non-scaling-stroke" stroke-width="2" stroke="rgb(0,0,0)" stroke-linejoin="miter" stroke-linecap="round" stroke-miterlimit="3"/><path d=" M 22.136 51.705 Q 29.929 51.552 30.244 44.573" fill="rgb(255,255,255)" vector-effect="non-scaling-stroke" stroke-width="2" stroke="rgb(0,0,0)" stroke-linejoin="miter" stroke-linecap="round" stroke-miterlimit="3"/><path d=" M 22.136 51.705 C 27.017 51.832 33.546 53.789 33.081 58.838 C 32.852 61.334 31.757 74.681 30.953 78.626 C 30.149 82.57 27.294 85.714 22.136 85.989 C 16.493 86.259 13.529 81.666 12.748 78.626 C 12.741 78.571 12.733 78.516 12.726 78.46 C 11.756 71.298 10.73 60.55 10.534 58.838 C 9.982 54.024 17.024 51.573 22.136 51.705 Z " fill="rgb(255,255,255)" vector-effect="non-scaling-stroke" stroke-width="2" stroke="rgb(0,0,0)" stroke-linejoin="miter" stroke-linecap="round" stroke-miterlimit="3"/><mask id="_mask_vkgeLVmtssHPQOOYjd6klK8jWXvtNfiP"><ellipse vector-effect="non-scaling-stroke" cx="16.885960748728202" cy="63.09473978849469" rx="2.009640115101182" ry="1.9557531971516369" fill="white" stroke="none"/></mask><ellipse vector-effect="non-scaling-stroke" cx="16.885960748728202" cy="63.09473978849469" rx="2.009640115101182" ry="1.9557531971516369" fill="rgb(255,255,255)"/><ellipse vector-effect="non-scaling-stroke" cx="16.885960748728202" cy="63.09473978849469" rx="2.009640115101182" ry="1.9557531971516369" fill="rgb(255,255,255)" mask="url(#_mask_vkgeLVmtssHPQOOYjd6klK8jWXvtNfiP)" stroke-width="4" stroke="rgb(0,0,0)" stroke-linejoin="miter" stroke-linecap="round" stroke-miterlimit="3"/><mask id="_mask_Sm9qxwJ8XhPKod0055e2H8tDLR8SkCug"><ellipse vector-effect="non-scaling-stroke" cx="27.052375448651805" cy="63.09473978849469" rx="2.009640115101181" ry="1.9557531971516369" fill="white" stroke="none"/></mask><ellipse vector-effect="non-scaling-stroke" cx="27.052375448651805" cy="63.09473978849469" rx="2.009640115101181" ry="1.9557531971516369" fill="rgb(255,255,255)"/><ellipse vector-effect="non-scaling-stroke" cx="27.052375448651805" cy="63.09473978849469" rx="2.009640115101181" ry="1.9557531971516369" fill="rgb(255,255,255)" mask="url(#_mask_Sm9qxwJ8XhPKod0055e2H8tDLR8SkCug)" stroke-width="4" stroke="rgb(0,0,0)" stroke-linejoin="miter" stroke-linecap="round" stroke-miterlimit="3"/><path d=" M 12.748 78.626 C 18.872 75.617 24.785 75.389 30.953 78.396" fill="rgb(255,255,255)" vector-effect="non-scaling-stroke" stroke-width="2" stroke="rgb(0,0,0)" stroke-linejoin="miter" stroke-linecap="round" stroke-miterlimit="3"/><ellipse vector-effect="non-scaling-stroke" cx="19.604885610335653" cy="80.92660717428899" rx="0.7092847465062988" ry="0.8053101400036127" fill="rgb(0,0,0)"/><ellipse vector-effect="non-scaling-stroke" cx="19.604885610335653" cy="80.92660717428899" rx="0.7092847465062988" ry="0.8053101400036127" fill="rgb(255,255,255)"/><ellipse vector-effect="non-scaling-stroke" cx="24.333450587044293" cy="80.92660717428899" rx="0.7092847465062988" ry="0.8053101400036127" fill="rgb(0,0,0)"/><ellipse vector-effect="non-scaling-stroke" cx="24.333450587044293" cy="80.92660717428899" rx="0.7092847465062988" ry="0.8053101400036127" fill="rgb(255,255,255)"/><path d=" M 22.136 51.705 Q 14.403 52.242 13.694 44.573" fill="rgb(255,255,255)" vector-effect="non-scaling-stroke" stroke-width="2" stroke="rgb(0,0,0)" stroke-linejoin="miter" stroke-linecap="round" stroke-miterlimit="3"/><path d=" M 10.384 58.378 Q 7.647 58.588 4.946 57.688 C 2.058 56.725 0.516 55.424 2.109 50.325 Q 2.134 50.246 12.748 54.236" fill="rgb(255,255,255)" vector-effect="non-scaling-stroke" stroke-width="2" stroke="rgb(0,0,0)" stroke-linejoin="miter" stroke-linecap="round" stroke-miterlimit="3"/><path d=" M 33.318 58.378 Q 36.055 58.588 38.756 57.688 C 41.644 56.725 43.186 55.424 41.593 50.325 Q 41.568 50.246 30.953 54.236" fill="rgb(255,255,255)" vector-effect="non-scaling-stroke" stroke-width="2" stroke="rgb(0,0,0)" stroke-linejoin="miter" stroke-linecap="round" stroke-miterlimit="3"/><path d=" M 22.136 51.705 Q 29.929 51.552 30.244 44.573" fill="rgb(255,255,255)" vector-effect="non-scaling-stroke" stroke-width="2" stroke="rgb(0,0,0)" stroke-linejoin="miter" stroke-linecap="round" stroke-miterlimit="3"/><path d=" M 22.136 51.705 C 27.017 51.832 33.546 53.789 33.081 58.838 C 32.852 61.334 31.757 74.681 30.953 78.626 C 30.149 82.57 27.294 85.714 22.136 85.989 C 16.493 86.259 13.529 81.666 12.748 78.626 C 12.741 78.571 12.733 78.516 12.726 78.46 C 11.756 71.298 10.73 60.55 10.534 58.838 C 9.982 54.024 17.024 51.573 22.136 51.705 Z " fill="rgb(255,255,255)" vector-effect="non-scaling-stroke" stroke-width="2" stroke="rgb(0,0,0)" stroke-linejoin="miter" stroke-linecap="round" stroke-miterlimit="3"/><mask id="_mask_YXPbeVg15gGyHAvhiPViKOQhXcHmvEWX"><ellipse vector-effect="non-scaling-stroke" cx="16.885960748728202" cy="63.09473978849469" rx="2.009640115101182" ry="1.9557531971516369" fill="white" stroke="none"/></mask><ellipse vector-effect="non-scaling-stroke" cx="16.885960748728202" cy="63.09473978849469" rx="2.009640115101182" ry="1.9557531971516369" fill="rgb(255,255,255)"/><ellipse vector-effect="non-scaling-stroke" cx="16.885960748728202" cy="63.09473978849469" rx="2.009640115101182" ry="1.9557531971516369" fill="rgb(255,255,255)" mask="url(#_mask_YXPbeVg15gGyHAvhiPViKOQhXcHmvEWX)" stroke-width="2" stroke="rgb(0,0,0)" stroke-linejoin="miter" stroke-linecap="round" stroke-miterlimit="3"/><mask id="_mask_2WxFSBVNieIVOYM6amb58RpsKkja8yVm"><ellipse vector-effect="non-scaling-stroke" cx="27.052375448651805" cy="63.09473978849469" rx="2.009640115101181" ry="1.9557531971516369" fill="white" stroke="none"/></mask><ellipse vector-effect="non-scaling-stroke" cx="27.052375448651805" cy="63.09473978849469" rx="2.009640115101181" ry="1.9557531971516369" fill="rgb(255,255,255)"/><ellipse vector-effect="non-scaling-stroke" cx="27.052375448651805" cy="63.09473978849469" rx="2.009640115101181" ry="1.9557531971516369" fill="rgb(255,255,255)" mask="url(#_mask_2WxFSBVNieIVOYM6amb58RpsKkja8yVm)" stroke-width="2" stroke="rgb(0,0,0)" stroke-linejoin="miter" stroke-linecap="round" stroke-miterlimit="3"/><path d=" M 12.748 78.626 C 18.872 75.617 24.785 75.389 30.953 78.396" fill="rgb(255,255,255)" vector-effect="non-scaling-stroke" stroke-width="2" stroke="rgb(0,0,0)" stroke-linejoin="miter" stroke-linecap="round" stroke-miterlimit="3"/><ellipse vector-effect="non-scaling-stroke" cx="19.604885610335653" cy="81.92660717428896" rx="0.7092847465062988" ry="0.8053101400036127" fill="rgb(0,0,0)"/><ellipse vector-effect="non-scaling-stroke" cx="24.333450587044293" cy="81.92660717428896" rx="0.7092847465062988" ry="0.8053101400036127" fill="rgb(0,0,0)"/><path d=" M 22.136 51.705 Q 14.403 52.242 13.694 44.573" fill="rgb(255,255,255)" vector-effect="non-scaling-stroke" stroke-width="2" stroke="rgb(0,0,0)" stroke-linejoin="miter" stroke-linecap="round" stroke-miterlimit="3"/><path d=" M 10.384 58.378 Q 7.647 58.588 4.946 57.688 C 2.058 56.725 0.516 55.424 2.109 50.325 Q 2.134 50.246 12.748 54.236" fill="rgb(255,255,255)" vector-effect="non-scaling-stroke" stroke-width="2" stroke="rgb(0,0,0)" stroke-linejoin="miter" stroke-linecap="round" stroke-miterlimit="3"/><path d=" M 33.318 58.378 Q 36.055 58.588 38.756 57.688 C 41.644 56.725 43.186 55.424 41.593 50.325 Q 41.568 50.246 30.953 54.236" fill="rgb(255,255,255)" vector-effect="non-scaling-stroke" stroke-width="2" stroke="rgb(0,0,0)" stroke-linejoin="miter" stroke-linecap="round" stroke-miterlimit="3"/><path d=" M 22.136 51.705 Q 29.929 51.552 30.244 44.573" fill="rgb(255,255,255)" vector-effect="non-scaling-stroke" stroke-width="2" stroke="rgb(0,0,0)" stroke-linejoin="miter" stroke-linecap="round" stroke-miterlimit="3"/></g></g></g></g></g></g></svg>