<?xml version="1.0" encoding="UTF-8" standalone="no"?>
<!-- Generator: Gravit.io -->
<svg xmlns="http://www.w3.org/2000/svg" xmlns:xlink="http://www.w3.org/1999/xlink" style="isolation:isolate" viewBox="0 0 100 100" width="100pt" height="100pt"><defs><clipPath id="_clipPath_ZZ2FFpeN6hzZQRwVdOhOnxYdJQkJVQzJ"><rect width="100" height="100"/></clipPath></defs><g clip-path="url(#_clipPath_ZZ2FFpeN6hzZQRwVdOhOnxYdJQkJVQzJ)"><path d=" M 6 30.835 L 20.556 16.278 L 49.669 9 L 78.782 16.278 L 93.338 30.835" fill="none" vector-effect="non-scaling-stroke" stroke-width="5" stroke="rgb(0,0,0)" stroke-linejoin="miter" stroke-linecap="round" stroke-miterlimit="3"/><path d=" M 7.682 37.184 L 8.062 92.12 L 90.56 92.5 L 90.697 85.872 L 91.701 37.184 L 75.543 21.787 L 49.311 14.564 L 24.599 21.597 L 7.682 37.184 Z " fill="rgb(0,0,0)" vector-effect="non-scaling-stroke" stroke-width="5" stroke="rgb(0,0,0)" stroke-linejoin="miter" stroke-linecap="square" stroke-miterlimit="3"/><path d=" M 33.334 61.511 L 49.619 75.613 L 33.698 89.896" fill="rgb(0,0,0)" vector-effect="non-scaling-stroke" stroke-width="5" stroke="rgb(0,0,0)" stroke-linejoin="miter" stroke-linecap="square" stroke-miterlimit="3"/><path d="M 42.48 25.2 L 56.39 25.2 C 57.345 25.2 58.12 25.975 58.12 26.93 L 58.12 40.84 C 58.12 41.795 57.345 42.57 56.39 42.57 L 42.48 42.57 C 41.525 42.57 40.75 41.795 40.75 40.84 L 40.75 26.93 C 40.75 25.975 41.525 25.2 42.48 25.2 Z" style="stroke:none;fill:#EBEBEB;stroke-miterlimit:10;"/><path d="M 26.887 56.45 L 44.173 56.45 C 46.335 56.45 48.09 58.206 48.09 60.368 L 48.09 85.982 C 48.09 88.144 46.335 89.9 44.173 89.9 L 26.887 89.9 C 24.725 89.9 22.97 88.144 22.97 85.982 L 22.97 60.368 C 22.97 58.206 24.725 56.45 26.887 56.45 Z" style="stroke:none;fill:#EBEBEB;stroke-miterlimit:10;"/><path d=" M 23.051 56.207 L 47.314 71.812 L 23.051 89.784" fill="none" vector-effect="non-scaling-stroke" stroke-width="5" stroke="rgb(0,0,0)" stroke-linejoin="bevel" stroke-linecap="square" stroke-miterlimit="3"/><path d="M 71.992 56.45 L 54.698 56.45 C 52.536 56.45 50.78 58.206 50.78 60.368 L 50.78 85.982 C 50.78 88.144 52.536 89.9 54.698 89.9 L 71.992 89.9 C 74.154 89.9 75.91 88.144 75.91 85.982 L 75.91 60.368 C 75.91 58.206 74.154 56.45 71.992 56.45 Z" style="stroke:none;fill:#EBEBEB;stroke-miterlimit:10;"/><path d=" M 75.822 56.207 L 51.56 71.812 L 75.822 89.784" fill="none" vector-effect="non-scaling-stroke" stroke-width="5" stroke="rgb(0,0,0)" stroke-linejoin="bevel" stroke-linecap="square" stroke-miterlimit="3"/></g></svg>