<?xml version="1.0" encoding="UTF-8" standalone="no"?>
<!-- Generator: Gravit.io -->
<svg xmlns="http://www.w3.org/2000/svg" xmlns:xlink="http://www.w3.org/1999/xlink" style="isolation:isolate" viewBox="0 0 100 100" width="100pt" height="100pt"><defs><clipPath id="_clipPath_VbD6gjIwLM1G2aWu2Duwa6bHTEOYFkYt"><rect width="100" height="100"/></clipPath></defs><g clip-path="url(#_clipPath_VbD6gjIwLM1G2aWu2Duwa6bHTEOYFkYt)"><mask id="_mask_h8sDbHaPDcf8ZZG19Qbg4UMGP5uzAe1P"><path d=" M 49.002 7.157 Q 42.022 6.588 37.732 7.157 Q 35.473 7.456 39.234 17.676 Q 24.415 23.973 24.207 28.946 C 24.02 33.438 23.851 37.304 23.72 41.833 Q 23.163 61.062 24.207 96.567 L 49.002 96.567" fill="white" stroke="none"/></mask><path d=" M 49.002 7.157 Q 42.022 6.588 37.732 7.157 Q 35.473 7.456 39.234 17.676 Q 24.415 23.973 24.207 28.946 C 24.02 33.438 23.851 37.304 23.72 41.833 Q 23.163 61.062 24.207 96.567 L 49.002 96.567" fill="rgb(251,251,251)"/><path d=" M 49.002 7.157 Q 42.022 6.588 37.732 7.157 Q 35.473 7.456 39.234 17.676 Q 24.415 23.973 24.207 28.946 C 24.02 33.438 23.851 37.304 23.72 41.833 Q 23.163 61.062 24.207 96.567 L 49.002 96.567" fill="rgb(251,251,251)" mask="url(#_mask_h8sDbHaPDcf8ZZG19Qbg4UMGP5uzAe1P)" vector-effect="non-scaling-stroke" stroke-width="8" stroke="rgb(0,0,0)" stroke-linejoin="miter" stroke-linecap="square" stroke-miterlimit="3"/><mask id="_mask_fq5hhvaN5PkI0XwfzYdCfbELAo6dBZa6"><path d=" M 24.959 27.189 Q 22.724 25.253 21.202 21.178 C 20.647 19.694 25.925 14.684 27.964 15.168 C 29.297 15.483 30.568 16.711 31.775 18.85 Q 32.515 20.162 33.224 21.93" fill="white" stroke="none"/></mask><path d=" M 24.959 27.189 Q 22.724 25.253 21.202 21.178 C 20.647 19.694 25.925 14.684 27.964 15.168 C 29.297 15.483 30.568 16.711 31.775 18.85 Q 32.515 20.162 33.224 21.93" fill="rgb(251,251,251)"/><path d=" M 24.959 27.189 Q 22.724 25.253 21.202 21.178 C 20.647 19.694 25.925 14.684 27.964 15.168 C 29.297 15.483 30.568 16.711 31.775 18.85 Q 32.515 20.162 33.224 21.93" fill="rgb(251,251,251)" mask="url(#_mask_fq5hhvaN5PkI0XwfzYdCfbELAo6dBZa6)" vector-effect="non-scaling-stroke" stroke-width="8" stroke="rgb(0,0,0)" stroke-linejoin="miter" stroke-linecap="square" stroke-miterlimit="3"/><mask id="_mask_XrhQxs9KlEOWtyrXlhGrjeAkfeza5h8L"><path d=" M 49.002 7.157 Q 55.982 6.588 60.272 7.157 Q 62.531 7.456 58.77 17.676 Q 73.589 23.973 73.797 28.946 Q 75.891 79.011 73.797 96.567 L 49.002 96.567" fill="white" stroke="none"/></mask><path d=" M 49.002 7.157 Q 55.982 6.588 60.272 7.157 Q 62.531 7.456 58.77 17.676 Q 73.589 23.973 73.797 28.946 Q 75.891 79.011 73.797 96.567 L 49.002 96.567" fill="rgb(251,251,251)"/><path d=" M 49.002 7.157 Q 55.982 6.588 60.272 7.157 Q 62.531 7.456 58.77 17.676 Q 73.589 23.973 73.797 28.946 Q 75.891 79.011 73.797 96.567 L 49.002 96.567" fill="rgb(251,251,251)" mask="url(#_mask_XrhQxs9KlEOWtyrXlhGrjeAkfeza5h8L)" vector-effect="non-scaling-stroke" stroke-width="8" stroke="rgb(0,0,0)" stroke-linejoin="miter" stroke-linecap="square" stroke-miterlimit="3"/><mask id="_mask_8y8lGABr4khP8HhPdJKAZVaRtOCnx3VU"><path d=" M 73.045 27.189 Q 75.28 25.253 76.802 21.178 C 77.357 19.694 72.079 14.684 70.04 15.168 Q 67.223 15.835 64.78 21.93" fill="white" stroke="none"/></mask><path d=" M 73.045 27.189 Q 75.28 25.253 76.802 21.178 C 77.357 19.694 72.079 14.684 70.04 15.168 Q 67.223 15.835 64.78 21.93" fill="rgb(251,251,251)"/><path d=" M 73.045 27.189 Q 75.28 25.253 76.802 21.178 C 77.357 19.694 72.079 14.684 70.04 15.168 Q 67.223 15.835 64.78 21.93" fill="rgb(251,251,251)" mask="url(#_mask_8y8lGABr4khP8HhPdJKAZVaRtOCnx3VU)" vector-effect="non-scaling-stroke" stroke-width="8" stroke="rgb(0,0,0)" stroke-linejoin="miter" stroke-linecap="square" stroke-miterlimit="3"/></g></svg>