<?xml version="1.0" encoding="UTF-8" standalone="no"?>
<!-- Generator: Gravit.io -->
<svg xmlns="http://www.w3.org/2000/svg" xmlns:xlink="http://www.w3.org/1999/xlink" style="isolation:isolate" viewBox="0 0 100 100" width="100pt" height="100pt"><defs><clipPath id="_clipPath_WXTbKJSmQkf4x3VfGPW0PsTHy9sDYeGM"><rect width="100" height="100"/></clipPath></defs><g clip-path="url(#_clipPath_WXTbKJSmQkf4x3VfGPW0PsTHy9sDYeGM)"><path d=" M 24.311 37.701 Q 31.808 50.774 33.998 58.602 Q 37.704 71.849 33.998 97.269 L 53.414 97.269 L 67.439 97.269 Q 67.655 92.643 62.214 87.341 C 48.755 85.245 47.221 81.559 44.021 79.914 C 62.045 93.14 84.91 87.545 82.403 69.731 C 81.131 60.697 77.438 48.544 60.619 43.607 Q 50.037 40.5 44.021 35.308 L 24.311 37.701 Z " fill="none" vector-effect="non-scaling-stroke" stroke-width="3" stroke="rgb(0,0,0)" stroke-linejoin="miter" stroke-linecap="square" stroke-miterlimit="3"/><path d=" M 41.946 29.084 C 20.155 33.9 20.682 25.872 20.682 17.915 C 20.682 13.566 24.155 7.354 29.498 5.225 C 33.724 3.541 38.93 4.243 41.946 6.262 C 47.139 9.738 47.412 16.931 48.17 16.636" fill="none" vector-effect="non-scaling-stroke" stroke-width="3" stroke="rgb(0,0,0)" stroke-linejoin="bevel" stroke-linecap="round" stroke-miterlimit="3"/><path d=" M 41.946 29.084 Q 54.161 30.588 56.469 24.934 C 57.458 22.512 58.156 19.841 56.469 17.673 Q 54.465 15.096 48.17 16.636" fill="none" vector-effect="non-scaling-stroke" stroke-width="3" stroke="rgb(0,0,0)" stroke-linejoin="miter" stroke-linecap="round" stroke-miterlimit="3"/><path d=" M 30.44 10.462 Q 30.759 11.084 25.115 16.8 Q 14.536 8.323 11.758 1.555 C 22.499 9.982 29.895 9.401 30.44 10.462 Z " fill="rgb(249,249,249)" vector-effect="non-scaling-stroke" stroke-width="3" stroke="rgb(0,0,0)" stroke-linejoin="round" stroke-linecap="butt" stroke-miterlimit="3"/><path d=" M 56.469 23.897 C 54.633 24.524 52.202 24.293 50.512 24.072 C 49.995 24.004 49.548 23.938 49.208 23.897" fill="none" vector-effect="non-scaling-stroke" stroke-width="3" stroke="rgb(0,0,0)" stroke-linejoin="miter" stroke-linecap="round" stroke-miterlimit="3"/></g></svg>