<?xml version="1.0" encoding="UTF-8" standalone="no"?>
<!-- Generator: Gravit.io -->
<svg xmlns="http://www.w3.org/2000/svg" xmlns:xlink="http://www.w3.org/1999/xlink" style="isolation:isolate" viewBox="0 0 100 100" width="100pt" height="100pt"><defs><clipPath id="_clipPath_r9Q8OFz9Ju0S42UchVWM9OPI7a1g8aJ4"><rect width="100" height="100"/></clipPath></defs><g clip-path="url(#_clipPath_r9Q8OFz9Ju0S42UchVWM9OPI7a1g8aJ4)"><g><mask id="_mask_IhIlmb4hq3GDSSww1lPCo7spflSfHrV5"><path d=" M 75.096 28.728 Q 69.643 28.283 66.293 28.728 Q 64.528 28.961 67.466 36.944 Q 55.891 41.863 55.729 45.747 C 55.582 49.256 55.45 52.276 55.348 55.814 Q 54.913 70.834 55.729 98.567 L 75.096 98.567" fill="white" stroke="none"/></mask><path d=" M 75.096 28.728 Q 69.643 28.283 66.293 28.728 Q 64.528 28.961 67.466 36.944 Q 55.891 41.863 55.729 45.747 C 55.582 49.256 55.45 52.276 55.348 55.814 Q 54.913 70.834 55.729 98.567 L 75.096 98.567" fill="rgb(251,251,251)"/><path d=" M 75.096 28.728 Q 69.643 28.283 66.293 28.728 Q 64.528 28.961 67.466 36.944 Q 55.891 41.863 55.729 45.747 C 55.582 49.256 55.45 52.276 55.348 55.814 Q 54.913 70.834 55.729 98.567 L 75.096 98.567" fill="rgb(251,251,251)" mask="url(#_mask_IhIlmb4hq3GDSSww1lPCo7spflSfHrV5)" vector-effect="non-scaling-stroke" stroke-width="6.249" stroke="rgb(0,0,0)" stroke-linejoin="miter" stroke-linecap="square" stroke-miterlimit="3"/><mask id="_mask_IKphMN06vOQ8oA8jyHfuhaIl3YHeWUFP"><path d=" M 56.315 44.375 Q 54.57 42.862 53.381 39.68 C 52.948 38.52 57.07 34.608 58.663 34.985 C 59.704 35.232 60.697 36.19 61.64 37.861 Q 62.218 38.886 62.771 40.267" fill="white" stroke="none"/></mask><path d=" M 56.315 44.375 Q 54.57 42.862 53.381 39.68 C 52.948 38.52 57.07 34.608 58.663 34.985 C 59.704 35.232 60.697 36.19 61.64 37.861 Q 62.218 38.886 62.771 40.267" fill="rgb(251,251,251)"/><path d=" M 56.315 44.375 Q 54.57 42.862 53.381 39.68 C 52.948 38.52 57.07 34.608 58.663 34.985 C 59.704 35.232 60.697 36.19 61.64 37.861 Q 62.218 38.886 62.771 40.267" fill="rgb(251,251,251)" mask="url(#_mask_IKphMN06vOQ8oA8jyHfuhaIl3YHeWUFP)" vector-effect="non-scaling-stroke" stroke-width="6.249" stroke="rgb(0,0,0)" stroke-linejoin="miter" stroke-linecap="square" stroke-miterlimit="3"/><mask id="_mask_lYqpyhrFOcMy5D5fH7fN1FvJOE1MzGLU"><path d=" M 75.096 28.728 Q 80.548 28.283 83.899 28.728 Q 85.664 28.961 82.726 36.944 Q 94.301 41.863 94.463 45.747 Q 96.099 84.854 94.463 98.567 L 75.096 98.567" fill="white" stroke="none"/></mask><path d=" M 75.096 28.728 Q 80.548 28.283 83.899 28.728 Q 85.664 28.961 82.726 36.944 Q 94.301 41.863 94.463 45.747 Q 96.099 84.854 94.463 98.567 L 75.096 98.567" fill="rgb(251,251,251)"/><path d=" M 75.096 28.728 Q 80.548 28.283 83.899 28.728 Q 85.664 28.961 82.726 36.944 Q 94.301 41.863 94.463 45.747 Q 96.099 84.854 94.463 98.567 L 75.096 98.567" fill="rgb(251,251,251)" mask="url(#_mask_lYqpyhrFOcMy5D5fH7fN1FvJOE1MzGLU)" vector-effect="non-scaling-stroke" stroke-width="6.249" stroke="rgb(0,0,0)" stroke-linejoin="miter" stroke-linecap="square" stroke-miterlimit="3"/><mask id="_mask_SnUew4N0a8WoQbqO2ohgChSjpvCilEit"><path d=" M 93.876 44.375 Q 95.622 42.862 96.811 39.68 C 97.244 38.52 93.122 34.608 91.529 34.985 Q 89.329 35.506 87.421 40.267" fill="white" stroke="none"/></mask><path d=" M 93.876 44.375 Q 95.622 42.862 96.811 39.68 C 97.244 38.52 93.122 34.608 91.529 34.985 Q 89.329 35.506 87.421 40.267" fill="rgb(251,251,251)"/><path d=" M 93.876 44.375 Q 95.622 42.862 96.811 39.68 C 97.244 38.52 93.122 34.608 91.529 34.985 Q 89.329 35.506 87.421 40.267" fill="rgb(251,251,251)" mask="url(#_mask_SnUew4N0a8WoQbqO2ohgChSjpvCilEit)" vector-effect="non-scaling-stroke" stroke-width="6.249" stroke="rgb(0,0,0)" stroke-linejoin="miter" stroke-linecap="square" stroke-miterlimit="3"/></g><g><path d=" M 13.311 37.701 Q 20.808 50.774 22.998 58.602 Q 26.704 71.849 22.998 97.269 L 42.414 97.269 L 56.439 97.269 Q 56.655 92.643 51.214 87.341 C 37.755 85.245 36.221 81.559 33.021 79.914 C 51.045 93.14 73.91 87.545 71.403 69.731 C 70.131 60.697 66.438 48.544 49.619 43.607 Q 39.037 40.5 33.021 35.308 L 13.311 37.701 Z " fill="rgb(255,255,255)" vector-effect="non-scaling-stroke" stroke-width="3" stroke="rgb(0,0,0)" stroke-linejoin="miter" stroke-linecap="square" stroke-miterlimit="3"/><path d=" M 30.946 29.084 C 9.155 33.9 9.682 25.872 9.682 17.915 C 9.682 13.566 13.155 7.354 18.498 5.225 C 22.724 3.541 27.93 4.243 30.946 6.262 C 36.139 9.738 36.412 16.931 37.17 16.636" fill="rgb(255,255,255)" vector-effect="non-scaling-stroke" stroke-width="3" stroke="rgb(0,0,0)" stroke-linejoin="bevel" stroke-linecap="round" stroke-miterlimit="3"/><path d=" M 30.946 29.084 Q 43.161 30.588 45.469 24.934 C 46.458 22.512 47.156 19.841 45.469 17.673 Q 43.465 15.096 37.17 16.636" fill="rgb(255,255,255)" vector-effect="non-scaling-stroke" stroke-width="3" stroke="rgb(0,0,0)" stroke-linejoin="miter" stroke-linecap="round" stroke-miterlimit="3"/><path d=" M 19.44 10.462 Q 19.759 11.084 14.115 16.8 Q 3.536 8.323 0.758 1.555 C 11.499 9.982 18.895 9.401 19.44 10.462 Z " fill="rgb(249,249,249)" vector-effect="non-scaling-stroke" stroke-width="3" stroke="rgb(0,0,0)" stroke-linejoin="round" stroke-linecap="butt" stroke-miterlimit="3"/><path d=" M 45.469 23.897 C 43.633 24.524 41.202 24.293 39.512 24.072 C 38.995 24.004 38.548 23.938 38.208 23.897" fill="none" vector-effect="non-scaling-stroke" stroke-width="3" stroke="rgb(0,0,0)" stroke-linejoin="miter" stroke-linecap="round" stroke-miterlimit="3"/></g></g></svg>